<svg width="500" height="200" viewBox="0 0 500 200" fill="none" xmlns="http://www.w3.org/2000/svg">
<rect width="500" height="200" fill="#FF6B35"/>
<path d="M70.6302 116.29C68.2329 116.29 66.3189 115.961 64.8882 115.304C63.4962 114.647 62.8002 113.699 62.8002 112.462C61.9882 112.346 61.4276 112.037 61.1182 111.534C60.8089 110.993 60.6156 110.355 60.5382 109.62C60.4996 108.885 60.4802 108.17 60.4802 107.474V106.314C60.7509 104.187 61.0022 102.215 61.2342 100.398C61.5049 98.542 61.6402 96.5507 61.6402 94.424C61.6402 92.7227 61.6209 91.2533 61.5822 90.016C61.5822 88.7787 61.5049 87.3287 61.3502 85.666C61.4662 84.8927 61.0216 84.3127 60.0162 83.926C59.8616 83.8487 59.6682 83.7907 59.4362 83.752C59.2042 83.6747 58.9529 83.578 58.6822 83.462C58.2956 83.3073 57.9669 83.114 57.6962 82.882C57.4642 82.6113 57.3482 82.186 57.3482 81.606C57.3482 80.678 57.8122 79.8467 58.7402 79.112C59.6682 78.3773 60.8476 77.7587 62.2782 77.256C63.7089 76.7147 65.2169 76.27 66.8022 75.922C68.4262 75.574 69.9342 75.3227 71.3262 75.168C72.7182 75.0133 73.8009 74.936 74.5742 74.936C76.5076 74.936 78.2862 75.3033 79.9102 76.038C81.5342 76.734 82.8489 77.7587 83.8542 79.112C84.8596 80.4653 85.3622 82.1087 85.3622 84.042C85.3622 85.782 85.0336 87.3287 84.3762 88.682C83.7189 89.9967 82.6169 90.9827 81.0702 91.64C83.3129 91.9493 85.2269 92.4907 86.8122 93.264C88.3976 93.9987 89.6156 95.1393 90.4662 96.686C91.3556 98.194 91.8002 100.263 91.8002 102.892C91.8002 105.947 90.8529 108.46 88.9582 110.432C87.1022 112.404 84.5696 113.873 81.3602 114.84C78.1509 115.807 74.5742 116.29 70.6302 116.29ZM69.9922 111.766C71.5002 111.766 73.0856 111.708 74.7482 111.592C76.4109 111.437 78.0349 111.089 79.6202 110.548C81.2442 109.968 82.7329 109.04 84.0862 107.764C85.0529 106.875 85.8649 106.024 86.5222 105.212C87.1796 104.361 87.5082 103.201 87.5082 101.732C87.5082 100.533 87.1602 99.528 86.4642 98.716C85.7682 97.904 84.8982 97.2467 83.8542 96.744C82.8489 96.2413 81.8049 95.8547 80.7222 95.584C80.3356 95.468 79.9102 95.3907 79.4462 95.352C79.0209 95.3133 78.5956 95.294 78.1702 95.294C77.0102 95.294 75.8696 95.3907 74.7482 95.584C73.6656 95.7773 72.7569 95.874 72.0222 95.874C71.5582 95.874 71.1909 95.7773 70.9202 95.584C70.6882 95.352 70.5722 95.1007 70.5722 94.83C70.5722 94.1727 70.6496 93.6313 70.8042 93.206C70.9589 92.742 71.2876 92.3167 71.7902 91.93C72.2542 91.6207 72.7376 91.3307 73.2402 91.06C73.5496 90.8667 73.8589 90.712 74.1682 90.596C74.4776 90.4413 74.7869 90.2867 75.0962 90.132C76.1402 89.668 77.1069 89.146 77.9962 88.566C78.9242 87.986 79.6589 87.29 80.2002 86.478C80.7802 85.666 81.0702 84.6607 81.0702 83.462C81.0702 82.418 80.6836 81.5867 79.9102 80.968C79.1756 80.3107 78.3056 79.8467 77.3002 79.576C76.2949 79.3053 75.3862 79.17 74.5742 79.17C73.6462 79.17 72.6022 79.2473 71.4422 79.402C70.3209 79.5567 69.2382 79.8853 68.1942 80.388C67.1502 80.852 66.2996 81.548 65.6422 82.476V85.26C65.6422 87.2707 65.6809 89.262 65.7582 91.234C65.8742 93.206 65.9322 95.1587 65.9322 97.092V99.876C65.9322 100.185 65.9129 100.727 65.8742 101.5C65.8356 102.235 65.7776 102.989 65.7002 103.762C65.6616 104.535 65.6422 105.077 65.6422 105.386C65.6422 105.657 65.5842 105.966 65.4682 106.314C65.3909 106.662 65.2942 107.049 65.1782 107.474C65.0622 107.977 64.9462 108.499 64.8302 109.04C64.7529 109.543 64.7142 110.103 64.7142 110.722C65.2169 111.225 65.9516 111.534 66.9182 111.65C67.8849 111.727 68.9096 111.766 69.9922 111.766ZM113.281 116.87C110.342 116.87 107.674 116.445 105.277 115.594C102.918 114.705 101.043 113.332 99.6511 111.476C98.2591 109.581 97.5631 107.145 97.5631 104.168C97.5631 101.809 97.9498 99.5087 98.7231 97.266C99.5351 95.0233 100.676 92.9933 102.145 91.176C103.614 89.3587 105.374 87.928 107.423 86.884C109.472 85.8013 111.754 85.26 114.267 85.26C116.007 85.26 117.573 85.5887 118.965 86.246C120.396 86.9033 121.536 87.8313 122.387 89.03C123.238 90.2287 123.663 91.6593 123.663 93.322C123.663 95.1007 123.276 96.802 122.503 98.426C121.768 100.011 120.763 101.423 119.487 102.66C118.211 103.897 116.761 104.883 115.137 105.618C113.552 106.314 111.889 106.662 110.149 106.662C108.641 106.662 107.23 106.546 105.915 106.314C104.6 106.043 103.382 105.637 102.261 105.096C102.261 106.565 102.609 107.822 103.305 108.866C104.001 109.871 104.89 110.703 105.973 111.36C107.056 111.979 108.177 112.443 109.337 112.752C110.536 113.023 111.638 113.158 112.643 113.158C113.455 113.158 114.267 113.119 115.079 113.042C115.891 112.926 116.78 112.868 117.747 112.868C119.178 112.868 119.893 113.487 119.893 114.724C119.893 115.691 119.216 116.309 117.863 116.58C117.128 116.735 116.374 116.812 115.601 116.812C114.828 116.851 114.054 116.87 113.281 116.87ZM110.149 102.022C111.502 102.022 112.914 101.751 114.383 101.21C115.852 100.669 117.09 99.818 118.095 98.658C119.139 97.498 119.661 96.0287 119.661 94.25C119.661 92.6647 119.158 91.3887 118.153 90.422C117.186 89.4167 115.891 88.914 114.267 88.914C112.798 88.914 111.348 89.262 109.917 89.958C108.525 90.6153 107.249 91.524 106.089 92.684C104.929 93.8053 104.001 95.0813 103.305 96.512C102.609 97.9427 102.261 99.412 102.261 100.92C103.15 101.384 104.272 101.693 105.625 101.848C106.978 101.964 108.486 102.022 110.149 102.022ZM141.22 116.87C140.176 116.87 138.958 116.812 137.566 116.696C136.174 116.58 134.802 116.329 133.448 115.942C132.134 115.555 131.032 114.937 130.142 114.086C129.292 113.235 128.866 112.095 128.866 110.664C128.866 108.808 129.601 107.88 131.07 107.88C131.573 107.88 131.96 108.054 132.23 108.402L132.752 109.098C132.868 109.253 132.965 109.427 133.042 109.62C133.158 109.775 133.294 109.949 133.448 110.142C133.99 110.954 134.763 111.708 135.768 112.404C136.774 113.1 138.282 113.448 140.292 113.448C141.452 113.448 142.728 113.274 144.12 112.926C145.512 112.539 146.692 111.94 147.658 111.128C148.664 110.316 149.166 109.233 149.166 107.88C149.166 106.759 148.818 105.869 148.122 105.212C147.426 104.555 146.653 104.033 145.802 103.646C145.416 103.453 144.971 103.259 144.468 103.066C144.004 102.873 143.502 102.699 142.96 102.544C142.458 102.389 141.955 102.235 141.452 102.08C140.95 101.925 140.428 101.771 139.886 101.616C138.494 101.152 137.218 100.63 136.058 100.05C134.937 99.4313 134.028 98.658 133.332 97.73C132.675 96.802 132.346 95.6227 132.346 94.192C132.346 92.4133 132.926 90.9247 134.086 89.726C135.285 88.5273 136.774 87.638 138.552 87.058C140.37 86.4393 142.206 86.13 144.062 86.13C144.758 86.13 145.57 86.188 146.498 86.304C147.426 86.42 148.335 86.6327 149.224 86.942C150.114 87.2513 150.848 87.696 151.428 88.276C152.047 88.8173 152.356 89.552 152.356 90.48C152.356 90.944 152.26 91.35 152.066 91.698C151.912 92.0073 151.66 92.162 151.312 92.162C151.08 92.162 150.887 92.1233 150.732 92.046C149.031 91.2727 147.6 90.712 146.44 90.364C145.319 90.016 144.333 89.842 143.482 89.842C142.98 89.842 142.322 89.9193 141.51 90.074C140.737 90.19 139.964 90.4027 139.19 90.712C138.417 90.9827 137.76 91.3887 137.218 91.93C136.716 92.4327 136.464 93.09 136.464 93.902C136.464 95.3713 137.586 96.5893 139.828 97.556C140.64 97.8653 141.549 98.1747 142.554 98.484C143.56 98.7933 144.604 99.1607 145.686 99.586C147.078 100.089 148.354 100.688 149.514 101.384C150.674 102.08 151.583 102.931 152.24 103.936C152.936 104.903 153.284 106.121 153.284 107.59C153.284 109.794 152.724 111.592 151.602 112.984C150.481 114.337 149.012 115.323 147.194 115.942C145.377 116.561 143.386 116.87 141.22 116.87ZM168.766 117.16C167.8 117.16 167.084 116.851 166.62 116.232C166.156 115.613 165.847 114.84 165.692 113.912C165.576 112.984 165.518 112.075 165.518 111.186C165.518 110.761 165.518 110.355 165.518 109.968C165.557 109.581 165.576 109.253 165.576 108.982C165.576 106.198 165.634 103.395 165.75 100.572C165.866 97.7107 165.924 94.598 165.924 91.234C164.494 91.234 163.314 91.292 162.386 91.408C161.458 91.524 160.53 91.582 159.602 91.582C158.984 91.582 158.558 91.466 158.326 91.234C158.094 91.002 157.978 90.6153 157.978 90.074C157.978 89.4553 158.056 89.0107 158.21 88.74C158.404 88.4307 158.636 88.2373 158.906 88.16L164.59 87C165.441 86.8067 166.04 86.42 166.388 85.84C166.775 85.26 167.046 84.6993 167.2 84.158C167.278 83.8487 167.316 83.5587 167.316 83.288C167.355 82.9787 167.394 82.65 167.432 82.302C167.432 81.9927 167.432 81.7027 167.432 81.432C167.471 81.1227 167.49 80.8327 167.49 80.562C167.568 79.3247 167.761 78.416 168.07 77.836C168.418 77.256 169.076 76.966 170.042 76.966C170.932 76.966 171.454 77.314 171.608 78.01C171.802 78.706 171.898 79.3633 171.898 79.982C171.898 80.4073 171.86 81.0647 171.782 81.954C171.744 82.8047 171.705 83.6553 171.666 84.506C171.628 85.3567 171.589 85.9753 171.55 86.362H180.83C181.178 86.362 181.526 86.594 181.874 87.058C182.222 87.522 182.396 88.1213 182.396 88.856C182.396 89.088 182.3 89.3973 182.106 89.784C181.913 90.132 181.681 90.306 181.41 90.306C181.024 90.306 180.289 90.3253 179.206 90.364C178.162 90.364 177.022 90.3833 175.784 90.422C174.586 90.4607 173.522 90.4993 172.594 90.538C171.666 90.5767 171.144 90.6347 171.028 90.712C170.835 93.032 170.68 95.2747 170.564 97.44C170.487 99.5667 170.448 101.635 170.448 103.646C170.448 104.961 170.468 106.237 170.506 107.474C170.584 108.673 170.642 109.871 170.68 111.07C170.68 111.263 170.7 111.553 170.738 111.94C170.777 112.327 170.796 112.752 170.796 113.216C170.796 114.105 170.661 114.995 170.39 115.884C170.158 116.735 169.617 117.16 168.766 117.16ZM217.079 116.58C216.151 116.58 215.436 116.232 214.933 115.536C214.469 114.84 214.14 113.989 213.947 112.984C213.792 111.979 213.696 110.993 213.657 110.026C213.657 109.059 213.657 108.325 213.657 107.822V101.384C213.657 98.484 213.812 95.4873 214.121 92.394C214.43 89.3007 214.585 86.014 214.585 82.534C212.574 82.534 211.24 82.36 210.583 82.012C209.964 81.664 209.655 80.91 209.655 79.75C209.655 79.0927 210.003 78.5127 210.699 78.01C211.395 77.5073 212.362 77.1787 213.599 77.024C213.947 76.908 214.604 76.792 215.571 76.676C216.576 76.56 217.698 76.4633 218.935 76.386C220.172 76.27 221.352 76.1927 222.473 76.154C223.633 76.0767 224.542 76.038 225.199 76.038C229.027 76.038 232.159 76.3667 234.595 77.024C237.031 77.6427 238.829 78.706 239.989 80.214C241.188 81.722 241.787 83.81 241.787 86.478C241.787 88.3727 241.284 90.19 240.279 91.93C239.312 93.6313 237.998 95.1587 236.335 96.512C234.672 97.8653 232.797 98.9673 230.709 99.818C228.621 100.669 226.494 101.191 224.329 101.384C223.942 101.423 223.536 101.461 223.111 101.5C222.686 101.5 222.222 101.5 221.719 101.5C220.559 101.5 219.418 101.442 218.297 101.326C218.297 103.453 218.336 105.289 218.413 106.836C218.529 108.344 218.587 109.775 218.587 111.128V112.926C218.587 113.583 218.529 114.241 218.413 114.898C218.258 115.555 218.065 116 217.833 116.232C217.64 116.464 217.388 116.58 217.079 116.58ZM225.373 96.512C226.262 96.512 227.384 96.222 228.737 95.642C230.09 95.0233 231.444 94.2307 232.797 93.264C234.15 92.2587 235.272 91.1567 236.161 89.958C237.089 88.7593 237.553 87.58 237.553 86.42C237.553 84.8347 237.147 83.6747 236.335 82.94C235.523 82.1667 234.518 81.6447 233.319 81.374C232.159 81.1033 230.98 80.8713 229.781 80.678C229.162 80.562 228.466 80.4847 227.693 80.446C226.958 80.4073 226.204 80.388 225.431 80.388C223.536 80.388 222.009 80.4847 220.849 80.678C220.578 80.7167 220.308 80.852 220.037 81.084C219.766 81.2773 219.592 81.606 219.515 82.07C219.322 83.5007 219.148 85.086 218.993 86.826C218.838 88.566 218.703 90.2867 218.587 91.988C218.471 93.6507 218.374 95.1587 218.297 96.512H225.373ZM249.127 116.58C248.702 116.58 248.373 116.387 248.141 116C247.948 115.613 247.812 115.169 247.735 114.666C247.658 114.163 247.58 113.738 247.503 113.39V108.808C247.503 106.488 247.6 104.11 247.793 101.674C248.025 99.238 248.141 96.86 248.141 94.54C248.141 93.4187 248.064 92.2973 247.909 91.176C247.793 90.0547 247.658 89.1073 247.503 88.334C247.464 88.1407 247.426 87.9667 247.387 87.812C247.387 87.6573 247.387 87.5027 247.387 87.348C247.387 86.8453 247.542 86.5167 247.851 86.362C248.16 86.2073 248.682 86.13 249.417 86.13C250.306 86.13 250.964 86.5167 251.389 87.29C251.814 88.0633 252.124 88.972 252.317 90.016C252.549 91.0213 252.762 91.93 252.955 92.742C254.076 91.3887 255.294 90.4027 256.609 89.784C257.924 89.1653 259.026 88.624 259.915 88.16C260.766 87.7347 261.616 87.406 262.467 87.174C263.356 86.9033 264.342 86.768 265.425 86.768C266.508 86.768 267.513 87.0773 268.441 87.696C269.408 88.276 269.891 88.914 269.891 89.61C269.891 90.422 269.64 91.0213 269.137 91.408C268.634 91.7947 268.054 91.988 267.397 91.988C267.204 91.988 267.01 91.9687 266.817 91.93C266.662 91.8527 266.488 91.7947 266.295 91.756C266.024 91.64 265.715 91.5433 265.367 91.466C265.058 91.3887 264.748 91.35 264.439 91.35C263.24 91.35 262.08 91.582 260.959 92.046C259.838 92.4713 258.89 92.8967 258.117 93.322C256.764 94.0567 255.7 94.888 254.927 95.816C254.192 96.7053 253.574 97.5367 253.071 98.31C252.8 99.7793 252.626 101.21 252.549 102.602C252.472 103.994 252.414 105.077 252.375 105.85C252.336 106.662 252.298 107.513 252.259 108.402C252.22 109.291 252.162 110.181 252.085 111.07C252.008 111.998 251.892 112.887 251.737 113.738C251.582 114.589 251.312 115.285 250.925 115.826C250.538 116.329 249.939 116.58 249.127 116.58ZM281.043 116.58C279.303 116.58 277.679 116.193 276.171 115.42C274.702 114.647 273.464 113.603 272.459 112.288C271.454 110.973 270.796 109.504 270.487 107.88V104.806C270.487 102.602 270.893 100.379 271.705 98.136C272.517 95.8933 273.638 93.8247 275.069 91.93C276.538 90.0353 278.259 88.5273 280.231 87.406C282.242 86.246 284.407 85.666 286.727 85.666C288.196 85.666 289.608 85.9173 290.961 86.42C292.353 86.9227 293.59 87.5027 294.673 88.16C294.905 86.536 295.195 85.4147 295.543 84.796C295.891 84.1773 296.49 83.868 297.341 83.868C297.998 83.868 298.462 84.0807 298.733 84.506C299.004 84.8927 299.139 85.5887 299.139 86.594C299.139 88.914 299.081 91.1953 298.965 93.438C298.888 95.642 298.849 97.904 298.849 100.224C298.849 102.08 298.946 103.994 299.139 105.966C299.371 107.938 299.487 109.833 299.487 111.65C299.487 112.23 299.487 112.81 299.487 113.39C299.526 113.97 299.429 114.453 299.197 114.84C299.004 115.188 298.578 115.362 297.921 115.362C296.993 115.362 296.297 114.937 295.833 114.086C295.408 113.197 295.118 112.133 294.963 110.896C294.808 109.659 294.654 108.499 294.499 107.416C294.112 108.46 293.455 109.485 292.527 110.49C291.638 111.495 290.729 112.365 289.801 113.1C288.912 113.796 288.216 114.299 287.713 114.608C287.249 114.879 287.249 114.84 287.713 114.492C286.862 115.111 285.799 115.613 284.523 116C283.286 116.387 282.126 116.58 281.043 116.58ZM280.463 112.926C282.203 112.926 283.827 112.423 285.335 111.418C286.843 110.413 288.158 109.117 289.279 107.532C290.439 105.947 291.328 104.284 291.947 102.544C292.604 100.804 292.933 99.1993 292.933 97.73C292.933 96.9953 292.836 96.164 292.643 95.236C292.488 94.2693 292.179 93.3413 291.715 92.452C291.251 91.5627 290.613 90.828 289.801 90.248C289.028 89.668 288.003 89.378 286.727 89.378C285.064 89.378 283.479 89.9193 281.971 91.002C280.463 92.046 279.11 93.3993 277.911 95.062C276.751 96.686 275.842 98.368 275.185 100.108C274.528 101.848 274.199 103.414 274.199 104.806C274.199 105.85 274.373 107.01 274.721 108.286C275.108 109.562 275.746 110.664 276.635 111.592C277.563 112.481 278.839 112.926 280.463 112.926ZM318.591 115.13C315.884 115.13 313.603 114.473 311.747 113.158C309.891 111.843 308.479 110.084 307.513 107.88C306.546 105.637 306.063 103.201 306.063 100.572C306.063 97.6333 306.72 94.946 308.035 92.51C309.349 90.074 311.167 88.1213 313.487 86.652C315.807 85.144 318.436 84.39 321.375 84.39C322.187 84.39 323.134 84.448 324.217 84.564C325.299 84.68 326.343 84.912 327.349 85.26C328.354 85.608 329.185 86.1107 329.843 86.768C330.5 87.4253 330.829 88.2953 330.829 89.378C330.829 89.8033 330.655 90.1707 330.307 90.48C329.959 90.7893 329.398 90.944 328.625 90.944C328.006 90.944 327.426 90.7893 326.885 90.48C326.382 90.1707 325.899 89.8613 325.435 89.552C324.739 89.088 324.004 88.682 323.231 88.334C322.496 87.9473 321.684 87.754 320.795 87.754C319.093 87.754 317.605 88.1987 316.329 89.088C315.053 89.9387 313.989 91.06 313.139 92.452C312.288 93.8053 311.65 95.2553 311.225 96.802C310.799 98.31 310.587 99.702 310.587 100.978C310.587 103.491 311.07 105.502 312.037 107.01C313.042 108.479 314.357 109.543 315.981 110.2C317.643 110.819 319.441 111.128 321.375 111.128C323.231 111.128 324.913 110.799 326.421 110.142C327.967 109.485 329.533 108.789 331.119 108.054C331.66 107.783 332.105 107.648 332.453 107.648C332.917 107.648 333.226 107.841 333.381 108.228C333.535 108.576 333.613 109.021 333.613 109.562C333.613 110.567 333.207 111.418 332.395 112.114C331.583 112.771 330.558 113.313 329.321 113.738C328.083 114.125 326.749 114.434 325.319 114.666C323.927 114.859 322.631 114.995 321.433 115.072C320.234 115.111 319.287 115.13 318.591 115.13ZM349.337 117.16C348.37 117.16 347.655 116.851 347.191 116.232C346.727 115.613 346.417 114.84 346.263 113.912C346.147 112.984 346.089 112.075 346.089 111.186C346.089 110.761 346.089 110.355 346.089 109.968C346.127 109.581 346.147 109.253 346.147 108.982C346.147 106.198 346.205 103.395 346.321 100.572C346.437 97.7107 346.495 94.598 346.495 91.234C345.064 91.234 343.885 91.292 342.957 91.408C342.029 91.524 341.101 91.582 340.173 91.582C339.554 91.582 339.129 91.466 338.897 91.234C338.665 91.002 338.549 90.6153 338.549 90.074C338.549 89.4553 338.626 89.0107 338.781 88.74C338.974 88.4307 339.206 88.2373 339.477 88.16L345.161 87C346.011 86.8067 346.611 86.42 346.959 85.84C347.345 85.26 347.616 84.6993 347.771 84.158C347.848 83.8487 347.887 83.5587 347.887 83.288C347.925 82.9787 347.964 82.65 348.003 82.302C348.003 81.9927 348.003 81.7027 348.003 81.432C348.041 81.1227 348.061 80.8327 348.061 80.562C348.138 79.3247 348.331 78.416 348.641 77.836C348.989 77.256 349.646 76.966 350.613 76.966C351.502 76.966 352.024 77.314 352.179 78.01C352.372 78.706 352.469 79.3633 352.469 79.982C352.469 80.4073 352.43 81.0647 352.353 81.954C352.314 82.8047 352.275 83.6553 352.237 84.506C352.198 85.3567 352.159 85.9753 352.121 86.362H361.401C361.749 86.362 362.097 86.594 362.445 87.058C362.793 87.522 362.967 88.1213 362.967 88.856C362.967 89.088 362.87 89.3973 362.677 89.784C362.483 90.132 362.251 90.306 361.981 90.306C361.594 90.306 360.859 90.3253 359.777 90.364C358.733 90.364 357.592 90.3833 356.355 90.422C355.156 90.4607 354.093 90.4993 353.165 90.538C352.237 90.5767 351.715 90.6347 351.599 90.712C351.405 93.032 351.251 95.2747 351.135 97.44C351.057 99.5667 351.019 101.635 351.019 103.646C351.019 104.961 351.038 106.237 351.077 107.474C351.154 108.673 351.212 109.871 351.251 111.07C351.251 111.263 351.27 111.553 351.309 111.94C351.347 112.327 351.367 112.752 351.367 113.216C351.367 114.105 351.231 114.995 350.961 115.884C350.729 116.735 350.187 117.16 349.337 117.16ZM374.297 78.068C373.021 78.068 371.996 77.778 371.223 77.198C370.488 76.5793 370.121 75.7867 370.121 74.82C370.121 73.9307 370.546 73.254 371.397 72.79C372.248 72.2873 373.33 72.036 374.645 72.036C375.96 72.036 376.984 72.3453 377.719 72.964C378.454 73.544 378.821 74.356 378.821 75.4C378.821 76.2507 378.396 76.908 377.545 77.372C376.733 77.836 375.65 78.068 374.297 78.068ZM371.281 115.13C370.74 115.13 370.314 114.782 370.005 114.086C369.734 113.39 369.541 112.501 369.425 111.418C369.348 110.335 369.309 109.214 369.309 108.054C369.309 107.513 369.309 106.971 369.309 106.43C369.348 105.85 369.367 105.309 369.367 104.806C369.367 104.651 369.425 104.149 369.541 103.298C369.657 102.409 369.792 101.384 369.947 100.224C370.102 99.064 370.256 97.9233 370.411 96.802C370.604 95.642 370.759 94.7333 370.875 94.076C370.991 93.5733 371.126 92.916 371.281 92.104C371.436 91.2533 371.706 90.4993 372.093 89.842C372.518 89.146 373.118 88.798 373.891 88.798C374.78 88.798 375.399 88.972 375.747 89.32C376.134 89.6293 376.327 90.132 376.327 90.828C376.327 91.0213 376.308 91.2147 376.269 91.408C376.269 91.6013 376.25 91.814 376.211 92.046C376.018 93.2833 375.766 94.83 375.457 96.686C375.186 98.5033 374.935 100.417 374.703 102.428C374.51 104.4 374.452 106.275 374.529 108.054C374.568 108.479 374.606 108.982 374.645 109.562C374.722 110.103 374.761 110.645 374.761 111.186C374.761 112.191 374.548 113.1 374.123 113.912C373.698 114.724 372.75 115.13 371.281 115.13ZM395.509 115.13C392.802 115.13 390.521 114.473 388.665 113.158C386.809 111.843 385.397 110.084 384.431 107.88C383.464 105.637 382.981 103.201 382.981 100.572C382.981 97.6333 383.638 94.946 384.953 92.51C386.267 90.074 388.085 88.1213 390.405 86.652C392.725 85.144 395.354 84.39 398.293 84.39C399.105 84.39 400.052 84.448 401.135 84.564C402.217 84.68 403.261 84.912 404.267 85.26C405.272 85.608 406.103 86.1107 406.761 86.768C407.418 87.4253 407.747 88.2953 407.747 89.378C407.747 89.8033 407.573 90.1707 407.225 90.48C406.877 90.7893 406.316 90.944 405.543 90.944C404.924 90.944 404.344 90.7893 403.803 90.48C403.3 90.1707 402.817 89.8613 402.353 89.552C401.657 89.088 400.922 88.682 400.149 88.334C399.414 87.9473 398.602 87.754 397.713 87.754C396.011 87.754 394.523 88.1987 393.247 89.088C391.971 89.9387 390.907 91.06 390.057 92.452C389.206 93.8053 388.568 95.2553 388.143 96.802C387.717 98.31 387.505 99.702 387.505 100.978C387.505 103.491 387.988 105.502 388.955 107.01C389.96 108.479 391.275 109.543 392.899 110.2C394.561 110.819 396.359 111.128 398.293 111.128C400.149 111.128 401.831 110.799 403.339 110.142C404.885 109.485 406.451 108.789 408.037 108.054C408.578 107.783 409.023 107.648 409.371 107.648C409.835 107.648 410.144 107.841 410.299 108.228C410.453 108.576 410.531 109.021 410.531 109.562C410.531 110.567 410.125 111.418 409.313 112.114C408.501 112.771 407.476 113.313 406.239 113.738C405.001 114.125 403.667 114.434 402.237 114.666C400.845 114.859 399.549 114.995 398.351 115.072C397.152 115.111 396.205 115.13 395.509 115.13ZM432.055 116.87C429.116 116.87 426.448 116.445 424.051 115.594C421.692 114.705 419.817 113.332 418.425 111.476C417.033 109.581 416.337 107.145 416.337 104.168C416.337 101.809 416.723 99.5087 417.497 97.266C418.309 95.0233 419.449 92.9933 420.919 91.176C422.388 89.3587 424.147 87.928 426.197 86.884C428.246 85.8013 430.527 85.26 433.041 85.26C434.781 85.26 436.347 85.5887 437.739 86.246C439.169 86.9033 440.31 87.8313 441.161 89.03C442.011 90.2287 442.437 91.6593 442.437 93.322C442.437 95.1007 442.05 96.802 441.277 98.426C440.542 100.011 439.537 101.423 438.261 102.66C436.985 103.897 435.535 104.883 433.911 105.618C432.325 106.314 430.663 106.662 428.923 106.662C427.415 106.662 426.003 106.546 424.689 106.314C423.374 106.043 422.156 105.637 421.035 105.096C421.035 106.565 421.383 107.822 422.079 108.866C422.775 109.871 423.664 110.703 424.747 111.36C425.829 111.979 426.951 112.443 428.111 112.752C429.309 113.023 430.411 113.158 431.417 113.158C432.229 113.158 433.041 113.119 433.853 113.042C434.665 112.926 435.554 112.868 436.521 112.868C437.951 112.868 438.667 113.487 438.667 114.724C438.667 115.691 437.99 116.309 436.637 116.58C435.902 116.735 435.148 116.812 434.375 116.812C433.601 116.851 432.828 116.87 432.055 116.87ZM428.923 102.022C430.276 102.022 431.687 101.751 433.157 101.21C434.626 100.669 435.863 99.818 436.869 98.658C437.913 97.498 438.435 96.0287 438.435 94.25C438.435 92.6647 437.932 91.3887 436.927 90.422C435.96 89.4167 434.665 88.914 433.041 88.914C431.571 88.914 430.121 89.262 428.691 89.958C427.299 90.6153 426.023 91.524 424.863 92.684C423.703 93.8053 422.775 95.0813 422.079 96.512C421.383 97.9427 421.035 99.412 421.035 100.92C421.924 101.384 423.045 101.693 424.399 101.848C425.752 101.964 427.26 102.022 428.923 102.022Z" fill="#F7F7FF"/>
</svg>
