<svg width="500" height="200" viewBox="0 0 500 200" fill="none" xmlns="http://www.w3.org/2000/svg">
<rect width="500" height="200" fill="#0075A2"/>
<path d="M114.453 116.87C113.796 116.87 112.926 116.851 111.843 116.812C110.76 116.773 109.736 116.599 108.769 116.29C107.802 116.019 107.164 115.517 106.855 114.782C106.855 114.163 106.874 113.042 106.913 111.418C106.952 109.794 106.971 107.861 106.971 105.618C107.01 103.337 107.048 100.901 107.087 98.31C107.126 95.7193 107.145 93.1867 107.145 90.712C107.145 89.4747 107.029 88.2373 106.797 87C106.565 85.724 106.236 84.6027 105.811 83.636C105.424 82.6693 104.941 82.0507 104.361 81.78C103.897 82.012 103.433 82.186 102.969 82.302C102.544 82.3793 102.118 82.418 101.693 82.418C101.074 82.418 100.552 82.2827 100.127 82.012C99.7015 81.7027 99.4889 81.258 99.4889 80.678C99.4889 79.634 99.8949 78.7833 100.707 78.126C101.519 77.4687 102.524 76.966 103.723 76.618C104.922 76.27 106.12 76.0187 107.319 75.864C108.518 75.7093 109.484 75.5933 110.219 75.516C110.76 75.516 111.495 75.4967 112.423 75.458C113.351 75.3807 114.202 75.3227 114.975 75.284C115.748 75.2453 116.174 75.226 116.251 75.226C118.996 75.3033 121.645 75.7867 124.197 76.676C126.788 77.5653 129.108 78.822 131.157 80.446C133.245 82.0313 134.888 83.9453 136.087 86.188C137.324 88.4307 137.943 90.9633 137.943 93.786C137.943 96.802 137.286 99.702 135.971 102.486C134.656 105.231 132.878 107.687 130.635 109.852C128.392 112.017 125.879 113.738 123.095 115.014C120.311 116.251 117.43 116.87 114.453 116.87ZM114.105 111.998C116.386 111.998 118.687 111.476 121.007 110.432C123.366 109.388 125.512 107.977 127.445 106.198C129.417 104.419 131.002 102.409 132.201 100.166C133.4 97.8847 133.999 95.5453 133.999 93.148C133.999 91.0987 133.458 89.2427 132.375 87.58C131.292 85.9173 129.823 84.506 127.967 83.346C126.111 82.1473 124.042 81.2387 121.761 80.62C119.518 80.0013 117.198 79.692 114.801 79.692C114.53 79.692 114.221 79.692 113.873 79.692C113.564 79.692 113.254 79.7113 112.945 79.75C111.437 79.8273 110.509 80.4267 110.161 81.548C110.818 84.564 111.244 87.464 111.437 90.248C111.63 93.032 111.727 95.932 111.727 98.948C111.727 100.611 111.669 102.293 111.553 103.994C111.476 105.695 111.437 107.455 111.437 109.272V111.012C111.862 111.399 112.288 111.669 112.713 111.824C113.177 111.94 113.641 111.998 114.105 111.998ZM159.387 116.87C156.448 116.87 153.78 116.445 151.383 115.594C149.024 114.705 147.149 113.332 145.757 111.476C144.365 109.581 143.669 107.145 143.669 104.168C143.669 101.809 144.055 99.5087 144.829 97.266C145.641 95.0233 146.781 92.9933 148.251 91.176C149.72 89.3587 151.479 87.928 153.529 86.884C155.578 85.8013 157.859 85.26 160.373 85.26C162.113 85.26 163.679 85.5887 165.071 86.246C166.501 86.9033 167.642 87.8313 168.493 89.03C169.343 90.2287 169.769 91.6593 169.769 93.322C169.769 95.1007 169.382 96.802 168.609 98.426C167.874 100.011 166.869 101.423 165.593 102.66C164.317 103.897 162.867 104.883 161.243 105.618C159.657 106.314 157.995 106.662 156.255 106.662C154.747 106.662 153.335 106.546 152.021 106.314C150.706 106.043 149.488 105.637 148.367 105.096C148.367 106.565 148.715 107.822 149.411 108.866C150.107 109.871 150.996 110.703 152.079 111.36C153.161 111.979 154.283 112.443 155.443 112.752C156.641 113.023 157.743 113.158 158.749 113.158C159.561 113.158 160.373 113.119 161.185 113.042C161.997 112.926 162.886 112.868 163.853 112.868C165.283 112.868 165.999 113.487 165.999 114.724C165.999 115.691 165.322 116.309 163.969 116.58C163.234 116.735 162.48 116.812 161.707 116.812C160.933 116.851 160.16 116.87 159.387 116.87ZM156.255 102.022C157.608 102.022 159.019 101.751 160.489 101.21C161.958 100.669 163.195 99.818 164.201 98.658C165.245 97.498 165.767 96.0287 165.767 94.25C165.767 92.6647 165.264 91.3887 164.259 90.422C163.292 89.4167 161.997 88.914 160.373 88.914C158.903 88.914 157.453 89.262 156.023 89.958C154.631 90.6153 153.355 91.524 152.195 92.684C151.035 93.8053 150.107 95.0813 149.411 96.512C148.715 97.9427 148.367 99.412 148.367 100.92C149.256 101.384 150.377 101.693 151.731 101.848C153.084 101.964 154.592 102.022 156.255 102.022ZM188.37 115.42C186.978 115.42 185.663 115.227 184.426 114.84C183.188 114.415 182.144 113.989 181.294 113.564C180.714 114.26 180.114 114.705 179.496 114.898C178.916 115.053 178.374 115.13 177.872 115.13C176.828 115.13 176.306 114.318 176.306 112.694C176.306 111.843 176.325 111.128 176.364 110.548C176.441 109.929 176.615 109.117 176.886 108.112C177.543 103.588 178.046 98.9287 178.394 94.134C178.78 89.3007 178.974 84.5253 178.974 79.808C178.974 77.372 178.916 74.9747 178.8 72.616C178.8 72.2293 178.935 71.9973 179.206 71.92C179.476 71.8427 179.747 71.804 180.018 71.804C180.907 71.804 181.564 71.92 181.99 72.152C182.454 72.3453 182.724 72.848 182.802 73.66V76.85C182.802 79.4407 182.744 82.0313 182.628 84.622C182.55 87.174 182.512 89.958 182.512 92.974C182.512 93.3607 182.531 93.728 182.57 94.076C182.647 94.424 182.782 94.598 182.976 94.598C183.13 94.598 183.343 94.482 183.614 94.25C183.884 94.018 184.232 93.5927 184.658 92.974C186.359 91.002 188.273 89.3587 190.4 88.044C192.526 86.6907 195.136 86.014 198.23 86.014C199.235 86.014 200.279 86.1493 201.362 86.42C202.483 86.652 203.527 87.1353 204.494 87.87C205.46 88.566 206.234 89.6293 206.814 91.06C207.432 92.452 207.742 94.308 207.742 96.628C207.742 99.3347 207.239 101.848 206.234 104.168C205.228 106.449 203.836 108.441 202.058 110.142C200.279 111.805 198.21 113.1 195.852 114.028C193.532 114.956 191.038 115.42 188.37 115.42ZM188.37 111.534C190.187 111.534 192.004 111.109 193.822 110.258C195.639 109.407 197.302 108.267 198.81 106.836C200.356 105.405 201.594 103.82 202.522 102.08C203.45 100.301 203.914 98.484 203.914 96.628C203.914 95.5453 203.643 94.5013 203.102 93.496C202.599 92.4907 201.864 91.6593 200.898 91.002C199.97 90.306 198.887 89.958 197.65 89.958C196.412 89.958 195.078 90.3447 193.648 91.118C192.217 91.8913 190.806 92.8967 189.414 94.134C188.022 95.3713 186.746 96.744 185.586 98.252C184.464 99.7213 183.556 101.191 182.86 102.66C182.202 104.129 181.874 105.463 181.874 106.662C181.874 107.551 182.106 108.305 182.57 108.924C183.072 109.543 183.691 110.045 184.426 110.432C185.16 110.819 185.876 111.109 186.572 111.302C187.306 111.457 187.906 111.534 188.37 111.534ZM220.838 115.42C218.866 115.42 217.319 114.879 216.198 113.796C215.076 112.675 214.264 111.244 213.762 109.504C213.298 107.725 213.066 105.85 213.066 103.878C213.066 102.525 213.085 101.442 213.124 100.63C213.162 99.7793 213.24 98.9093 213.356 98.02C213.51 97.1307 213.723 95.9127 213.994 94.366C214.148 93.5927 214.303 92.8193 214.458 92.046C214.612 91.234 214.825 90.4607 215.096 89.726C215.405 88.8367 215.734 88.218 216.082 87.87C216.468 87.4833 216.797 87.29 217.068 87.29C217.802 87.29 218.344 87.5027 218.692 87.928C219.078 88.3147 219.272 88.8173 219.272 89.436C219.272 90.2867 219.156 91.0793 218.924 91.814C218.692 92.5487 218.498 93.2447 218.344 93.902C218.073 95.642 217.841 97.034 217.648 98.078C217.454 99.0833 217.3 100.011 217.184 100.862C217.106 101.674 217.068 102.679 217.068 103.878C217.068 104.458 217.106 105.154 217.184 105.966C217.3 106.778 217.493 107.571 217.764 108.344C218.034 109.117 218.44 109.775 218.982 110.316C219.523 110.819 220.238 111.07 221.128 111.07C222.056 111.07 222.926 110.741 223.738 110.084C224.588 109.388 225.188 108.827 225.536 108.402C228.165 105.077 230.504 101.829 232.554 98.658C234.603 95.4873 236.633 92.0267 238.644 88.276C238.914 87.8507 239.127 87.58 239.282 87.464C239.475 87.348 239.707 87.29 239.978 87.29C240.867 87.29 241.486 87.4447 241.834 87.754C242.182 88.0633 242.356 88.5853 242.356 89.32C242.356 89.784 242.298 90.3447 242.182 91.002C241.602 93.902 241.312 96.7827 241.312 99.644C241.312 101.577 241.486 103.375 241.834 105.038C242.182 106.701 242.742 108.073 243.516 109.156C244.096 109.891 244.386 110.529 244.386 111.07C244.386 111.727 244.192 112.249 243.806 112.636C243.458 113.023 243.013 113.216 242.472 113.216C241.002 113.216 239.842 112.056 238.992 109.736C238.721 108.924 238.412 107.899 238.064 106.662C237.754 105.386 237.464 104.11 237.194 102.834C236.923 101.558 236.749 100.495 236.672 99.644C236.169 100.456 235.705 101.268 235.28 102.08C234.893 102.853 234.39 103.685 233.772 104.574C233.346 105.193 232.844 105.908 232.264 106.72C231.684 107.493 231.065 108.305 230.408 109.156C229.054 110.819 227.566 112.288 225.942 113.564C224.318 114.801 222.616 115.42 220.838 115.42ZM264.588 132.356C263.235 132.356 261.92 132.163 260.644 131.776C259.368 131.389 258.285 130.79 257.396 129.978C256.545 129.166 256.004 128.141 255.772 126.904C255.695 126.479 255.83 126.131 256.178 125.86C256.565 125.589 257.067 125.454 257.686 125.454C258.034 125.454 258.343 125.531 258.614 125.686C258.885 125.841 259.155 126.015 259.426 126.208C259.542 126.324 259.658 126.421 259.774 126.498C259.89 126.614 260.006 126.711 260.122 126.788C260.625 127.175 261.224 127.6 261.92 128.064C262.616 128.528 263.486 128.76 264.53 128.76C266.115 128.76 267.449 128.296 268.532 127.368C269.615 126.479 270.504 125.319 271.2 123.888C271.935 122.496 272.476 121.046 272.824 119.538C273.211 118.03 273.462 116.696 273.578 115.536C273.733 114.144 273.868 112.578 273.984 110.838C274.1 109.098 274.158 107.571 274.158 106.256C274.158 105.096 274.1 104.265 273.984 103.762C273.133 104.922 272.205 106.024 271.2 107.068C270.233 108.112 269.325 109.021 268.474 109.794C267.662 110.567 267.063 111.128 266.676 111.476C265.98 112.056 265.149 112.655 264.182 113.274C263.254 113.893 262.268 114.415 261.224 114.84C260.219 115.265 259.233 115.478 258.266 115.478C256.835 115.478 255.501 115.13 254.264 114.434C253.027 113.738 252.021 112.791 251.248 111.592C250.513 110.393 250.146 109.059 250.146 107.59C250.146 104.922 250.687 102.273 251.77 99.644C252.853 97.0147 254.341 94.6173 256.236 92.452C258.169 90.248 260.393 88.508 262.906 87.232C265.458 85.9173 268.184 85.26 271.084 85.26C272.321 85.26 273.423 85.5307 274.39 86.072C275.357 86.6133 275.84 87.348 275.84 88.276C275.84 88.6627 275.685 89.088 275.376 89.552C275.067 90.016 274.68 90.248 274.216 90.248C274.023 90.248 273.81 90.19 273.578 90.074C273.114 89.8033 272.592 89.5907 272.012 89.436C271.432 89.2427 270.813 89.146 270.156 89.146C269.499 89.146 268.822 89.262 268.126 89.494C266.231 89.9967 264.453 90.828 262.79 91.988C261.166 93.1093 259.716 94.4627 258.44 96.048C257.203 97.6333 256.236 99.3347 255.54 101.152C254.844 102.969 254.496 104.806 254.496 106.662C254.496 108.209 254.709 109.465 255.134 110.432C255.598 111.36 256.545 111.824 257.976 111.824C258.904 111.824 259.851 111.534 260.818 110.954C261.823 110.374 262.751 109.678 263.602 108.866C264.491 108.054 265.207 107.319 265.748 106.662C266.56 105.734 267.411 104.709 268.3 103.588C269.189 102.467 270.04 101.384 270.852 100.34C271.664 99.2573 272.341 98.31 272.882 97.498C273.462 96.686 273.829 96.1447 273.984 95.874C274.332 95.4487 274.622 95.1973 274.854 95.12C275.086 95.004 275.415 94.946 275.84 94.946C276.536 94.946 277.039 95.178 277.348 95.642C277.657 96.0673 277.87 96.5893 277.986 97.208C278.102 97.8267 278.199 98.4067 278.276 98.948V103.356C278.276 104.941 278.237 106.759 278.16 108.808C278.083 110.819 277.909 112.926 277.638 115.13C277.406 117.295 277 119.383 276.42 121.394C275.84 123.443 275.047 125.299 274.042 126.962C273.037 128.625 271.761 129.939 270.214 130.906C268.667 131.873 266.792 132.356 264.588 132.356ZM298.459 132.356C297.106 132.356 295.791 132.163 294.515 131.776C293.239 131.389 292.157 130.79 291.267 129.978C290.417 129.166 289.875 128.141 289.643 126.904C289.566 126.479 289.701 126.131 290.049 125.86C290.436 125.589 290.939 125.454 291.557 125.454C291.905 125.454 292.215 125.531 292.485 125.686C292.756 125.841 293.027 126.015 293.297 126.208C293.413 126.324 293.529 126.421 293.645 126.498C293.761 126.614 293.877 126.711 293.993 126.788C294.496 127.175 295.095 127.6 295.791 128.064C296.487 128.528 297.357 128.76 298.401 128.76C299.987 128.76 301.321 128.296 302.403 127.368C303.486 126.479 304.375 125.319 305.071 123.888C305.806 122.496 306.347 121.046 306.695 119.538C307.082 118.03 307.333 116.696 307.449 115.536C307.604 114.144 307.739 112.578 307.855 110.838C307.971 109.098 308.029 107.571 308.029 106.256C308.029 105.096 307.971 104.265 307.855 103.762C307.005 104.922 306.077 106.024 305.071 107.068C304.105 108.112 303.196 109.021 302.345 109.794C301.533 110.567 300.934 111.128 300.547 111.476C299.851 112.056 299.02 112.655 298.053 113.274C297.125 113.893 296.139 114.415 295.095 114.84C294.09 115.265 293.104 115.478 292.137 115.478C290.707 115.478 289.373 115.13 288.135 114.434C286.898 113.738 285.893 112.791 285.119 111.592C284.385 110.393 284.017 109.059 284.017 107.59C284.017 104.922 284.559 102.273 285.641 99.644C286.724 97.0147 288.213 94.6173 290.107 92.452C292.041 90.248 294.264 88.508 296.777 87.232C299.329 85.9173 302.055 85.26 304.955 85.26C306.193 85.26 307.295 85.5307 308.261 86.072C309.228 86.6133 309.711 87.348 309.711 88.276C309.711 88.6627 309.557 89.088 309.247 89.552C308.938 90.016 308.551 90.248 308.087 90.248C307.894 90.248 307.681 90.19 307.449 90.074C306.985 89.8033 306.463 89.5907 305.883 89.436C305.303 89.2427 304.685 89.146 304.027 89.146C303.37 89.146 302.693 89.262 301.997 89.494C300.103 89.9967 298.324 90.828 296.661 91.988C295.037 93.1093 293.587 94.4627 292.311 96.048C291.074 97.6333 290.107 99.3347 289.411 101.152C288.715 102.969 288.367 104.806 288.367 106.662C288.367 108.209 288.58 109.465 289.005 110.432C289.469 111.36 290.417 111.824 291.847 111.824C292.775 111.824 293.723 111.534 294.689 110.954C295.695 110.374 296.623 109.678 297.473 108.866C298.363 108.054 299.078 107.319 299.619 106.662C300.431 105.734 301.282 104.709 302.171 103.588C303.061 102.467 303.911 101.384 304.723 100.34C305.535 99.2573 306.212 98.31 306.753 97.498C307.333 96.686 307.701 96.1447 307.855 95.874C308.203 95.4487 308.493 95.1973 308.725 95.12C308.957 95.004 309.286 94.946 309.711 94.946C310.407 94.946 310.91 95.178 311.219 95.642C311.529 96.0673 311.741 96.5893 311.857 97.208C311.973 97.8267 312.07 98.4067 312.147 98.948V103.356C312.147 104.941 312.109 106.759 312.031 108.808C311.954 110.819 311.78 112.926 311.509 115.13C311.277 117.295 310.871 119.383 310.291 121.394C309.711 123.443 308.919 125.299 307.913 126.962C306.908 128.625 305.632 129.939 304.085 130.906C302.539 131.873 300.663 132.356 298.459 132.356ZM324.906 78.068C323.63 78.068 322.606 77.778 321.832 77.198C321.098 76.5793 320.73 75.7867 320.73 74.82C320.73 73.9307 321.156 73.254 322.006 72.79C322.857 72.2873 323.94 72.036 325.254 72.036C326.569 72.036 327.594 72.3453 328.328 72.964C329.063 73.544 329.43 74.356 329.43 75.4C329.43 76.2507 329.005 76.908 328.154 77.372C327.342 77.836 326.26 78.068 324.906 78.068ZM321.89 115.13C321.349 115.13 320.924 114.782 320.614 114.086C320.344 113.39 320.15 112.501 320.034 111.418C319.957 110.335 319.918 109.214 319.918 108.054C319.918 107.513 319.918 106.971 319.918 106.43C319.957 105.85 319.976 105.309 319.976 104.806C319.976 104.651 320.034 104.149 320.15 103.298C320.266 102.409 320.402 101.384 320.556 100.224C320.711 99.064 320.866 97.9233 321.02 96.802C321.214 95.642 321.368 94.7333 321.484 94.076C321.6 93.5733 321.736 92.916 321.89 92.104C322.045 91.2533 322.316 90.4993 322.702 89.842C323.128 89.146 323.727 88.798 324.5 88.798C325.39 88.798 326.008 88.972 326.356 89.32C326.743 89.6293 326.936 90.132 326.936 90.828C326.936 91.0213 326.917 91.2147 326.878 91.408C326.878 91.6013 326.859 91.814 326.82 92.046C326.627 93.2833 326.376 94.83 326.066 96.686C325.796 98.5033 325.544 100.417 325.312 102.428C325.119 104.4 325.061 106.275 325.138 108.054C325.177 108.479 325.216 108.982 325.254 109.562C325.332 110.103 325.37 110.645 325.37 111.186C325.37 112.191 325.158 113.1 324.732 113.912C324.307 114.724 323.36 115.13 321.89 115.13ZM336.954 114.84C336.374 114.84 335.949 114.705 335.678 114.434C335.407 114.163 335.214 113.777 335.098 113.274C334.905 112.617 334.808 111.921 334.808 111.186V108.924C334.808 107.687 334.847 106.623 334.924 105.734C335.001 104.806 335.04 103.801 335.04 102.718C335.04 102.331 335.021 101.925 334.982 101.5C334.982 101.036 334.963 100.553 334.924 100.05C334.769 98.1553 334.557 96.164 334.286 94.076C334.015 91.988 333.88 90.0933 333.88 88.392V86.13C334.112 85.5887 334.325 85.26 334.518 85.144C334.75 85.028 335.059 84.97 335.446 84.97C336.374 84.97 337.031 85.3373 337.418 86.072C337.805 86.768 338.056 87.5993 338.172 88.566C338.327 89.494 338.423 90.306 338.462 91.002C338.501 91.2727 338.559 91.8527 338.636 92.742C338.752 93.6313 338.868 94.6367 338.984 95.758C339.1 96.8407 339.197 97.8847 339.274 98.89C339.39 99.8953 339.448 100.669 339.448 101.21C340.067 99.934 340.801 98.6193 341.652 97.266C342.503 95.874 343.353 94.5787 344.204 93.38C345.093 92.1813 345.886 91.2147 346.582 90.48C347.587 89.3587 348.767 88.4887 350.12 87.87C351.512 87.2127 352.885 86.884 354.238 86.884C355.823 86.884 357.215 87.3287 358.414 88.218C359.613 89.1073 360.637 90.2673 361.488 91.698C362.377 93.1287 363.112 94.6753 363.692 96.338C364.272 97.962 364.736 99.5473 365.084 101.094C365.587 103.143 365.954 104.941 366.186 106.488C366.457 108.035 366.689 109.794 366.882 111.766C366.882 112.617 366.708 113.293 366.36 113.796C366.012 114.299 365.587 114.55 365.084 114.55C364.349 114.55 363.827 114.395 363.518 114.086C363.209 113.738 362.996 113.197 362.88 112.462C362.609 110.993 362.339 109.33 362.068 107.474C361.836 105.618 361.507 103.743 361.082 101.848C360.657 99.9147 360.038 98.1553 359.226 96.57C358.917 95.8353 358.53 95.0813 358.066 94.308C357.602 93.5347 357.041 92.8773 356.384 92.336C355.727 91.7947 354.915 91.524 353.948 91.524C352.672 91.524 351.377 92.0847 350.062 93.206C348.786 94.3273 347.568 95.7773 346.408 97.556C345.248 99.3347 344.185 101.249 343.218 103.298C342.251 105.309 341.439 107.223 340.782 109.04C340.589 109.659 340.337 110.355 340.028 111.128C339.757 111.863 339.467 112.559 339.158 113.216C338.887 113.757 338.578 114.163 338.23 114.434C337.921 114.705 337.495 114.84 336.954 114.84ZM386.592 132.356C385.239 132.356 383.924 132.163 382.648 131.776C381.372 131.389 380.289 130.79 379.4 129.978C378.549 129.166 378.008 128.141 377.776 126.904C377.699 126.479 377.834 126.131 378.182 125.86C378.569 125.589 379.071 125.454 379.69 125.454C380.038 125.454 380.347 125.531 380.618 125.686C380.889 125.841 381.159 126.015 381.43 126.208C381.546 126.324 381.662 126.421 381.778 126.498C381.894 126.614 382.01 126.711 382.126 126.788C382.629 127.175 383.228 127.6 383.924 128.064C384.62 128.528 385.49 128.76 386.534 128.76C388.119 128.76 389.453 128.296 390.536 127.368C391.619 126.479 392.508 125.319 393.204 123.888C393.939 122.496 394.48 121.046 394.828 119.538C395.215 118.03 395.466 116.696 395.582 115.536C395.737 114.144 395.872 112.578 395.988 110.838C396.104 109.098 396.162 107.571 396.162 106.256C396.162 105.096 396.104 104.265 395.988 103.762C395.137 104.922 394.209 106.024 393.204 107.068C392.237 108.112 391.329 109.021 390.478 109.794C389.666 110.567 389.067 111.128 388.68 111.476C387.984 112.056 387.153 112.655 386.186 113.274C385.258 113.893 384.272 114.415 383.228 114.84C382.223 115.265 381.237 115.478 380.27 115.478C378.839 115.478 377.505 115.13 376.268 114.434C375.031 113.738 374.025 112.791 373.252 111.592C372.517 110.393 372.15 109.059 372.15 107.59C372.15 104.922 372.691 102.273 373.774 99.644C374.857 97.0147 376.345 94.6173 378.24 92.452C380.173 90.248 382.397 88.508 384.91 87.232C387.462 85.9173 390.188 85.26 393.088 85.26C394.325 85.26 395.427 85.5307 396.394 86.072C397.361 86.6133 397.844 87.348 397.844 88.276C397.844 88.6627 397.689 89.088 397.38 89.552C397.071 90.016 396.684 90.248 396.22 90.248C396.027 90.248 395.814 90.19 395.582 90.074C395.118 89.8033 394.596 89.5907 394.016 89.436C393.436 89.2427 392.817 89.146 392.16 89.146C391.503 89.146 390.826 89.262 390.13 89.494C388.235 89.9967 386.457 90.828 384.794 91.988C383.17 93.1093 381.72 94.4627 380.444 96.048C379.207 97.6333 378.24 99.3347 377.544 101.152C376.848 102.969 376.5 104.806 376.5 106.662C376.5 108.209 376.713 109.465 377.138 110.432C377.602 111.36 378.549 111.824 379.98 111.824C380.908 111.824 381.855 111.534 382.822 110.954C383.827 110.374 384.755 109.678 385.606 108.866C386.495 108.054 387.211 107.319 387.752 106.662C388.564 105.734 389.415 104.709 390.304 103.588C391.193 102.467 392.044 101.384 392.856 100.34C393.668 99.2573 394.345 98.31 394.886 97.498C395.466 96.686 395.833 96.1447 395.988 95.874C396.336 95.4487 396.626 95.1973 396.858 95.12C397.09 95.004 397.419 94.946 397.844 94.946C398.54 94.946 399.043 95.178 399.352 95.642C399.661 96.0673 399.874 96.5893 399.99 97.208C400.106 97.8267 400.203 98.4067 400.28 98.948V103.356C400.28 104.941 400.241 106.759 400.164 108.808C400.087 110.819 399.913 112.926 399.642 115.13C399.41 117.295 399.004 119.383 398.424 121.394C397.844 123.443 397.051 125.299 396.046 126.962C395.041 128.625 393.765 129.939 392.218 130.906C390.671 131.873 388.796 132.356 386.592 132.356Z" fill="#FFFBFE"/>
</svg>
