<svg width="500" height="200" viewBox="0 0 500 200" fill="none" xmlns="http://www.w3.org/2000/svg">
<rect width="500" height="200" fill="#FF6B35"/>
<path d="M109.776 115.42C106.915 115.42 104.672 114.917 103.048 113.912C101.424 112.907 100.283 111.418 99.626 109.446C99.0073 107.435 98.698 104.961 98.698 102.022C98.698 100.669 98.756 99.2187 98.872 97.672C97.364 97.092 96.61 96.3767 96.61 95.526C96.61 94.7913 96.842 94.2693 97.306 93.96C97.8087 93.612 98.3693 93.3413 98.988 93.148C99.6453 92.9547 100.187 92.7227 100.612 92.452C100.689 91.988 100.805 91.292 100.96 90.364C101.115 89.3973 101.269 88.392 101.424 87.348C101.617 86.2653 101.791 85.318 101.946 84.506C102.101 83.6553 102.197 83.1333 102.236 82.94C101.811 82.708 101.231 82.5727 100.496 82.534C99.8 82.4567 99.1813 82.302 98.64 82.07C98.0987 81.838 97.828 81.3547 97.828 80.62C97.828 79.8467 98.0407 79.286 98.466 78.938C98.8913 78.5513 99.5873 78.2807 100.554 78.126C103.029 77.7007 105.407 77.3527 107.688 77.082C109.969 76.8113 112.347 76.676 114.822 76.676C115.363 76.676 116.098 76.676 117.026 76.676C117.954 76.676 118.882 76.7533 119.81 76.908C120.777 77.024 121.589 77.2753 122.246 77.662C122.903 78.0487 123.232 78.6287 123.232 79.402C123.232 79.8273 123.097 80.1947 122.826 80.504C122.594 80.8133 122.323 80.968 122.014 80.968H113.314C113.159 80.968 112.734 80.9873 112.038 81.026C111.342 81.026 110.588 81.0647 109.776 81.142C108.964 81.2193 108.287 81.374 107.746 81.606C107.166 81.838 106.702 82.5533 106.354 83.752C106.006 84.9507 105.755 86.3813 105.6 88.044C105.445 89.668 105.368 91.2727 105.368 92.858C105.871 92.8193 106.625 92.7807 107.63 92.742C108.635 92.6647 109.679 92.6067 110.762 92.568C111.883 92.5293 112.811 92.51 113.546 92.51H115.866C116.755 92.51 117.355 92.7033 117.664 93.09C118.012 93.4767 118.186 93.9987 118.186 94.656C118.186 95.9707 117.451 96.686 115.982 96.802L106.18 97.44C105.097 97.4787 104.363 97.672 103.976 98.02C103.628 98.3293 103.396 98.9287 103.28 99.818C103.203 100.553 103.145 101.113 103.106 101.5C103.106 101.887 103.106 102.235 103.106 102.544C103.145 102.815 103.164 103.066 103.164 103.298C103.164 103.491 103.164 103.665 103.164 103.82C103.164 104.709 103.241 105.657 103.396 106.662C103.551 107.629 103.899 108.499 104.44 109.272C105.02 110.045 105.909 110.567 107.108 110.838H110.066C111.999 110.838 114.049 110.683 116.214 110.374C118.418 110.065 120.351 109.717 122.014 109.33C122.091 109.291 122.188 109.272 122.304 109.272C122.42 109.272 122.497 109.272 122.536 109.272C123.077 109.272 123.425 109.465 123.58 109.852C123.773 110.239 123.87 110.664 123.87 111.128C123.87 112.868 122.111 114.086 118.592 114.782C117.355 115.053 115.943 115.227 114.358 115.304C112.773 115.381 111.245 115.42 109.776 115.42ZM152.767 116.58C152.187 116.58 151.703 116.445 151.317 116.174C150.969 115.903 150.582 115.42 150.157 114.724L145.865 107.706C145.71 107.435 145.42 107.01 144.995 106.43C144.569 105.85 144.144 105.289 143.719 104.748C143.332 104.207 143.081 103.878 142.965 103.762C142.501 104.149 141.921 104.729 141.225 105.502C140.567 106.275 139.91 107.087 139.253 107.938L137.455 110.142C137.261 110.335 137.049 110.567 136.817 110.838C136.585 111.07 136.353 111.321 136.121 111.592C135.579 112.172 135.115 112.694 134.729 113.158C134.342 113.622 133.859 114.067 133.279 114.492C132.815 114.84 132.312 115.014 131.771 115.014C131.345 115.014 130.978 114.879 130.669 114.608C130.359 114.299 130.205 113.835 130.205 113.216C130.205 112.211 130.611 111.167 131.423 110.084C132.273 108.963 133.317 107.803 134.555 106.604C135.173 106.024 135.773 105.463 136.353 104.922C136.933 104.381 137.435 103.859 137.861 103.356C138.286 102.853 138.692 102.389 139.079 101.964C139.504 101.539 140.026 100.939 140.645 100.166C140.529 99.934 140.2 99.4313 139.659 98.658C139.117 97.846 138.518 96.9567 137.861 95.99C137.203 95.0233 136.585 94.1533 136.005 93.38C135.463 92.6067 135.096 92.104 134.903 91.872C134.284 91.1373 133.607 90.306 132.873 89.378C132.177 88.45 131.829 87.4833 131.829 86.478C131.829 86.0527 132.003 85.7433 132.351 85.55C132.737 85.3567 133.182 85.26 133.685 85.26C134.11 85.26 134.613 85.5113 135.193 86.014C135.811 86.5167 136.333 87.058 136.759 87.638C137.184 88.1793 137.745 88.914 138.441 89.842C139.137 90.7313 139.813 91.582 140.471 92.394C141.128 93.206 141.573 93.786 141.805 94.134C141.959 94.25 142.172 94.5207 142.443 94.946C142.752 95.3713 143.042 95.7773 143.313 96.164C143.583 96.512 143.719 96.686 143.719 96.686C145.343 94.9847 146.967 93.3027 148.591 91.64C150.253 89.9773 151.897 88.3147 153.521 86.652C154.062 86.1107 154.468 85.8013 154.739 85.724C155.048 85.608 155.357 85.55 155.667 85.55C156.672 85.55 157.175 86.072 157.175 87.116C157.175 87.5413 157.117 87.8893 157.001 88.16C156.923 88.4307 156.749 88.74 156.479 89.088C154.7 91.0213 153.173 92.6647 151.897 94.018C150.621 95.3327 149.557 96.4733 148.707 97.44C147.856 98.4067 147.121 99.3153 146.503 100.166C146.619 100.63 146.986 101.403 147.605 102.486C148.223 103.53 148.919 104.671 149.693 105.908C150.505 107.145 151.239 108.305 151.897 109.388C152.593 110.432 153.076 111.186 153.347 111.65C154.12 112.965 154.507 114.067 154.507 114.956C154.507 116.039 153.927 116.58 152.767 116.58ZM166.467 132.356C165.81 132.356 165.385 132.008 165.191 131.312C164.998 130.655 164.901 129.92 164.901 129.108C164.901 128.799 164.901 128.47 164.901 128.122C164.94 127.813 164.959 127.523 164.959 127.252C164.959 123.308 165.133 119.538 165.481 115.942C165.829 112.307 166.081 108.789 166.235 105.386C166.274 104.497 166.313 103.395 166.351 102.08C166.39 100.765 166.409 99.5087 166.409 98.31C166.448 97.1113 166.448 96.2413 166.409 95.7C165.675 95.7 165.095 95.4293 164.669 94.888C164.244 94.3467 164.031 93.8247 164.031 93.322C164.031 92.9353 164.205 92.4327 164.553 91.814C164.94 91.1567 165.501 90.6927 166.235 90.422C166.313 90.2287 166.351 90.0353 166.351 89.842C166.351 89.61 166.351 89.3587 166.351 89.088C166.351 88.2373 166.274 87.29 166.119 86.246C166.003 85.1633 165.907 84.3707 165.829 83.868C165.791 83.636 166.023 83.3847 166.525 83.114C167.028 82.8433 167.531 82.708 168.033 82.708C168.729 82.708 169.213 82.94 169.483 83.404C169.754 83.868 169.928 84.448 170.005 85.144C170.083 85.84 170.179 86.536 170.295 87.232C172.035 86.536 173.447 86.014 174.529 85.666C175.612 85.318 176.637 85.086 177.603 84.97C178.57 84.854 179.73 84.796 181.083 84.796C183.597 84.796 185.878 85.202 187.927 86.014C190.015 86.826 191.678 88.044 192.915 89.668C194.153 91.2533 194.771 93.2447 194.771 95.642C194.771 97.9233 194.288 100.205 193.321 102.486C192.393 104.767 191.098 106.855 189.435 108.75C187.811 110.606 185.936 112.095 183.809 113.216C181.683 114.337 179.44 114.898 177.081 114.898C176.463 114.898 175.863 114.84 175.283 114.724C174.703 114.569 174.104 114.453 173.485 114.376C173.253 114.337 173.021 114.318 172.789 114.318C172.557 114.279 172.345 114.26 172.151 114.26H170.237C170.237 115.149 170.237 116.387 170.237 117.972C170.237 119.557 170.199 121.239 170.121 123.018C170.083 124.797 170.005 126.459 169.889 128.006C169.812 129.205 169.445 130.229 168.787 131.08C168.169 131.931 167.395 132.356 166.467 132.356ZM176.791 111.012C178.725 111.012 180.523 110.567 182.185 109.678C183.887 108.75 185.375 107.532 186.651 106.024C187.966 104.516 188.971 102.892 189.667 101.152C190.402 99.3733 190.769 97.6333 190.769 95.932C190.769 94.076 190.305 92.6067 189.377 91.524C188.449 90.4027 187.27 89.61 185.839 89.146C184.447 88.6433 182.978 88.392 181.431 88.392C180.658 88.392 179.846 88.4307 178.995 88.508C178.145 88.5467 177.333 88.74 176.559 89.088C174.858 89.8227 173.543 90.6347 172.615 91.524C171.726 92.3747 171.127 93.3993 170.817 94.598C170.663 95.1393 170.566 95.7 170.527 96.28C170.489 96.86 170.469 97.4593 170.469 98.078C170.469 98.6967 170.489 99.354 170.527 100.05C170.566 100.746 170.585 101.481 170.585 102.254V107.068C170.585 107.957 170.933 108.711 171.629 109.33C172.325 109.91 173.157 110.335 174.123 110.606C175.09 110.877 175.979 111.012 176.791 111.012ZM215.138 116.87C212.199 116.87 209.531 116.445 207.134 115.594C204.775 114.705 202.9 113.332 201.508 111.476C200.116 109.581 199.42 107.145 199.42 104.168C199.42 101.809 199.806 99.5087 200.58 97.266C201.392 95.0233 202.532 92.9933 204.002 91.176C205.471 89.3587 207.23 87.928 209.28 86.884C211.329 85.8013 213.61 85.26 216.124 85.26C217.864 85.26 219.43 85.5887 220.822 86.246C222.252 86.9033 223.393 87.8313 224.244 89.03C225.094 90.2287 225.52 91.6593 225.52 93.322C225.52 95.1007 225.133 96.802 224.36 98.426C223.625 100.011 222.62 101.423 221.344 102.66C220.068 103.897 218.618 104.883 216.994 105.618C215.408 106.314 213.746 106.662 212.006 106.662C210.498 106.662 209.086 106.546 207.772 106.314C206.457 106.043 205.239 105.637 204.118 105.096C204.118 106.565 204.466 107.822 205.162 108.866C205.858 109.871 206.747 110.703 207.83 111.36C208.912 111.979 210.034 112.443 211.194 112.752C212.392 113.023 213.494 113.158 214.5 113.158C215.312 113.158 216.124 113.119 216.936 113.042C217.748 112.926 218.637 112.868 219.604 112.868C221.034 112.868 221.75 113.487 221.75 114.724C221.75 115.691 221.073 116.309 219.72 116.58C218.985 116.735 218.231 116.812 217.458 116.812C216.684 116.851 215.911 116.87 215.138 116.87ZM212.006 102.022C213.359 102.022 214.77 101.751 216.24 101.21C217.709 100.669 218.946 99.818 219.952 98.658C220.996 97.498 221.518 96.0287 221.518 94.25C221.518 92.6647 221.015 91.3887 220.01 90.422C219.043 89.4167 217.748 88.914 216.124 88.914C214.654 88.914 213.204 89.262 211.774 89.958C210.382 90.6153 209.106 91.524 207.946 92.684C206.786 93.8053 205.858 95.0813 205.162 96.512C204.466 97.9427 204.118 99.412 204.118 100.92C205.007 101.384 206.128 101.693 207.482 101.848C208.835 101.964 210.343 102.022 212.006 102.022ZM233.681 116.58C233.255 116.58 232.927 116.387 232.695 116C232.501 115.613 232.366 115.169 232.289 114.666C232.211 114.163 232.134 113.738 232.057 113.39V108.808C232.057 106.488 232.153 104.11 232.347 101.674C232.579 99.238 232.695 96.86 232.695 94.54C232.695 93.4187 232.617 92.2973 232.463 91.176C232.347 90.0547 232.211 89.1073 232.057 88.334C232.018 88.1407 231.979 87.9667 231.941 87.812C231.941 87.6573 231.941 87.5027 231.941 87.348C231.941 86.8453 232.095 86.5167 232.405 86.362C232.714 86.2073 233.236 86.13 233.971 86.13C234.86 86.13 235.517 86.5167 235.943 87.29C236.368 88.0633 236.677 88.972 236.871 90.016C237.103 91.0213 237.315 91.93 237.509 92.742C238.63 91.3887 239.848 90.4027 241.163 89.784C242.477 89.1653 243.579 88.624 244.469 88.16C245.319 87.7347 246.17 87.406 247.021 87.174C247.91 86.9033 248.896 86.768 249.979 86.768C251.061 86.768 252.067 87.0773 252.995 87.696C253.961 88.276 254.445 88.914 254.445 89.61C254.445 90.422 254.193 91.0213 253.691 91.408C253.188 91.7947 252.608 91.988 251.951 91.988C251.757 91.988 251.564 91.9687 251.371 91.93C251.216 91.8527 251.042 91.7947 250.849 91.756C250.578 91.64 250.269 91.5433 249.921 91.466C249.611 91.3887 249.302 91.35 248.993 91.35C247.794 91.35 246.634 91.582 245.513 92.046C244.391 92.4713 243.444 92.8967 242.671 93.322C241.317 94.0567 240.254 94.888 239.481 95.816C238.746 96.7053 238.127 97.5367 237.625 98.31C237.354 99.7793 237.18 101.21 237.103 102.602C237.025 103.994 236.967 105.077 236.929 105.85C236.89 106.662 236.851 107.513 236.813 108.402C236.774 109.291 236.716 110.181 236.639 111.07C236.561 111.998 236.445 112.887 236.291 113.738C236.136 114.589 235.865 115.285 235.479 115.826C235.092 116.329 234.493 116.58 233.681 116.58ZM261.769 78.068C260.493 78.068 259.468 77.778 258.695 77.198C257.96 76.5793 257.593 75.7867 257.593 74.82C257.593 73.9307 258.018 73.254 258.869 72.79C259.719 72.2873 260.802 72.036 262.117 72.036C263.431 72.036 264.456 72.3453 265.191 72.964C265.925 73.544 266.293 74.356 266.293 75.4C266.293 76.2507 265.867 76.908 265.017 77.372C264.205 77.836 263.122 78.068 261.769 78.068ZM258.753 115.13C258.211 115.13 257.786 114.782 257.477 114.086C257.206 113.39 257.013 112.501 256.897 111.418C256.819 110.335 256.781 109.214 256.781 108.054C256.781 107.513 256.781 106.971 256.781 106.43C256.819 105.85 256.839 105.309 256.839 104.806C256.839 104.651 256.897 104.149 257.013 103.298C257.129 102.409 257.264 101.384 257.419 100.224C257.573 99.064 257.728 97.9233 257.883 96.802C258.076 95.642 258.231 94.7333 258.347 94.076C258.463 93.5733 258.598 92.916 258.753 92.104C258.907 91.2533 259.178 90.4993 259.565 89.842C259.99 89.146 260.589 88.798 261.363 88.798C262.252 88.798 262.871 88.972 263.219 89.32C263.605 89.6293 263.799 90.132 263.799 90.828C263.799 91.0213 263.779 91.2147 263.741 91.408C263.741 91.6013 263.721 91.814 263.683 92.046C263.489 93.2833 263.238 94.83 262.929 96.686C262.658 98.5033 262.407 100.417 262.175 102.428C261.981 104.4 261.923 106.275 262.001 108.054C262.039 108.479 262.078 108.982 262.117 109.562C262.194 110.103 262.233 110.645 262.233 111.186C262.233 112.191 262.02 113.1 261.595 113.912C261.169 114.724 260.222 115.13 258.753 115.13ZM285.938 116.87C283 116.87 280.332 116.445 277.934 115.594C275.576 114.705 273.7 113.332 272.308 111.476C270.916 109.581 270.22 107.145 270.22 104.168C270.22 101.809 270.607 99.5087 271.38 97.266C272.192 95.0233 273.333 92.9933 274.802 91.176C276.272 89.3587 278.031 87.928 280.08 86.884C282.13 85.8013 284.411 85.26 286.924 85.26C288.664 85.26 290.23 85.5887 291.622 86.246C293.053 86.9033 294.194 87.8313 295.044 89.03C295.895 90.2287 296.32 91.6593 296.32 93.322C296.32 95.1007 295.934 96.802 295.16 98.426C294.426 100.011 293.42 101.423 292.144 102.66C290.868 103.897 289.418 104.883 287.794 105.618C286.209 106.314 284.546 106.662 282.806 106.662C281.298 106.662 279.887 106.546 278.572 106.314C277.258 106.043 276.04 105.637 274.918 105.096C274.918 106.565 275.266 107.822 275.962 108.866C276.658 109.871 277.548 110.703 278.63 111.36C279.713 111.979 280.834 112.443 281.994 112.752C283.193 113.023 284.295 113.158 285.3 113.158C286.112 113.158 286.924 113.119 287.736 113.042C288.548 112.926 289.438 112.868 290.404 112.868C291.835 112.868 292.55 113.487 292.55 114.724C292.55 115.691 291.874 116.309 290.52 116.58C289.786 116.735 289.032 116.812 288.258 116.812C287.485 116.851 286.712 116.87 285.938 116.87ZM282.806 102.022C284.16 102.022 285.571 101.751 287.04 101.21C288.51 100.669 289.747 99.818 290.752 98.658C291.796 97.498 292.318 96.0287 292.318 94.25C292.318 92.6647 291.816 91.3887 290.81 90.422C289.844 89.4167 288.548 88.914 286.924 88.914C285.455 88.914 284.005 89.262 282.574 89.958C281.182 90.6153 279.906 91.524 278.746 92.684C277.586 93.8053 276.658 95.0813 275.962 96.512C275.266 97.9427 274.918 99.412 274.918 100.92C275.808 101.384 276.929 101.693 278.282 101.848C279.636 101.964 281.144 102.022 282.806 102.022ZM305.932 114.84C305.352 114.84 304.926 114.705 304.656 114.434C304.385 114.163 304.192 113.777 304.076 113.274C303.882 112.617 303.786 111.921 303.786 111.186V108.924C303.786 107.687 303.824 106.623 303.902 105.734C303.979 104.806 304.018 103.801 304.018 102.718C304.018 102.331 303.998 101.925 303.96 101.5C303.96 101.036 303.94 100.553 303.902 100.05C303.747 98.1553 303.534 96.164 303.264 94.076C302.993 91.988 302.858 90.0933 302.858 88.392V86.13C303.09 85.5887 303.302 85.26 303.496 85.144C303.728 85.028 304.037 84.97 304.424 84.97C305.352 84.97 306.009 85.3373 306.396 86.072C306.782 86.768 307.034 87.5993 307.15 88.566C307.304 89.494 307.401 90.306 307.44 91.002C307.478 91.2727 307.536 91.8527 307.614 92.742C307.73 93.6313 307.846 94.6367 307.962 95.758C308.078 96.8407 308.174 97.8847 308.252 98.89C308.368 99.8953 308.426 100.669 308.426 101.21C309.044 99.934 309.779 98.6193 310.63 97.266C311.48 95.874 312.331 94.5787 313.182 93.38C314.071 92.1813 314.864 91.2147 315.56 90.48C316.565 89.3587 317.744 88.4887 319.098 87.87C320.49 87.2127 321.862 86.884 323.216 86.884C324.801 86.884 326.193 87.3287 327.392 88.218C328.59 89.1073 329.615 90.2673 330.466 91.698C331.355 93.1287 332.09 94.6753 332.67 96.338C333.25 97.962 333.714 99.5473 334.062 101.094C334.564 103.143 334.932 104.941 335.164 106.488C335.434 108.035 335.666 109.794 335.86 111.766C335.86 112.617 335.686 113.293 335.338 113.796C334.99 114.299 334.564 114.55 334.062 114.55C333.327 114.55 332.805 114.395 332.496 114.086C332.186 113.738 331.974 113.197 331.858 112.462C331.587 110.993 331.316 109.33 331.046 107.474C330.814 105.618 330.485 103.743 330.06 101.848C329.634 99.9147 329.016 98.1553 328.204 96.57C327.894 95.8353 327.508 95.0813 327.044 94.308C326.58 93.5347 326.019 92.8773 325.362 92.336C324.704 91.7947 323.892 91.524 322.926 91.524C321.65 91.524 320.354 92.0847 319.04 93.206C317.764 94.3273 316.546 95.7773 315.386 97.556C314.226 99.3347 313.162 101.249 312.196 103.298C311.229 105.309 310.417 107.223 309.76 109.04C309.566 109.659 309.315 110.355 309.006 111.128C308.735 111.863 308.445 112.559 308.136 113.216C307.865 113.757 307.556 114.163 307.208 114.434C306.898 114.705 306.473 114.84 305.932 114.84ZM354.178 115.13C351.471 115.13 349.19 114.473 347.334 113.158C345.478 111.843 344.066 110.084 343.1 107.88C342.133 105.637 341.65 103.201 341.65 100.572C341.65 97.6333 342.307 94.946 343.622 92.51C344.936 90.074 346.754 88.1213 349.074 86.652C351.394 85.144 354.023 84.39 356.962 84.39C357.774 84.39 358.721 84.448 359.804 84.564C360.886 84.68 361.93 84.912 362.936 85.26C363.941 85.608 364.772 86.1107 365.43 86.768C366.087 87.4253 366.416 88.2953 366.416 89.378C366.416 89.8033 366.242 90.1707 365.894 90.48C365.546 90.7893 364.985 90.944 364.212 90.944C363.593 90.944 363.013 90.7893 362.472 90.48C361.969 90.1707 361.486 89.8613 361.022 89.552C360.326 89.088 359.591 88.682 358.818 88.334C358.083 87.9473 357.271 87.754 356.382 87.754C354.68 87.754 353.192 88.1987 351.916 89.088C350.64 89.9387 349.576 91.06 348.726 92.452C347.875 93.8053 347.237 95.2553 346.812 96.802C346.386 98.31 346.174 99.702 346.174 100.978C346.174 103.491 346.657 105.502 347.624 107.01C348.629 108.479 349.944 109.543 351.568 110.2C353.23 110.819 355.028 111.128 356.962 111.128C358.818 111.128 360.5 110.799 362.008 110.142C363.554 109.485 365.12 108.789 366.706 108.054C367.247 107.783 367.692 107.648 368.04 107.648C368.504 107.648 368.813 107.841 368.968 108.228C369.122 108.576 369.2 109.021 369.2 109.562C369.2 110.567 368.794 111.418 367.982 112.114C367.17 112.771 366.145 113.313 364.908 113.738C363.67 114.125 362.336 114.434 360.906 114.666C359.514 114.859 358.218 114.995 357.02 115.072C355.821 115.111 354.874 115.13 354.178 115.13ZM390.723 116.87C387.785 116.87 385.117 116.445 382.719 115.594C380.361 114.705 378.485 113.332 377.093 111.476C375.701 109.581 375.005 107.145 375.005 104.168C375.005 101.809 375.392 99.5087 376.165 97.266C376.977 95.0233 378.118 92.9933 379.587 91.176C381.057 89.3587 382.816 87.928 384.865 86.884C386.915 85.8013 389.196 85.26 391.709 85.26C393.449 85.26 395.015 85.5887 396.407 86.246C397.838 86.9033 398.979 87.8313 399.829 89.03C400.68 90.2287 401.105 91.6593 401.105 93.322C401.105 95.1007 400.719 96.802 399.945 98.426C399.211 100.011 398.205 101.423 396.929 102.66C395.653 103.897 394.203 104.883 392.579 105.618C390.994 106.314 389.331 106.662 387.591 106.662C386.083 106.662 384.672 106.546 383.357 106.314C382.043 106.043 380.825 105.637 379.703 105.096C379.703 106.565 380.051 107.822 380.747 108.866C381.443 109.871 382.333 110.703 383.415 111.36C384.498 111.979 385.619 112.443 386.779 112.752C387.978 113.023 389.08 113.158 390.085 113.158C390.897 113.158 391.709 113.119 392.521 113.042C393.333 112.926 394.223 112.868 395.189 112.868C396.62 112.868 397.335 113.487 397.335 114.724C397.335 115.691 396.659 116.309 395.305 116.58C394.571 116.735 393.817 116.812 393.043 116.812C392.27 116.851 391.497 116.87 390.723 116.87ZM387.591 102.022C388.945 102.022 390.356 101.751 391.825 101.21C393.295 100.669 394.532 99.818 395.537 98.658C396.581 97.498 397.103 96.0287 397.103 94.25C397.103 92.6647 396.601 91.3887 395.595 90.422C394.629 89.4167 393.333 88.914 391.709 88.914C390.24 88.914 388.79 89.262 387.359 89.958C385.967 90.6153 384.691 91.524 383.531 92.684C382.371 93.8053 381.443 95.0813 380.747 96.512C380.051 97.9427 379.703 99.412 379.703 100.92C380.593 101.384 381.714 101.693 383.067 101.848C384.421 101.964 385.929 102.022 387.591 102.022Z" fill="#F7F7FF"/>
</svg>
