<svg width="500" height="200" viewBox="0 0 500 200" fill="none" xmlns="http://www.w3.org/2000/svg">
<rect width="500" height="200" fill="#D98A00"/>
<path d="M96.618 118.03C93.022 118.03 90.064 117.218 87.744 115.594C85.424 113.97 83.7033 111.785 82.582 109.04C81.4607 106.256 80.9 103.163 80.9 99.76C80.9 97.0533 81.364 94.3467 82.292 91.64C83.22 88.8947 84.5347 86.4007 86.236 84.158C87.976 81.9153 90.0447 80.1173 92.442 78.764C94.8393 77.372 97.488 76.676 100.388 76.676C101.471 76.676 102.65 76.8887 103.926 77.314C105.241 77.7007 106.497 78.2613 107.696 78.996C108.895 79.692 109.881 80.504 110.654 81.432C111.427 82.3213 111.814 83.2687 111.814 84.274C111.814 84.5833 111.64 84.912 111.292 85.26C110.944 85.608 110.499 85.782 109.958 85.782C109.687 85.782 109.417 85.7433 109.146 85.666C108.914 85.55 108.701 85.4147 108.508 85.26C108.199 85.028 107.947 84.8153 107.754 84.622L106.884 83.694C106.265 82.998 105.453 82.36 104.448 81.78C103.443 81.2 102.089 80.91 100.388 80.91C97.952 80.91 95.7673 81.5287 93.834 82.766C91.9393 84.0033 90.3153 85.5887 88.962 87.522C87.6473 89.4553 86.642 91.5047 85.946 93.67C85.25 95.8353 84.902 97.8653 84.902 99.76C84.902 102.08 85.2887 104.284 86.062 106.372C86.874 108.46 88.1307 110.161 89.832 111.476C91.572 112.791 93.834 113.448 96.618 113.448C98.706 113.448 100.697 112.926 102.592 111.882C104.487 110.838 106.033 109.446 107.232 107.706C108.431 105.927 109.03 103.994 109.03 101.906C108.991 101.751 108.721 101.635 108.218 101.558C107.715 101.481 106.594 101.403 104.854 101.326C104.467 101.287 104.081 101.268 103.694 101.268C103.307 101.268 102.901 101.268 102.476 101.268C101.664 101.268 100.833 101.287 99.982 101.326C99.17 101.326 98.358 101.326 97.546 101.326C96.154 101.326 95.458 100.514 95.458 98.89C95.458 98.426 95.6513 98.0007 96.038 97.614C96.4633 97.1887 97.1013 96.8987 97.952 96.744H101.548C102.863 96.744 104.197 96.7827 105.55 96.86C106.942 96.9373 108.218 97.1693 109.378 97.556C110.577 97.904 111.524 98.5227 112.22 99.412C112.955 100.301 113.322 101.558 113.322 103.182C113.322 105.231 112.819 107.165 111.814 108.982C110.847 110.761 109.552 112.327 107.928 113.68C106.304 115.033 104.506 116.097 102.534 116.87C100.562 117.643 98.59 118.03 96.618 118.03ZM126.087 78.068C124.811 78.068 123.786 77.778 123.013 77.198C122.278 76.5793 121.911 75.7867 121.911 74.82C121.911 73.9307 122.336 73.254 123.187 72.79C124.038 72.2873 125.12 72.036 126.435 72.036C127.75 72.036 128.774 72.3453 129.509 72.964C130.244 73.544 130.611 74.356 130.611 75.4C130.611 76.2507 130.186 76.908 129.335 77.372C128.523 77.836 127.44 78.068 126.087 78.068ZM123.071 115.13C122.53 115.13 122.104 114.782 121.795 114.086C121.524 113.39 121.331 112.501 121.215 111.418C121.138 110.335 121.099 109.214 121.099 108.054C121.099 107.513 121.099 106.971 121.099 106.43C121.138 105.85 121.157 105.309 121.157 104.806C121.157 104.651 121.215 104.149 121.331 103.298C121.447 102.409 121.582 101.384 121.737 100.224C121.892 99.064 122.046 97.9233 122.201 96.802C122.394 95.642 122.549 94.7333 122.665 94.076C122.781 93.5733 122.916 92.916 123.071 92.104C123.226 91.2533 123.496 90.4993 123.883 89.842C124.308 89.146 124.908 88.798 125.681 88.798C126.57 88.798 127.189 88.972 127.537 89.32C127.924 89.6293 128.117 90.132 128.117 90.828C128.117 91.0213 128.098 91.2147 128.059 91.408C128.059 91.6013 128.04 91.814 128.001 92.046C127.808 93.2833 127.556 94.83 127.247 96.686C126.976 98.5033 126.725 100.417 126.493 102.428C126.3 104.4 126.242 106.275 126.319 108.054C126.358 108.479 126.396 108.982 126.435 109.562C126.512 110.103 126.551 110.645 126.551 111.186C126.551 112.191 126.338 113.1 125.913 113.912C125.488 114.724 124.54 115.13 123.071 115.13ZM144.457 117.16C143.49 117.16 142.775 116.851 142.311 116.232C141.847 115.613 141.537 114.84 141.383 113.912C141.267 112.984 141.209 112.075 141.209 111.186C141.209 110.761 141.209 110.355 141.209 109.968C141.247 109.581 141.267 109.253 141.267 108.982C141.267 106.198 141.325 103.395 141.441 100.572C141.557 97.7107 141.615 94.598 141.615 91.234C140.184 91.234 139.005 91.292 138.077 91.408C137.149 91.524 136.221 91.582 135.293 91.582C134.674 91.582 134.249 91.466 134.017 91.234C133.785 91.002 133.669 90.6153 133.669 90.074C133.669 89.4553 133.746 89.0107 133.901 88.74C134.094 88.4307 134.326 88.2373 134.597 88.16L140.281 87C141.131 86.8067 141.731 86.42 142.079 85.84C142.465 85.26 142.736 84.6993 142.891 84.158C142.968 83.8487 143.007 83.5587 143.007 83.288C143.045 82.9787 143.084 82.65 143.123 82.302C143.123 81.9927 143.123 81.7027 143.123 81.432C143.161 81.1227 143.181 80.8327 143.181 80.562C143.258 79.3247 143.451 78.416 143.761 77.836C144.109 77.256 144.766 76.966 145.733 76.966C146.622 76.966 147.144 77.314 147.299 78.01C147.492 78.706 147.589 79.3633 147.589 79.982C147.589 80.4073 147.55 81.0647 147.473 81.954C147.434 82.8047 147.395 83.6553 147.357 84.506C147.318 85.3567 147.279 85.9753 147.241 86.362H156.521C156.869 86.362 157.217 86.594 157.565 87.058C157.913 87.522 158.087 88.1213 158.087 88.856C158.087 89.088 157.99 89.3973 157.797 89.784C157.603 90.132 157.371 90.306 157.101 90.306C156.714 90.306 155.979 90.3253 154.897 90.364C153.853 90.364 152.712 90.3833 151.475 90.422C150.276 90.4607 149.213 90.4993 148.285 90.538C147.357 90.5767 146.835 90.6347 146.719 90.712C146.525 93.032 146.371 95.2747 146.255 97.44C146.177 99.5667 146.139 101.635 146.139 103.646C146.139 104.961 146.158 106.237 146.197 107.474C146.274 108.673 146.332 109.871 146.371 111.07C146.371 111.263 146.39 111.553 146.429 111.94C146.467 112.327 146.487 112.752 146.487 113.216C146.487 114.105 146.351 114.995 146.081 115.884C145.849 116.735 145.307 117.16 144.457 117.16ZM168.489 116.522C167.909 116.522 167.484 116.348 167.213 116C166.942 115.691 166.768 115.343 166.691 114.956C166.652 114.569 166.633 114.318 166.633 114.202V111.128C166.633 109.465 166.788 107.783 167.097 106.082C167.406 104.342 167.542 102.467 167.503 100.456C167.503 100.108 167.368 99.7213 167.097 99.296C166.865 98.832 166.517 98.6 166.053 98.6C165.318 98.6 164.564 98.5227 163.791 98.368C163.056 98.1747 162.689 97.6527 162.689 96.802C162.689 95.9513 162.979 95.3327 163.559 94.946C164.178 94.5207 165.086 94.2307 166.285 94.076C167.097 93.8053 167.619 93.3027 167.851 92.568C168.083 91.8333 168.199 91.2147 168.199 90.712V79.75C168.199 79.17 168.199 78.5513 168.199 77.894C168.238 77.2367 168.392 76.676 168.663 76.212C168.972 75.748 169.533 75.516 170.345 75.516C170.964 75.516 171.524 75.748 172.027 76.212C172.53 76.6373 172.781 77.1207 172.781 77.662C172.781 78.7447 172.762 80.0013 172.723 81.432C172.684 82.824 172.646 84.2353 172.607 85.666C172.568 87.058 172.549 88.334 172.549 89.494C172.549 90.6153 172.568 91.5433 172.607 92.278C172.684 92.974 172.8 93.3607 172.955 93.438C173.342 93.554 174.038 93.6313 175.043 93.67C176.087 93.7087 177.247 93.7473 178.523 93.786C179.799 93.786 180.94 93.786 181.945 93.786C184.11 93.786 185.85 93.786 187.165 93.786C188.48 93.786 189.485 93.786 190.181 93.786C190.916 93.7473 191.457 93.728 191.805 93.728C192.153 93.728 192.443 93.728 192.675 93.728C192.675 93.496 192.714 92.974 192.791 92.162C192.868 91.35 192.965 90.4607 193.081 89.494C193.197 88.5273 193.274 87.7347 193.313 87.116C193.506 85.7627 193.68 84.4093 193.835 83.056C194.028 81.7027 194.144 80.7553 194.183 80.214C194.531 77.7007 195.44 76.444 196.909 76.444C197.373 76.444 197.856 76.56 198.359 76.792C198.862 76.9853 199.016 77.7007 198.823 78.938C198.591 80.5233 198.359 81.9347 198.127 83.172C197.895 84.4093 197.682 85.6273 197.489 86.826C197.334 87.986 197.257 89.2813 197.257 90.712V93.438C198.378 93.554 199.171 93.8633 199.635 94.366C200.099 94.8687 200.331 95.3907 200.331 95.932C200.331 96.8213 200.099 97.44 199.635 97.788C199.21 98.136 198.726 98.3487 198.185 98.426C197.644 98.5033 197.218 98.6193 196.909 98.774V108.634C196.909 109.175 196.87 109.871 196.793 110.722C196.754 111.534 196.58 112.249 196.271 112.868C196 113.487 195.517 113.796 194.821 113.796C194.125 113.796 193.603 113.641 193.255 113.332C192.946 113.023 192.694 112.617 192.501 112.114C192.269 111.495 192.134 110.799 192.095 110.026C192.056 109.214 192.037 108.479 192.037 107.822C192.037 106.585 192.076 105.347 192.153 104.11C192.269 102.873 192.327 101.655 192.327 100.456C192.327 99.6827 192.269 99.1413 192.153 98.832C192.037 98.484 191.766 98.31 191.341 98.31C190.761 98.31 189.852 98.2907 188.615 98.252C187.378 98.2133 186.044 98.194 184.613 98.194C183.221 98.1553 181.926 98.1167 180.727 98.078C179.528 98.0393 178.697 98.02 178.233 98.02H176.783C175.584 98.02 174.676 98.0973 174.057 98.252C173.438 98.368 172.994 98.6387 172.723 99.064C172.491 99.4507 172.298 100.069 172.143 100.92C172.104 102.08 172.066 103.298 172.027 104.574C171.988 105.85 171.911 107.145 171.795 108.46C171.718 109.929 171.621 111.283 171.505 112.52C171.389 113.757 171.118 114.743 170.693 115.478C170.268 116.174 169.533 116.522 168.489 116.522ZM214.596 115.42C212.624 115.42 211.078 114.879 209.956 113.796C208.835 112.675 208.023 111.244 207.52 109.504C207.056 107.725 206.824 105.85 206.824 103.878C206.824 102.525 206.844 101.442 206.882 100.63C206.921 99.7793 206.998 98.9093 207.114 98.02C207.269 97.1307 207.482 95.9127 207.752 94.366C207.907 93.5927 208.062 92.8193 208.216 92.046C208.371 91.234 208.584 90.4607 208.854 89.726C209.164 88.8367 209.492 88.218 209.84 87.87C210.227 87.4833 210.556 87.29 210.826 87.29C211.561 87.29 212.102 87.5027 212.45 87.928C212.837 88.3147 213.03 88.8173 213.03 89.436C213.03 90.2867 212.914 91.0793 212.682 91.814C212.45 92.5487 212.257 93.2447 212.102 93.902C211.832 95.642 211.6 97.034 211.406 98.078C211.213 99.0833 211.058 100.011 210.942 100.862C210.865 101.674 210.826 102.679 210.826 103.878C210.826 104.458 210.865 105.154 210.942 105.966C211.058 106.778 211.252 107.571 211.522 108.344C211.793 109.117 212.199 109.775 212.74 110.316C213.282 110.819 213.997 111.07 214.886 111.07C215.814 111.07 216.684 110.741 217.496 110.084C218.347 109.388 218.946 108.827 219.294 108.402C221.924 105.077 224.263 101.829 226.312 98.658C228.362 95.4873 230.392 92.0267 232.402 88.276C232.673 87.8507 232.886 87.58 233.04 87.464C233.234 87.348 233.466 87.29 233.736 87.29C234.626 87.29 235.244 87.4447 235.592 87.754C235.94 88.0633 236.114 88.5853 236.114 89.32C236.114 89.784 236.056 90.3447 235.94 91.002C235.36 93.902 235.07 96.7827 235.07 99.644C235.07 101.577 235.244 103.375 235.592 105.038C235.94 106.701 236.501 108.073 237.274 109.156C237.854 109.891 238.144 110.529 238.144 111.07C238.144 111.727 237.951 112.249 237.564 112.636C237.216 113.023 236.772 113.216 236.23 113.216C234.761 113.216 233.601 112.056 232.75 109.736C232.48 108.924 232.17 107.899 231.822 106.662C231.513 105.386 231.223 104.11 230.952 102.834C230.682 101.558 230.508 100.495 230.43 99.644C229.928 100.456 229.464 101.268 229.038 102.08C228.652 102.853 228.149 103.685 227.53 104.574C227.105 105.193 226.602 105.908 226.022 106.72C225.442 107.493 224.824 108.305 224.166 109.156C222.813 110.819 221.324 112.288 219.7 113.564C218.076 114.801 216.375 115.42 214.596 115.42ZM256.781 115.42C255.389 115.42 254.074 115.227 252.837 114.84C251.6 114.415 250.556 113.989 249.705 113.564C249.125 114.26 248.526 114.705 247.907 114.898C247.327 115.053 246.786 115.13 246.283 115.13C245.239 115.13 244.717 114.318 244.717 112.694C244.717 111.843 244.736 111.128 244.775 110.548C244.852 109.929 245.026 109.117 245.297 108.112C245.954 103.588 246.457 98.9287 246.805 94.134C247.192 89.3007 247.385 84.5253 247.385 79.808C247.385 77.372 247.327 74.9747 247.211 72.616C247.211 72.2293 247.346 71.9973 247.617 71.92C247.888 71.8427 248.158 71.804 248.429 71.804C249.318 71.804 249.976 71.92 250.401 72.152C250.865 72.3453 251.136 72.848 251.213 73.66V76.85C251.213 79.4407 251.155 82.0313 251.039 84.622C250.962 87.174 250.923 89.958 250.923 92.974C250.923 93.3607 250.942 93.728 250.981 94.076C251.058 94.424 251.194 94.598 251.387 94.598C251.542 94.598 251.754 94.482 252.025 94.25C252.296 94.018 252.644 93.5927 253.069 92.974C254.77 91.002 256.684 89.3587 258.811 88.044C260.938 86.6907 263.548 86.014 266.641 86.014C267.646 86.014 268.69 86.1493 269.773 86.42C270.894 86.652 271.938 87.1353 272.905 87.87C273.872 88.566 274.645 89.6293 275.225 91.06C275.844 92.452 276.153 94.308 276.153 96.628C276.153 99.3347 275.65 101.848 274.645 104.168C273.64 106.449 272.248 108.441 270.469 110.142C268.69 111.805 266.622 113.1 264.263 114.028C261.943 114.956 259.449 115.42 256.781 115.42ZM256.781 111.534C258.598 111.534 260.416 111.109 262.233 110.258C264.05 109.407 265.713 108.267 267.221 106.836C268.768 105.405 270.005 103.82 270.933 102.08C271.861 100.301 272.325 98.484 272.325 96.628C272.325 95.5453 272.054 94.5013 271.513 93.496C271.01 92.4907 270.276 91.6593 269.309 91.002C268.381 90.306 267.298 89.958 266.061 89.958C264.824 89.958 263.49 90.3447 262.059 91.118C260.628 91.8913 259.217 92.8967 257.825 94.134C256.433 95.3713 255.157 96.744 253.997 98.252C252.876 99.7213 251.967 101.191 251.271 102.66C250.614 104.129 250.285 105.463 250.285 106.662C250.285 107.551 250.517 108.305 250.981 108.924C251.484 109.543 252.102 110.045 252.837 110.432C253.572 110.819 254.287 111.109 254.983 111.302C255.718 111.457 256.317 111.534 256.781 111.534ZM316.893 114.84C316.39 114.84 315.946 114.685 315.559 114.376C315.172 114.028 314.979 113.506 314.979 112.81C314.979 112.655 314.979 112.52 314.979 112.404C315.018 112.249 315.056 112.095 315.095 111.94C315.791 108.537 316.313 105.251 316.661 102.08C317.009 98.9093 317.241 95.7 317.357 92.452C317.473 89.1653 317.531 85.724 317.531 82.128C315.52 82.128 313.877 82.1667 312.601 82.244C311.325 82.2827 310.088 82.3407 308.889 82.418C308.502 82.4567 308.096 82.4953 307.671 82.534C307.246 82.534 306.82 82.534 306.395 82.534C306.124 82.534 305.873 82.534 305.641 82.534C305.409 82.4953 305.196 82.4567 305.003 82.418C304.268 82.2633 303.746 82.0313 303.437 81.722C303.166 81.4127 303.031 80.9487 303.031 80.33C303.031 79.3247 303.456 78.706 304.307 78.474C305.158 78.2033 306.163 77.9907 307.323 77.836C308.096 77.72 309.334 77.6233 311.035 77.546C312.736 77.43 314.592 77.3333 316.603 77.256C318.652 77.14 320.644 77.0433 322.577 76.966C324.51 76.85 326.096 76.7533 327.333 76.676C328.145 76.676 329.131 76.7147 330.291 76.792C331.451 76.8307 332.592 76.9853 333.713 77.256C334.873 77.5267 335.84 77.9713 336.613 78.59C337.386 79.2087 337.773 80.098 337.773 81.258C337.773 81.7607 337.58 82.244 337.193 82.708C336.845 83.1333 336.439 83.346 335.975 83.346C335.82 83.346 335.666 83.3073 335.511 83.23C335.395 83.1527 335.26 83.0753 335.105 82.998C334.796 82.8433 334.486 82.6887 334.177 82.534C333.868 82.3793 333.539 82.2633 333.191 82.186C331.876 81.838 330.446 81.6447 328.899 81.606C327.391 81.5287 325.438 81.49 323.041 81.49C322.422 81.49 322.113 81.8573 322.113 82.592C322.113 84.0613 322.094 85.8013 322.055 87.812C322.016 89.784 321.939 91.872 321.823 94.076C321.746 96.28 321.61 98.4647 321.417 100.63C321.262 102.757 321.069 104.729 320.837 106.546C320.605 108.363 320.334 109.871 320.025 111.07C319.793 112.075 319.406 112.984 318.865 113.796C318.594 114.183 318.246 114.453 317.821 114.608C317.434 114.763 317.125 114.84 316.893 114.84ZM349.648 78.068C348.372 78.068 347.347 77.778 346.574 77.198C345.839 76.5793 345.472 75.7867 345.472 74.82C345.472 73.9307 345.897 73.254 346.748 72.79C347.598 72.2873 348.681 72.036 349.996 72.036C351.31 72.036 352.335 72.3453 353.07 72.964C353.804 73.544 354.172 74.356 354.172 75.4C354.172 76.2507 353.746 76.908 352.896 77.372C352.084 77.836 351.001 78.068 349.648 78.068ZM346.632 115.13C346.09 115.13 345.665 114.782 345.356 114.086C345.085 113.39 344.892 112.501 344.776 111.418C344.698 110.335 344.66 109.214 344.66 108.054C344.66 107.513 344.66 106.971 344.66 106.43C344.698 105.85 344.718 105.309 344.718 104.806C344.718 104.651 344.776 104.149 344.892 103.298C345.008 102.409 345.143 101.384 345.298 100.224C345.452 99.064 345.607 97.9233 345.762 96.802C345.955 95.642 346.11 94.7333 346.226 94.076C346.342 93.5733 346.477 92.916 346.632 92.104C346.786 91.2533 347.057 90.4993 347.444 89.842C347.869 89.146 348.468 88.798 349.242 88.798C350.131 88.798 350.75 88.972 351.098 89.32C351.484 89.6293 351.678 90.132 351.678 90.828C351.678 91.0213 351.658 91.2147 351.62 91.408C351.62 91.6013 351.6 91.814 351.562 92.046C351.368 93.2833 351.117 94.83 350.808 96.686C350.537 98.5033 350.286 100.417 350.054 102.428C349.86 104.4 349.802 106.275 349.88 108.054C349.918 108.479 349.957 108.982 349.996 109.562C350.073 110.103 350.112 110.645 350.112 111.186C350.112 112.191 349.899 113.1 349.474 113.912C349.048 114.724 348.101 115.13 346.632 115.13ZM361.057 132.356C360.4 132.356 359.975 132.008 359.781 131.312C359.588 130.655 359.491 129.92 359.491 129.108C359.491 128.799 359.491 128.47 359.491 128.122C359.53 127.813 359.549 127.523 359.549 127.252C359.549 123.308 359.723 119.538 360.071 115.942C360.419 112.307 360.671 108.789 360.825 105.386C360.864 104.497 360.903 103.395 360.941 102.08C360.98 100.765 360.999 99.5087 360.999 98.31C361.038 97.1113 361.038 96.2413 360.999 95.7C360.265 95.7 359.685 95.4293 359.259 94.888C358.834 94.3467 358.621 93.8247 358.621 93.322C358.621 92.9353 358.795 92.4327 359.143 91.814C359.53 91.1567 360.091 90.6927 360.825 90.422C360.903 90.2287 360.941 90.0353 360.941 89.842C360.941 89.61 360.941 89.3587 360.941 89.088C360.941 88.2373 360.864 87.29 360.709 86.246C360.593 85.1633 360.497 84.3707 360.419 83.868C360.381 83.636 360.613 83.3847 361.115 83.114C361.618 82.8433 362.121 82.708 362.623 82.708C363.319 82.708 363.803 82.94 364.073 83.404C364.344 83.868 364.518 84.448 364.595 85.144C364.673 85.84 364.769 86.536 364.885 87.232C366.625 86.536 368.037 86.014 369.119 85.666C370.202 85.318 371.227 85.086 372.193 84.97C373.16 84.854 374.32 84.796 375.673 84.796C378.187 84.796 380.468 85.202 382.517 86.014C384.605 86.826 386.268 88.044 387.505 89.668C388.743 91.2533 389.361 93.2447 389.361 95.642C389.361 97.9233 388.878 100.205 387.911 102.486C386.983 104.767 385.688 106.855 384.025 108.75C382.401 110.606 380.526 112.095 378.399 113.216C376.273 114.337 374.03 114.898 371.671 114.898C371.053 114.898 370.453 114.84 369.873 114.724C369.293 114.569 368.694 114.453 368.075 114.376C367.843 114.337 367.611 114.318 367.379 114.318C367.147 114.279 366.935 114.26 366.741 114.26H364.827C364.827 115.149 364.827 116.387 364.827 117.972C364.827 119.557 364.789 121.239 364.711 123.018C364.673 124.797 364.595 126.459 364.479 128.006C364.402 129.205 364.035 130.229 363.377 131.08C362.759 131.931 361.985 132.356 361.057 132.356ZM371.381 111.012C373.315 111.012 375.113 110.567 376.775 109.678C378.477 108.75 379.965 107.532 381.241 106.024C382.556 104.516 383.561 102.892 384.257 101.152C384.992 99.3733 385.359 97.6333 385.359 95.932C385.359 94.076 384.895 92.6067 383.967 91.524C383.039 90.4027 381.86 89.61 380.429 89.146C379.037 88.6433 377.568 88.392 376.021 88.392C375.248 88.392 374.436 88.4307 373.585 88.508C372.735 88.5467 371.923 88.74 371.149 89.088C369.448 89.8227 368.133 90.6347 367.205 91.524C366.316 92.3747 365.717 93.3993 365.407 94.598C365.253 95.1393 365.156 95.7 365.117 96.28C365.079 96.86 365.059 97.4593 365.059 98.078C365.059 98.6967 365.079 99.354 365.117 100.05C365.156 100.746 365.175 101.481 365.175 102.254V107.068C365.175 107.957 365.523 108.711 366.219 109.33C366.915 109.91 367.747 110.335 368.713 110.606C369.68 110.877 370.569 111.012 371.381 111.012ZM405.551 116.87C404.507 116.87 403.289 116.812 401.897 116.696C400.505 116.58 399.133 116.329 397.779 115.942C396.465 115.555 395.363 114.937 394.473 114.086C393.623 113.235 393.197 112.095 393.197 110.664C393.197 108.808 393.932 107.88 395.401 107.88C395.904 107.88 396.291 108.054 396.561 108.402L397.083 109.098C397.199 109.253 397.296 109.427 397.373 109.62C397.489 109.775 397.625 109.949 397.779 110.142C398.321 110.954 399.094 111.708 400.099 112.404C401.105 113.1 402.613 113.448 404.623 113.448C405.783 113.448 407.059 113.274 408.451 112.926C409.843 112.539 411.023 111.94 411.989 111.128C412.995 110.316 413.497 109.233 413.497 107.88C413.497 106.759 413.149 105.869 412.453 105.212C411.757 104.555 410.984 104.033 410.133 103.646C409.747 103.453 409.302 103.259 408.799 103.066C408.335 102.873 407.833 102.699 407.291 102.544C406.789 102.389 406.286 102.235 405.783 102.08C405.281 101.925 404.759 101.771 404.217 101.616C402.825 101.152 401.549 100.63 400.389 100.05C399.268 99.4313 398.359 98.658 397.663 97.73C397.006 96.802 396.677 95.6227 396.677 94.192C396.677 92.4133 397.257 90.9247 398.417 89.726C399.616 88.5273 401.105 87.638 402.883 87.058C404.701 86.4393 406.537 86.13 408.393 86.13C409.089 86.13 409.901 86.188 410.829 86.304C411.757 86.42 412.666 86.6327 413.555 86.942C414.445 87.2513 415.179 87.696 415.759 88.276C416.378 88.8173 416.687 89.552 416.687 90.48C416.687 90.944 416.591 91.35 416.397 91.698C416.243 92.0073 415.991 92.162 415.643 92.162C415.411 92.162 415.218 92.1233 415.063 92.046C413.362 91.2727 411.931 90.712 410.771 90.364C409.65 90.016 408.664 89.842 407.813 89.842C407.311 89.842 406.653 89.9193 405.841 90.074C405.068 90.19 404.295 90.4027 403.521 90.712C402.748 90.9827 402.091 91.3887 401.549 91.93C401.047 92.4327 400.795 93.09 400.795 93.902C400.795 95.3713 401.917 96.5893 404.159 97.556C404.971 97.8653 405.88 98.1747 406.885 98.484C407.891 98.7933 408.935 99.1607 410.017 99.586C411.409 100.089 412.685 100.688 413.845 101.384C415.005 102.08 415.914 102.931 416.571 103.936C417.267 104.903 417.615 106.121 417.615 107.59C417.615 109.794 417.055 111.592 415.933 112.984C414.812 114.337 413.343 115.323 411.525 115.942C409.708 116.561 407.717 116.87 405.551 116.87Z" fill="#FFF192"/>
</svg>
