<svg width="500" height="200" viewBox="0 0 500 200" fill="none" xmlns="http://www.w3.org/2000/svg">
<rect width="500" height="200" fill="#D98A00"/>
<path d="M89.7578 115.71C89.0618 115.71 88.5978 115.633 88.3658 115.478C88.1724 115.285 88.0758 114.859 88.0758 114.202C88.0758 113.506 88.2111 113.042 88.4818 112.81C88.7911 112.539 89.1198 112.327 89.4678 112.172C89.8158 112.017 90.1444 111.863 90.4538 111.708C90.7631 111.553 91.0531 111.341 91.3238 111.07C92.0198 110.451 92.3678 109.62 92.3678 108.576C92.3678 108.035 92.3484 107.339 92.3098 106.488C92.3098 105.599 92.3098 104.651 92.3098 103.646C92.3098 102.061 92.3098 100.417 92.3098 98.716C92.3484 96.976 92.4064 95.352 92.4838 93.844C92.5611 92.336 92.6578 91.1567 92.7738 90.306C92.8898 89.3007 92.9864 88.2953 93.0638 87.29C93.1798 86.2847 93.2958 85.26 93.4118 84.216V82.302C93.0251 81.8767 92.6964 81.5673 92.4258 81.374C92.1551 81.142 91.9038 80.9487 91.6718 80.794L90.5698 80.098C90.2991 79.9433 90.0864 79.7887 89.9318 79.634C89.8158 79.4407 89.7578 79.1507 89.7578 78.764C89.7578 77.9907 90.1831 77.604 91.0338 77.604C91.6911 77.604 92.2904 77.662 92.8318 77.778C93.4118 77.8553 93.9531 77.894 94.4558 77.894H95.0938C95.2871 77.894 95.7704 77.8553 96.5438 77.778C97.3171 77.662 98.1291 77.546 98.9798 77.43C99.7531 77.314 100.488 77.2173 101.184 77.14C101.88 77.024 102.305 76.966 102.46 76.966H102.808C103.426 76.966 103.852 77.082 104.084 77.314C104.316 77.5073 104.432 77.894 104.432 78.474C104.432 79.0927 104.316 79.4987 104.084 79.692C103.89 79.8853 103.6 80.0207 103.214 80.098C102.904 80.1753 102.576 80.2527 102.228 80.33C101.88 80.4073 101.551 80.4847 101.242 80.562C100.855 80.678 100.449 80.852 100.024 81.084C99.6371 81.316 99.2504 81.7027 98.8638 82.244C98.5931 83.7133 98.3224 85.1827 98.0518 86.652C97.8198 88.0827 97.6071 89.5327 97.4138 91.002C96.9498 94.9847 96.7178 99.0447 96.7178 103.182C96.7178 103.917 96.7178 104.555 96.7178 105.096C96.7564 105.637 96.7951 106.217 96.8338 106.836C96.8724 107.455 96.9498 108.247 97.0658 109.214C97.2978 110.026 97.9938 110.548 99.1538 110.78C99.4244 110.819 99.7144 110.877 100.024 110.954C100.372 110.993 100.72 111.051 101.068 111.128C101.648 111.244 102.073 111.418 102.344 111.65C102.614 111.843 102.75 112.191 102.75 112.694C102.75 113.081 102.595 113.409 102.286 113.68C102.015 113.912 101.512 114.125 100.778 114.318C100.43 114.395 100.062 114.453 99.6758 114.492C99.2891 114.531 98.9024 114.569 98.5158 114.608L96.3118 114.782C96.1958 114.821 96.0411 114.84 95.8478 114.84C95.6544 114.84 95.4224 114.879 95.1518 114.956C94.9198 114.995 94.6491 115.053 94.3398 115.13C94.0691 115.169 93.7791 115.227 93.4698 115.304C92.9671 115.381 92.4644 115.478 91.9618 115.594C91.4978 115.671 91.1884 115.71 91.0338 115.71H89.7578ZM114.045 114.84C113.465 114.84 113.039 114.705 112.769 114.434C112.498 114.163 112.305 113.777 112.189 113.274C111.995 112.617 111.899 111.921 111.899 111.186V108.924C111.899 107.687 111.937 106.623 112.015 105.734C112.092 104.806 112.131 103.801 112.131 102.718C112.131 102.331 112.111 101.925 112.073 101.5C112.073 101.036 112.053 100.553 112.015 100.05C111.86 98.1553 111.647 96.164 111.377 94.076C111.106 91.988 110.971 90.0933 110.971 88.392V86.13C111.203 85.5887 111.415 85.26 111.609 85.144C111.841 85.028 112.15 84.97 112.537 84.97C113.465 84.97 114.122 85.3373 114.509 86.072C114.895 86.768 115.147 87.5993 115.263 88.566C115.417 89.494 115.514 90.306 115.553 91.002C115.591 91.2727 115.649 91.8527 115.727 92.742C115.843 93.6313 115.959 94.6367 116.075 95.758C116.191 96.8407 116.287 97.8847 116.365 98.89C116.481 99.8953 116.539 100.669 116.539 101.21C117.157 99.934 117.892 98.6193 118.743 97.266C119.593 95.874 120.444 94.5787 121.295 93.38C122.184 92.1813 122.977 91.2147 123.673 90.48C124.678 89.3587 125.857 88.4887 127.211 87.87C128.603 87.2127 129.975 86.884 131.329 86.884C132.914 86.884 134.306 87.3287 135.505 88.218C136.703 89.1073 137.728 90.2673 138.579 91.698C139.468 93.1287 140.203 94.6753 140.783 96.338C141.363 97.962 141.827 99.5473 142.175 101.094C142.677 103.143 143.045 104.941 143.277 106.488C143.547 108.035 143.779 109.794 143.973 111.766C143.973 112.617 143.799 113.293 143.451 113.796C143.103 114.299 142.677 114.55 142.175 114.55C141.44 114.55 140.918 114.395 140.609 114.086C140.299 113.738 140.087 113.197 139.971 112.462C139.7 110.993 139.429 109.33 139.159 107.474C138.927 105.618 138.598 103.743 138.173 101.848C137.747 99.9147 137.129 98.1553 136.317 96.57C136.007 95.8353 135.621 95.0813 135.157 94.308C134.693 93.5347 134.132 92.8773 133.475 92.336C132.817 91.7947 132.005 91.524 131.039 91.524C129.763 91.524 128.467 92.0847 127.153 93.206C125.877 94.3273 124.659 95.7773 123.499 97.556C122.339 99.3347 121.275 101.249 120.309 103.298C119.342 105.309 118.53 107.223 117.873 109.04C117.679 109.659 117.428 110.355 117.119 111.128C116.848 111.863 116.558 112.559 116.249 113.216C115.978 113.757 115.669 114.163 115.321 114.434C115.011 114.705 114.586 114.84 114.045 114.84ZM159.449 117.16C158.482 117.16 157.767 116.851 157.303 116.232C156.839 115.613 156.53 114.84 156.375 113.912C156.259 112.984 156.201 112.075 156.201 111.186C156.201 110.761 156.201 110.355 156.201 109.968C156.24 109.581 156.259 109.253 156.259 108.982C156.259 106.198 156.317 103.395 156.433 100.572C156.549 97.7107 156.607 94.598 156.607 91.234C155.176 91.234 153.997 91.292 153.069 91.408C152.141 91.524 151.213 91.582 150.285 91.582C149.666 91.582 149.241 91.466 149.009 91.234C148.777 91.002 148.661 90.6153 148.661 90.074C148.661 89.4553 148.738 89.0107 148.893 88.74C149.086 88.4307 149.318 88.2373 149.589 88.16L155.273 87C156.124 86.8067 156.723 86.42 157.071 85.84C157.458 85.26 157.728 84.6993 157.883 84.158C157.96 83.8487 157.999 83.5587 157.999 83.288C158.038 82.9787 158.076 82.65 158.115 82.302C158.115 81.9927 158.115 81.7027 158.115 81.432C158.154 81.1227 158.173 80.8327 158.173 80.562C158.25 79.3247 158.444 78.416 158.753 77.836C159.101 77.256 159.758 76.966 160.725 76.966C161.614 76.966 162.136 77.314 162.291 78.01C162.484 78.706 162.581 79.3633 162.581 79.982C162.581 80.4073 162.542 81.0647 162.465 81.954C162.426 82.8047 162.388 83.6553 162.349 84.506C162.31 85.3567 162.272 85.9753 162.233 86.362H171.513C171.861 86.362 172.209 86.594 172.557 87.058C172.905 87.522 173.079 88.1213 173.079 88.856C173.079 89.088 172.982 89.3973 172.789 89.784C172.596 90.132 172.364 90.306 172.093 90.306C171.706 90.306 170.972 90.3253 169.889 90.364C168.845 90.364 167.704 90.3833 166.467 90.422C165.268 90.4607 164.205 90.4993 163.277 90.538C162.349 90.5767 161.827 90.6347 161.711 90.712C161.518 93.032 161.363 95.2747 161.247 97.44C161.17 99.5667 161.131 101.635 161.131 103.646C161.131 104.961 161.15 106.237 161.189 107.474C161.266 108.673 161.324 109.871 161.363 111.07C161.363 111.263 161.382 111.553 161.421 111.94C161.46 112.327 161.479 112.752 161.479 113.216C161.479 114.105 161.344 114.995 161.073 115.884C160.841 116.735 160.3 117.16 159.449 117.16ZM193.399 116.87C190.461 116.87 187.793 116.445 185.395 115.594C183.037 114.705 181.161 113.332 179.769 111.476C178.377 109.581 177.681 107.145 177.681 104.168C177.681 101.809 178.068 99.5087 178.841 97.266C179.653 95.0233 180.794 92.9933 182.263 91.176C183.733 89.3587 185.492 87.928 187.541 86.884C189.591 85.8013 191.872 85.26 194.385 85.26C196.125 85.26 197.691 85.5887 199.083 86.246C200.514 86.9033 201.655 87.8313 202.505 89.03C203.356 90.2287 203.781 91.6593 203.781 93.322C203.781 95.1007 203.395 96.802 202.621 98.426C201.887 100.011 200.881 101.423 199.605 102.66C198.329 103.897 196.879 104.883 195.255 105.618C193.67 106.314 192.007 106.662 190.267 106.662C188.759 106.662 187.348 106.546 186.033 106.314C184.719 106.043 183.501 105.637 182.379 105.096C182.379 106.565 182.727 107.822 183.423 108.866C184.119 109.871 185.009 110.703 186.091 111.36C187.174 111.979 188.295 112.443 189.455 112.752C190.654 113.023 191.756 113.158 192.761 113.158C193.573 113.158 194.385 113.119 195.197 113.042C196.009 112.926 196.899 112.868 197.865 112.868C199.296 112.868 200.011 113.487 200.011 114.724C200.011 115.691 199.335 116.309 197.981 116.58C197.247 116.735 196.493 116.812 195.719 116.812C194.946 116.851 194.173 116.87 193.399 116.87ZM190.267 102.022C191.621 102.022 193.032 101.751 194.501 101.21C195.971 100.669 197.208 99.818 198.213 98.658C199.257 97.498 199.779 96.0287 199.779 94.25C199.779 92.6647 199.277 91.3887 198.271 90.422C197.305 89.4167 196.009 88.914 194.385 88.914C192.916 88.914 191.466 89.262 190.035 89.958C188.643 90.6153 187.367 91.524 186.207 92.684C185.047 93.8053 184.119 95.0813 183.423 96.512C182.727 97.9427 182.379 99.412 182.379 100.92C183.269 101.384 184.39 101.693 185.743 101.848C187.097 101.964 188.605 102.022 190.267 102.022ZM211.942 116.58C211.517 116.58 211.188 116.387 210.956 116C210.763 115.613 210.628 115.169 210.55 114.666C210.473 114.163 210.396 113.738 210.318 113.39V108.808C210.318 106.488 210.415 104.11 210.608 101.674C210.84 99.238 210.956 96.86 210.956 94.54C210.956 93.4187 210.879 92.2973 210.724 91.176C210.608 90.0547 210.473 89.1073 210.318 88.334C210.28 88.1407 210.241 87.9667 210.202 87.812C210.202 87.6573 210.202 87.5027 210.202 87.348C210.202 86.8453 210.357 86.5167 210.666 86.362C210.976 86.2073 211.498 86.13 212.232 86.13C213.122 86.13 213.779 86.5167 214.204 87.29C214.63 88.0633 214.939 88.972 215.132 90.016C215.364 91.0213 215.577 91.93 215.77 92.742C216.892 91.3887 218.11 90.4027 219.424 89.784C220.739 89.1653 221.841 88.624 222.73 88.16C223.581 87.7347 224.432 87.406 225.282 87.174C226.172 86.9033 227.158 86.768 228.24 86.768C229.323 86.768 230.328 87.0773 231.256 87.696C232.223 88.276 232.706 88.914 232.706 89.61C232.706 90.422 232.455 91.0213 231.952 91.408C231.45 91.7947 230.87 91.988 230.212 91.988C230.019 91.988 229.826 91.9687 229.632 91.93C229.478 91.8527 229.304 91.7947 229.11 91.756C228.84 91.64 228.53 91.5433 228.182 91.466C227.873 91.3887 227.564 91.35 227.254 91.35C226.056 91.35 224.896 91.582 223.774 92.046C222.653 92.4713 221.706 92.8967 220.932 93.322C219.579 94.0567 218.516 94.888 217.742 95.816C217.008 96.7053 216.389 97.5367 215.886 98.31C215.616 99.7793 215.442 101.21 215.364 102.602C215.287 103.994 215.229 105.077 215.19 105.85C215.152 106.662 215.113 107.513 215.074 108.402C215.036 109.291 214.978 110.181 214.9 111.07C214.823 111.998 214.707 112.887 214.552 113.738C214.398 114.589 214.127 115.285 213.74 115.826C213.354 116.329 212.754 116.58 211.942 116.58ZM236.898 114.84C236.318 114.84 235.893 114.705 235.622 114.434C235.352 114.163 235.158 113.777 235.042 113.274C234.849 112.617 234.752 111.921 234.752 111.186V108.924C234.752 107.687 234.791 106.623 234.868 105.734C234.946 104.806 234.984 103.801 234.984 102.718C234.984 102.331 234.965 101.925 234.926 101.5C234.926 101.036 234.907 100.553 234.868 100.05C234.714 98.1553 234.501 96.164 234.23 94.076C233.96 91.988 233.824 90.0933 233.824 88.392V86.13C234.056 85.5887 234.269 85.26 234.462 85.144C234.694 85.028 235.004 84.97 235.39 84.97C236.318 84.97 236.976 85.3373 237.362 86.072C237.749 86.768 238 87.5993 238.116 88.566C238.271 89.494 238.368 90.306 238.406 91.002C238.445 91.2727 238.503 91.8527 238.58 92.742C238.696 93.6313 238.812 94.6367 238.928 95.758C239.044 96.8407 239.141 97.8847 239.218 98.89C239.334 99.8953 239.392 100.669 239.392 101.21C240.011 99.934 240.746 98.6193 241.596 97.266C242.447 95.874 243.298 94.5787 244.148 93.38C245.038 92.1813 245.83 91.2147 246.526 90.48C247.532 89.3587 248.711 88.4887 250.064 87.87C251.456 87.2127 252.829 86.884 254.182 86.884C255.768 86.884 257.16 87.3287 258.358 88.218C259.557 89.1073 260.582 90.2673 261.432 91.698C262.322 93.1287 263.056 94.6753 263.636 96.338C264.216 97.962 264.68 99.5473 265.028 101.094C265.531 103.143 265.898 104.941 266.13 106.488C266.401 108.035 266.633 109.794 266.826 111.766C266.826 112.617 266.652 113.293 266.304 113.796C265.956 114.299 265.531 114.55 265.028 114.55C264.294 114.55 263.772 114.395 263.462 114.086C263.153 113.738 262.94 113.197 262.824 112.462C262.554 110.993 262.283 109.33 262.012 107.474C261.78 105.618 261.452 103.743 261.026 101.848C260.601 99.9147 259.982 98.1553 259.17 96.57C258.861 95.8353 258.474 95.0813 258.01 94.308C257.546 93.5347 256.986 92.8773 256.328 92.336C255.671 91.7947 254.859 91.524 253.892 91.524C252.616 91.524 251.321 92.0847 250.006 93.206C248.73 94.3273 247.512 95.7773 246.352 97.556C245.192 99.3347 244.129 101.249 243.162 103.298C242.196 105.309 241.384 107.223 240.726 109.04C240.533 109.659 240.282 110.355 239.972 111.128C239.702 111.863 239.412 112.559 239.102 113.216C238.832 113.757 238.522 114.163 238.174 114.434C237.865 114.705 237.44 114.84 236.898 114.84ZM283.926 116.87C282.882 116.87 281.664 116.812 280.272 116.696C278.88 116.58 277.508 116.329 276.154 115.942C274.84 115.555 273.738 114.937 272.848 114.086C271.998 113.235 271.572 112.095 271.572 110.664C271.572 108.808 272.307 107.88 273.776 107.88C274.279 107.88 274.666 108.054 274.936 108.402L275.458 109.098C275.574 109.253 275.671 109.427 275.748 109.62C275.864 109.775 276 109.949 276.154 110.142C276.696 110.954 277.469 111.708 278.474 112.404C279.48 113.1 280.988 113.448 282.998 113.448C284.158 113.448 285.434 113.274 286.826 112.926C288.218 112.539 289.398 111.94 290.364 111.128C291.37 110.316 291.872 109.233 291.872 107.88C291.872 106.759 291.524 105.869 290.828 105.212C290.132 104.555 289.359 104.033 288.508 103.646C288.122 103.453 287.677 103.259 287.174 103.066C286.71 102.873 286.208 102.699 285.666 102.544C285.164 102.389 284.661 102.235 284.158 102.08C283.656 101.925 283.134 101.771 282.592 101.616C281.2 101.152 279.924 100.63 278.764 100.05C277.643 99.4313 276.734 98.658 276.038 97.73C275.381 96.802 275.052 95.6227 275.052 94.192C275.052 92.4133 275.632 90.9247 276.792 89.726C277.991 88.5273 279.48 87.638 281.258 87.058C283.076 86.4393 284.912 86.13 286.768 86.13C287.464 86.13 288.276 86.188 289.204 86.304C290.132 86.42 291.041 86.6327 291.93 86.942C292.82 87.2513 293.554 87.696 294.134 88.276C294.753 88.8173 295.062 89.552 295.062 90.48C295.062 90.944 294.966 91.35 294.772 91.698C294.618 92.0073 294.366 92.162 294.018 92.162C293.786 92.162 293.593 92.1233 293.438 92.046C291.737 91.2727 290.306 90.712 289.146 90.364C288.025 90.016 287.039 89.842 286.188 89.842C285.686 89.842 285.028 89.9193 284.216 90.074C283.443 90.19 282.67 90.4027 281.896 90.712C281.123 90.9827 280.466 91.3887 279.924 91.93C279.422 92.4327 279.17 93.09 279.17 93.902C279.17 95.3713 280.292 96.5893 282.534 97.556C283.346 97.8653 284.255 98.1747 285.26 98.484C286.266 98.7933 287.31 99.1607 288.392 99.586C289.784 100.089 291.06 100.688 292.22 101.384C293.38 102.08 294.289 102.931 294.946 103.936C295.642 104.903 295.99 106.121 295.99 107.59C295.99 109.794 295.43 111.592 294.308 112.984C293.187 114.337 291.718 115.323 289.9 115.942C288.083 116.561 286.092 116.87 283.926 116.87ZM304.222 115.71C302.792 115.71 302.076 114.821 302.076 113.042C302.076 110.567 302.231 108.073 302.54 105.56C302.85 103.008 303.004 100.533 303.004 98.136C303.004 95.3907 302.946 92.626 302.83 89.842C302.753 87.0193 302.656 84.4093 302.54 82.012C302.424 79.576 302.308 77.5847 302.192 76.038C302.192 75.806 302.173 75.5933 302.134 75.4C302.134 75.168 302.134 74.9553 302.134 74.762C302.134 73.9887 302.27 73.3507 302.54 72.848C302.811 72.3453 303.372 72.094 304.222 72.094C305.034 72.094 305.634 72.5193 306.02 73.37C306.446 74.182 306.716 75.1293 306.832 76.212C306.987 77.2947 307.064 78.2033 307.064 78.938C307.064 80.2913 307.045 81.9153 307.006 83.81C306.968 85.666 306.948 87.5607 306.948 89.494C306.948 91.698 306.968 93.8247 307.006 95.874C307.045 97.9233 307.103 99.6247 307.18 100.978C307.296 102.331 307.432 103.105 307.586 103.298C308.708 102.061 309.674 100.92 310.486 99.876C311.298 98.832 312.072 97.8267 312.806 96.86C313.232 96.28 313.715 95.642 314.256 94.946C314.836 94.25 315.416 93.612 315.996 93.032C317.118 91.8333 318.297 90.886 319.534 90.19C320.81 89.4553 322.222 89.088 323.768 89.088C325.702 89.088 327.268 89.8227 328.466 91.292C329.665 92.7227 330.4 94.4433 330.67 96.454L332.526 109.446V111.186C332.526 111.921 332.488 112.655 332.41 113.39C332.333 114.125 331.85 114.492 330.96 114.492C329.723 114.492 328.969 114.183 328.698 113.564C328.466 112.945 328.35 112.211 328.35 111.36C328.35 107.88 328.118 104.941 327.654 102.544C327.229 100.108 326.92 98.368 326.726 97.324C326.456 95.932 326.011 94.8687 325.392 94.134C324.812 93.3607 324.174 92.974 323.478 92.974C322.396 92.974 321.41 93.3607 320.52 94.134C319.631 94.8687 318.954 95.5453 318.49 96.164C317.137 97.8653 315.764 99.7407 314.372 101.79C312.98 103.801 311.627 105.831 310.312 107.88C308.998 109.891 307.76 111.766 306.6 113.506C306.368 113.854 306.059 114.318 305.672 114.898C305.286 115.439 304.802 115.71 304.222 115.71ZM344.192 78.068C342.916 78.068 341.892 77.778 341.118 77.198C340.384 76.5793 340.016 75.7867 340.016 74.82C340.016 73.9307 340.442 73.254 341.292 72.79C342.143 72.2873 343.226 72.036 344.54 72.036C345.855 72.036 346.88 72.3453 347.614 72.964C348.349 73.544 348.716 74.356 348.716 75.4C348.716 76.2507 348.291 76.908 347.44 77.372C346.628 77.836 345.546 78.068 344.192 78.068ZM341.176 115.13C340.635 115.13 340.21 114.782 339.9 114.086C339.63 113.39 339.436 112.501 339.32 111.418C339.243 110.335 339.204 109.214 339.204 108.054C339.204 107.513 339.204 106.971 339.204 106.43C339.243 105.85 339.262 105.309 339.262 104.806C339.262 104.651 339.32 104.149 339.436 103.298C339.552 102.409 339.688 101.384 339.842 100.224C339.997 99.064 340.152 97.9233 340.306 96.802C340.5 95.642 340.654 94.7333 340.77 94.076C340.886 93.5733 341.022 92.916 341.176 92.104C341.331 91.2533 341.602 90.4993 341.988 89.842C342.414 89.146 343.013 88.798 343.786 88.798C344.676 88.798 345.294 88.972 345.642 89.32C346.029 89.6293 346.222 90.132 346.222 90.828C346.222 91.0213 346.203 91.2147 346.164 91.408C346.164 91.6013 346.145 91.814 346.106 92.046C345.913 93.2833 345.662 94.83 345.352 96.686C345.082 98.5033 344.83 100.417 344.598 102.428C344.405 104.4 344.347 106.275 344.424 108.054C344.463 108.479 344.502 108.982 344.54 109.562C344.618 110.103 344.656 110.645 344.656 111.186C344.656 112.191 344.444 113.1 344.018 113.912C343.593 114.724 342.646 115.13 341.176 115.13ZM355.602 132.356C354.945 132.356 354.519 132.008 354.326 131.312C354.133 130.655 354.036 129.92 354.036 129.108C354.036 128.799 354.036 128.47 354.036 128.122C354.075 127.813 354.094 127.523 354.094 127.252C354.094 123.308 354.268 119.538 354.616 115.942C354.964 112.307 355.215 108.789 355.37 105.386C355.409 104.497 355.447 103.395 355.486 102.08C355.525 100.765 355.544 99.5087 355.544 98.31C355.583 97.1113 355.583 96.2413 355.544 95.7C354.809 95.7 354.229 95.4293 353.804 94.888C353.379 94.3467 353.166 93.8247 353.166 93.322C353.166 92.9353 353.34 92.4327 353.688 91.814C354.075 91.1567 354.635 90.6927 355.37 90.422C355.447 90.2287 355.486 90.0353 355.486 89.842C355.486 89.61 355.486 89.3587 355.486 89.088C355.486 88.2373 355.409 87.29 355.254 86.246C355.138 85.1633 355.041 84.3707 354.964 83.868C354.925 83.636 355.157 83.3847 355.66 83.114C356.163 82.8433 356.665 82.708 357.168 82.708C357.864 82.708 358.347 82.94 358.618 83.404C358.889 83.868 359.063 84.448 359.14 85.144C359.217 85.84 359.314 86.536 359.43 87.232C361.17 86.536 362.581 86.014 363.664 85.666C364.747 85.318 365.771 85.086 366.738 84.97C367.705 84.854 368.865 84.796 370.218 84.796C372.731 84.796 375.013 85.202 377.062 86.014C379.15 86.826 380.813 88.044 382.05 89.668C383.287 91.2533 383.906 93.2447 383.906 95.642C383.906 97.9233 383.423 100.205 382.456 102.486C381.528 104.767 380.233 106.855 378.57 108.75C376.946 110.606 375.071 112.095 372.944 113.216C370.817 114.337 368.575 114.898 366.216 114.898C365.597 114.898 364.998 114.84 364.418 114.724C363.838 114.569 363.239 114.453 362.62 114.376C362.388 114.337 362.156 114.318 361.924 114.318C361.692 114.279 361.479 114.26 361.286 114.26H359.372C359.372 115.149 359.372 116.387 359.372 117.972C359.372 119.557 359.333 121.239 359.256 123.018C359.217 124.797 359.14 126.459 359.024 128.006C358.947 129.205 358.579 130.229 357.922 131.08C357.303 131.931 356.53 132.356 355.602 132.356ZM365.926 111.012C367.859 111.012 369.657 110.567 371.32 109.678C373.021 108.75 374.51 107.532 375.786 106.024C377.101 104.516 378.106 102.892 378.802 101.152C379.537 99.3733 379.904 97.6333 379.904 95.932C379.904 94.076 379.44 92.6067 378.512 91.524C377.584 90.4027 376.405 89.61 374.974 89.146C373.582 88.6433 372.113 88.392 370.566 88.392C369.793 88.392 368.981 88.4307 368.13 88.508C367.279 88.5467 366.467 88.74 365.694 89.088C363.993 89.8227 362.678 90.6347 361.75 91.524C360.861 92.3747 360.261 93.3993 359.952 94.598C359.797 95.1393 359.701 95.7 359.662 96.28C359.623 96.86 359.604 97.4593 359.604 98.078C359.604 98.6967 359.623 99.354 359.662 100.05C359.701 100.746 359.72 101.481 359.72 102.254V107.068C359.72 107.957 360.068 108.711 360.764 109.33C361.46 109.91 362.291 110.335 363.258 110.606C364.225 110.877 365.114 111.012 365.926 111.012ZM400.096 116.87C399.052 116.87 397.834 116.812 396.442 116.696C395.05 116.58 393.678 116.329 392.324 115.942C391.01 115.555 389.908 114.937 389.018 114.086C388.168 113.235 387.742 112.095 387.742 110.664C387.742 108.808 388.477 107.88 389.946 107.88C390.449 107.88 390.836 108.054 391.106 108.402L391.628 109.098C391.744 109.253 391.841 109.427 391.918 109.62C392.034 109.775 392.17 109.949 392.324 110.142C392.866 110.954 393.639 111.708 394.644 112.404C395.65 113.1 397.158 113.448 399.168 113.448C400.328 113.448 401.604 113.274 402.996 112.926C404.388 112.539 405.568 111.94 406.534 111.128C407.54 110.316 408.042 109.233 408.042 107.88C408.042 106.759 407.694 105.869 406.998 105.212C406.302 104.555 405.529 104.033 404.678 103.646C404.292 103.453 403.847 103.259 403.344 103.066C402.88 102.873 402.378 102.699 401.836 102.544C401.334 102.389 400.831 102.235 400.328 102.08C399.826 101.925 399.304 101.771 398.762 101.616C397.37 101.152 396.094 100.63 394.934 100.05C393.813 99.4313 392.904 98.658 392.208 97.73C391.551 96.802 391.222 95.6227 391.222 94.192C391.222 92.4133 391.802 90.9247 392.962 89.726C394.161 88.5273 395.65 87.638 397.428 87.058C399.246 86.4393 401.082 86.13 402.938 86.13C403.634 86.13 404.446 86.188 405.374 86.304C406.302 86.42 407.211 86.6327 408.1 86.942C408.99 87.2513 409.724 87.696 410.304 88.276C410.923 88.8173 411.232 89.552 411.232 90.48C411.232 90.944 411.136 91.35 410.942 91.698C410.788 92.0073 410.536 92.162 410.188 92.162C409.956 92.162 409.763 92.1233 409.608 92.046C407.907 91.2727 406.476 90.712 405.316 90.364C404.195 90.016 403.209 89.842 402.358 89.842C401.856 89.842 401.198 89.9193 400.386 90.074C399.613 90.19 398.84 90.4027 398.066 90.712C397.293 90.9827 396.636 91.3887 396.094 91.93C395.592 92.4327 395.34 93.09 395.34 93.902C395.34 95.3713 396.462 96.5893 398.704 97.556C399.516 97.8653 400.425 98.1747 401.43 98.484C402.436 98.7933 403.48 99.1607 404.562 99.586C405.954 100.089 407.23 100.688 408.39 101.384C409.55 102.08 410.459 102.931 411.116 103.936C411.812 104.903 412.16 106.121 412.16 107.59C412.16 109.794 411.6 111.592 410.478 112.984C409.357 114.337 407.888 115.323 406.07 115.942C404.253 116.561 402.262 116.87 400.096 116.87Z" fill="#FFF192"/>
</svg>
