<svg width="500" height="200" viewBox="0 0 500 200" fill="none" xmlns="http://www.w3.org/2000/svg">
<rect width="500" height="200" fill="#00C6B9"/>
<path d="M35.324 116.58C34.396 116.58 33.6807 116.232 33.178 115.536C32.714 114.84 32.3853 113.989 32.192 112.984C32.0373 111.979 31.9407 110.993 31.902 110.026C31.902 109.059 31.902 108.325 31.902 107.822V101.384C31.902 98.484 32.0567 95.4873 32.366 92.394C32.6753 89.3007 32.83 86.014 32.83 82.534C30.8193 82.534 29.4853 82.36 28.828 82.012C28.2093 81.664 27.9 80.91 27.9 79.75C27.9 79.0927 28.248 78.5127 28.944 78.01C29.64 77.5073 30.6067 77.1787 31.844 77.024C32.192 76.908 32.8493 76.792 33.816 76.676C34.8213 76.56 35.9427 76.4633 37.18 76.386C38.4173 76.27 39.5967 76.1927 40.718 76.154C41.878 76.0767 42.7867 76.038 43.444 76.038C47.272 76.038 50.404 76.3667 52.84 77.024C55.276 77.6427 57.074 78.706 58.234 80.214C59.4327 81.722 60.032 83.81 60.032 86.478C60.032 88.3727 59.5293 90.19 58.524 91.93C57.5573 93.6313 56.2427 95.1587 54.58 96.512C52.9173 97.8653 51.042 98.9673 48.954 99.818C46.866 100.669 44.7393 101.191 42.574 101.384C42.1873 101.423 41.7813 101.461 41.356 101.5C40.9307 101.5 40.4667 101.5 39.964 101.5C38.804 101.5 37.6633 101.442 36.542 101.326C36.542 103.453 36.5807 105.289 36.658 106.836C36.774 108.344 36.832 109.775 36.832 111.128V112.926C36.832 113.583 36.774 114.241 36.658 114.898C36.5033 115.555 36.31 116 36.078 116.232C35.8847 116.464 35.6333 116.58 35.324 116.58ZM43.618 96.512C44.5073 96.512 45.6287 96.222 46.982 95.642C48.3353 95.0233 49.6887 94.2307 51.042 93.264C52.3953 92.2587 53.5167 91.1567 54.406 89.958C55.334 88.7593 55.798 87.58 55.798 86.42C55.798 84.8347 55.392 83.6747 54.58 82.94C53.768 82.1667 52.7627 81.6447 51.564 81.374C50.404 81.1033 49.2247 80.8713 48.026 80.678C47.4073 80.562 46.7113 80.4847 45.938 80.446C45.2033 80.4073 44.4493 80.388 43.676 80.388C41.7813 80.388 40.254 80.4847 39.094 80.678C38.8233 80.7167 38.5527 80.852 38.282 81.084C38.0113 81.2773 37.8373 81.606 37.76 82.07C37.5667 83.5007 37.3927 85.086 37.238 86.826C37.0833 88.566 36.948 90.2867 36.832 91.988C36.716 93.6507 36.6193 95.1587 36.542 96.512H43.618ZM67.3142 115.71C66.5408 115.71 66.0188 115.459 65.7482 114.956C65.5162 114.453 65.4002 113.854 65.4002 113.158C65.4388 112.423 65.4582 111.747 65.4582 111.128C65.4582 107.223 65.8448 103.375 66.6182 99.586C67.3915 95.7967 68.3002 92.0267 69.3442 88.276C69.4215 88.044 69.5568 87.6187 69.7502 87C69.9435 86.3427 70.1562 85.6467 70.3882 84.912C70.6202 84.1773 70.8328 83.5007 71.0262 82.882C71.2582 82.2633 71.4128 81.838 71.4902 81.606C71.9155 80.2913 72.4182 79.344 72.9982 78.764C73.5782 78.1453 74.4095 77.836 75.4922 77.836C76.4588 77.836 77.2708 78.184 77.9282 78.88C78.6242 79.5373 79.1848 80.3493 79.6102 81.316C80.0742 82.244 80.4415 83.1333 80.7122 83.984C81.3695 85.9947 82.0462 88.044 82.7422 90.132C83.4382 92.1813 84.0955 94.2113 84.7142 96.222C85.0235 97.2273 85.4488 97.73 85.9902 97.73C86.6862 97.73 87.3435 96.8987 87.9622 95.236C88.2715 94.3853 88.6388 93.3607 89.0642 92.162C89.5282 90.9247 89.9922 89.6873 90.4562 88.45C90.9202 87.174 91.3262 86.0333 91.6742 85.028C92.0608 84.0227 92.3315 83.3073 92.4862 82.882C93.1048 81.2967 93.7815 80.0207 94.5162 79.054C95.2895 78.0487 96.3722 77.546 97.7642 77.546C98.8082 77.546 99.6588 77.9133 100.316 78.648C100.974 79.344 101.515 80.214 101.94 81.258C102.366 82.2633 102.714 83.2493 102.984 84.216C104.028 88.16 104.821 92.162 105.362 96.222C105.942 100.282 106.232 104.323 106.232 108.344V110.606C106.078 111.109 105.865 111.437 105.594 111.592C105.324 111.708 104.84 111.766 104.144 111.766C103.178 111.766 102.482 111.128 102.056 109.852C101.824 109.156 101.67 108.441 101.592 107.706C101.515 106.971 101.438 106.237 101.36 105.502C100.974 101.558 100.626 98.4067 100.316 96.048C100.046 93.6507 99.7942 91.7947 99.5622 90.48C99.3688 89.1653 99.1948 88.16 99.0402 87.464C98.8855 86.7293 98.7308 86.0527 98.5762 85.434C98.4602 84.738 98.1315 84.39 97.5902 84.39C97.0102 84.39 96.5462 84.738 96.1982 85.434C95.9662 86.13 95.6182 87.1353 95.1542 88.45C94.7288 89.7647 94.2455 91.1567 93.7042 92.626C93.1628 94.0953 92.6795 95.4293 92.2542 96.628C91.8288 97.8267 91.5388 98.658 91.3842 99.122C91.1908 99.6247 90.9202 100.321 90.5722 101.21C90.2242 102.061 89.7988 102.911 89.2962 103.762C88.8322 104.613 88.2908 105.347 87.6722 105.966C87.0922 106.546 86.4735 106.836 85.8162 106.836C85.1975 106.836 84.6368 106.585 84.1342 106.082C83.6315 105.541 83.2062 104.922 82.8582 104.226C82.5488 103.53 82.2975 102.95 82.1042 102.486L77.2902 88.276C77.2515 88.0827 77.1742 87.812 77.0582 87.464C76.9422 87.0773 76.7488 86.7293 76.4782 86.42C76.2462 86.072 75.8982 85.898 75.4342 85.898C75.0088 85.898 74.6608 86.0913 74.3902 86.478C74.1582 86.8647 73.9842 87.3093 73.8682 87.812C73.7522 88.3147 73.6748 88.7207 73.6362 89.03C73.5588 89.4167 73.4428 89.9193 73.2882 90.538C73.1335 91.118 72.9788 91.7367 72.8242 92.394C72.6695 92.974 72.5342 93.5347 72.4182 94.076C72.3408 94.5787 72.2635 94.9653 72.1862 95.236C72.1475 95.5067 72.0508 95.99 71.8962 96.686C71.7802 97.382 71.6642 98.1167 71.5482 98.89C71.2388 100.901 70.9488 102.873 70.6782 104.806C70.4462 106.701 70.2142 108.769 69.9822 111.012C69.9435 111.669 69.8468 112.365 69.6922 113.1C69.5375 113.835 69.2668 114.453 68.8802 114.956C68.5322 115.459 68.0102 115.71 67.3142 115.71ZM141.679 78.068C140.403 78.068 139.378 77.778 138.605 77.198C137.87 76.5793 137.503 75.7867 137.503 74.82C137.503 73.9307 137.928 73.254 138.779 72.79C139.629 72.2873 140.712 72.036 142.027 72.036C143.341 72.036 144.366 72.3453 145.101 72.964C145.835 73.544 146.203 74.356 146.203 75.4C146.203 76.2507 145.777 76.908 144.927 77.372C144.115 77.836 143.032 78.068 141.679 78.068ZM138.663 115.13C138.121 115.13 137.696 114.782 137.387 114.086C137.116 113.39 136.923 112.501 136.807 111.418C136.729 110.335 136.691 109.214 136.691 108.054C136.691 107.513 136.691 106.971 136.691 106.43C136.729 105.85 136.749 105.309 136.749 104.806C136.749 104.651 136.807 104.149 136.923 103.298C137.039 102.409 137.174 101.384 137.329 100.224C137.483 99.064 137.638 97.9233 137.793 96.802C137.986 95.642 138.141 94.7333 138.257 94.076C138.373 93.5733 138.508 92.916 138.663 92.104C138.817 91.2533 139.088 90.4993 139.475 89.842C139.9 89.146 140.499 88.798 141.273 88.798C142.162 88.798 142.781 88.972 143.129 89.32C143.515 89.6293 143.709 90.132 143.709 90.828C143.709 91.0213 143.689 91.2147 143.651 91.408C143.651 91.6013 143.631 91.814 143.593 92.046C143.399 93.2833 143.148 94.83 142.839 96.686C142.568 98.5033 142.317 100.417 142.085 102.428C141.891 104.4 141.833 106.275 141.911 108.054C141.949 108.479 141.988 108.982 142.027 109.562C142.104 110.103 142.143 110.645 142.143 111.186C142.143 112.191 141.93 113.1 141.505 113.912C141.079 114.724 140.132 115.13 138.663 115.13ZM153.726 114.84C153.146 114.84 152.721 114.705 152.45 114.434C152.18 114.163 151.986 113.777 151.87 113.274C151.677 112.617 151.58 111.921 151.58 111.186V108.924C151.58 107.687 151.619 106.623 151.696 105.734C151.774 104.806 151.812 103.801 151.812 102.718C151.812 102.331 151.793 101.925 151.754 101.5C151.754 101.036 151.735 100.553 151.696 100.05C151.542 98.1553 151.329 96.164 151.058 94.076C150.788 91.988 150.652 90.0933 150.652 88.392V86.13C150.884 85.5887 151.097 85.26 151.29 85.144C151.522 85.028 151.832 84.97 152.218 84.97C153.146 84.97 153.804 85.3373 154.19 86.072C154.577 86.768 154.828 87.5993 154.944 88.566C155.099 89.494 155.196 90.306 155.234 91.002C155.273 91.2727 155.331 91.8527 155.408 92.742C155.524 93.6313 155.64 94.6367 155.756 95.758C155.872 96.8407 155.969 97.8847 156.046 98.89C156.162 99.8953 156.22 100.669 156.22 101.21C156.839 99.934 157.574 98.6193 158.424 97.266C159.275 95.874 160.126 94.5787 160.976 93.38C161.866 92.1813 162.658 91.2147 163.354 90.48C164.36 89.3587 165.539 88.4887 166.892 87.87C168.284 87.2127 169.657 86.884 171.01 86.884C172.596 86.884 173.988 87.3287 175.186 88.218C176.385 89.1073 177.41 90.2673 178.26 91.698C179.15 93.1287 179.884 94.6753 180.464 96.338C181.044 97.962 181.508 99.5473 181.856 101.094C182.359 103.143 182.726 104.941 182.958 106.488C183.229 108.035 183.461 109.794 183.654 111.766C183.654 112.617 183.48 113.293 183.132 113.796C182.784 114.299 182.359 114.55 181.856 114.55C181.122 114.55 180.6 114.395 180.29 114.086C179.981 113.738 179.768 113.197 179.652 112.462C179.382 110.993 179.111 109.33 178.84 107.474C178.608 105.618 178.28 103.743 177.854 101.848C177.429 99.9147 176.81 98.1553 175.998 96.57C175.689 95.8353 175.302 95.0813 174.838 94.308C174.374 93.5347 173.814 92.8773 173.156 92.336C172.499 91.7947 171.687 91.524 170.72 91.524C169.444 91.524 168.149 92.0847 166.834 93.206C165.558 94.3273 164.34 95.7773 163.18 97.556C162.02 99.3347 160.957 101.249 159.99 103.298C159.024 105.309 158.212 107.223 157.554 109.04C157.361 109.659 157.11 110.355 156.8 111.128C156.53 111.863 156.24 112.559 155.93 113.216C155.66 113.757 155.35 114.163 155.002 114.434C154.693 114.705 154.268 114.84 153.726 114.84ZM219.757 118.32C219.254 118.32 218.771 118.069 218.307 117.566C217.843 117.102 217.611 116.561 217.611 115.942V92.916H215.987C215.523 92.916 215.059 92.974 214.595 93.09C214.131 93.1673 213.647 93.206 213.145 93.206C211.714 93.206 210.999 92.5293 210.999 91.176C210.999 90.6347 211.385 90.2093 212.159 89.9C212.932 89.552 213.918 89.2813 215.117 89.088C216.315 88.856 217.514 88.6433 218.713 88.45C218.751 85.3953 219.215 82.6307 220.105 80.156C220.994 77.6813 222.328 75.7287 224.107 74.298C225.885 72.8287 228.109 72.094 230.777 72.094C231.241 72.094 231.879 72.1327 232.691 72.21C233.503 72.2487 234.334 72.3647 235.185 72.558C236.035 72.7513 236.751 73.0607 237.331 73.486C237.949 73.8727 238.259 74.414 238.259 75.11C238.259 75.7287 238.046 76.2507 237.621 76.676C237.195 77.0627 236.789 77.256 236.403 77.256C235.977 77.256 235.552 77.198 235.127 77.082C234.74 76.966 234.295 76.8307 233.793 76.676C233.251 76.4827 232.71 76.328 232.169 76.212C231.627 76.096 231.047 76.038 230.429 76.038C228.998 76.038 227.799 76.4053 226.833 77.14C225.905 77.8747 225.151 78.8413 224.571 80.04C224.029 81.2387 223.643 82.5533 223.411 83.984C223.179 85.376 223.063 86.7487 223.063 88.102H231.125C231.395 88.102 231.705 88.3147 232.053 88.74C232.439 89.1267 232.633 89.5327 232.633 89.958C232.633 90.6927 232.246 91.1567 231.473 91.35C230.738 91.5047 230.042 91.6207 229.385 91.698C229.114 91.698 228.65 91.756 227.993 91.872C227.374 91.9493 226.678 92.046 225.905 92.162C225.131 92.2393 224.416 92.3167 223.759 92.394C223.14 92.4713 222.695 92.51 222.425 92.51C222.347 93.554 222.27 94.9267 222.193 96.628C222.115 98.2907 222.038 100.166 221.961 102.254C221.883 104.303 221.806 106.411 221.729 108.576C221.69 110.741 221.671 112.849 221.671 114.898C221.671 115.633 221.574 116.387 221.381 117.16C221.187 117.933 220.646 118.32 219.757 118.32ZM239.843 116.58C239.418 116.58 239.089 116.387 238.857 116C238.664 115.613 238.528 115.169 238.451 114.666C238.374 114.163 238.296 113.738 238.219 113.39V108.808C238.219 106.488 238.316 104.11 238.509 101.674C238.741 99.238 238.857 96.86 238.857 94.54C238.857 93.4187 238.78 92.2973 238.625 91.176C238.509 90.0547 238.374 89.1073 238.219 88.334C238.18 88.1407 238.142 87.9667 238.103 87.812C238.103 87.6573 238.103 87.5027 238.103 87.348C238.103 86.8453 238.258 86.5167 238.567 86.362C238.876 86.2073 239.398 86.13 240.133 86.13C241.022 86.13 241.68 86.5167 242.105 87.29C242.53 88.0633 242.84 88.972 243.033 90.016C243.265 91.0213 243.478 91.93 243.671 92.742C244.792 91.3887 246.01 90.4027 247.325 89.784C248.64 89.1653 249.742 88.624 250.631 88.16C251.482 87.7347 252.332 87.406 253.183 87.174C254.072 86.9033 255.058 86.768 256.141 86.768C257.224 86.768 258.229 87.0773 259.157 87.696C260.124 88.276 260.607 88.914 260.607 89.61C260.607 90.422 260.356 91.0213 259.853 91.408C259.35 91.7947 258.77 91.988 258.113 91.988C257.92 91.988 257.726 91.9687 257.533 91.93C257.378 91.8527 257.204 91.7947 257.011 91.756C256.74 91.64 256.431 91.5433 256.083 91.466C255.774 91.3887 255.464 91.35 255.155 91.35C253.956 91.35 252.796 91.582 251.675 92.046C250.554 92.4713 249.606 92.8967 248.833 93.322C247.48 94.0567 246.416 94.888 245.643 95.816C244.908 96.7053 244.29 97.5367 243.787 98.31C243.516 99.7793 243.342 101.21 243.265 102.602C243.188 103.994 243.13 105.077 243.091 105.85C243.052 106.662 243.014 107.513 242.975 108.402C242.936 109.291 242.878 110.181 242.801 111.07C242.724 111.998 242.608 112.887 242.453 113.738C242.298 114.589 242.028 115.285 241.641 115.826C241.254 116.329 240.655 116.58 239.843 116.58ZM276.921 116C274.137 116 271.546 115.401 269.149 114.202C266.751 112.965 264.818 111.263 263.349 109.098C261.918 106.894 261.203 104.342 261.203 101.442C261.203 99.47 261.609 97.6333 262.421 95.932C263.271 94.2307 264.354 92.6067 265.669 91.06C266.983 89.5133 268.356 88.0053 269.787 86.536C270.444 85.8787 271.198 85.4147 272.049 85.144C272.899 84.8347 273.808 84.68 274.775 84.68C277.443 84.68 279.956 84.97 282.315 85.55C284.673 86.0913 286.761 86.9807 288.579 88.218C290.435 89.4553 291.885 91.06 292.929 93.032C293.973 95.004 294.495 97.4013 294.495 100.224C294.495 102.544 293.992 104.671 292.987 106.604C292.02 108.537 290.686 110.219 288.985 111.65C287.322 113.042 285.447 114.125 283.359 114.898C281.271 115.633 279.125 116 276.921 116ZM275.645 111.708C277.423 111.708 279.183 111.457 280.923 110.954C282.701 110.451 284.306 109.697 285.737 108.692C287.167 107.648 288.308 106.353 289.159 104.806C290.048 103.259 290.493 101.423 290.493 99.296C290.493 97.3627 290.067 95.7193 289.217 94.366C288.405 92.974 287.322 91.8527 285.969 91.002C284.615 90.1127 283.146 89.4553 281.561 89.03C279.975 88.6047 278.429 88.392 276.921 88.392C276.302 88.392 275.606 88.45 274.833 88.566C274.098 88.6433 273.383 89.0107 272.687 89.668C271.836 90.48 270.966 91.3113 270.077 92.162C269.226 92.974 268.433 93.8827 267.699 94.888C266.964 95.8547 266.365 96.9373 265.901 98.136C265.437 99.3347 265.205 100.63 265.205 102.022C265.205 104.265 265.669 106.101 266.597 107.532C267.563 108.963 268.839 110.026 270.425 110.722C272.01 111.379 273.75 111.708 275.645 111.708ZM304.107 114.84C303.527 114.84 303.102 114.705 302.831 114.434C302.561 114.163 302.367 113.777 302.251 113.274C302.058 112.617 301.961 111.921 301.961 111.186V108.924C301.961 107.687 302 106.623 302.077 105.734C302.155 104.806 302.193 103.801 302.193 102.718C302.193 102.331 302.174 101.925 302.135 101.5C302.135 101.036 302.116 100.553 302.077 100.05C301.923 98.1553 301.71 96.164 301.439 94.076C301.169 91.988 301.033 90.0933 301.033 88.392V86.13C301.265 85.5887 301.478 85.26 301.671 85.144C301.903 85.028 302.213 84.97 302.599 84.97C303.527 84.97 304.185 85.3373 304.571 86.072C304.958 86.768 305.209 87.5993 305.325 88.566C305.48 89.494 305.577 90.306 305.615 91.002C305.654 91.2727 305.712 91.8527 305.789 92.742C305.905 93.6313 306.021 94.6367 306.137 95.758C306.253 96.8407 306.35 97.8847 306.427 98.89C306.543 99.8953 306.601 100.669 306.601 101.21C307.22 99.934 307.955 98.6193 308.805 97.266C309.656 95.874 310.507 94.5787 311.357 93.38C312.247 92.1813 313.039 91.2147 313.735 90.48C314.741 89.3587 315.92 88.4887 317.273 87.87C318.665 87.2127 320.038 86.884 321.391 86.884C322.977 86.884 324.369 87.3287 325.567 88.218C326.766 89.1073 327.791 90.2673 328.641 91.698C329.531 93.1287 330.265 94.6753 330.845 96.338C331.425 97.962 331.889 99.5473 332.237 101.094C332.74 103.143 333.107 104.941 333.339 106.488C333.61 108.035 333.842 109.794 334.035 111.766C334.035 112.617 333.861 113.293 333.513 113.796C333.165 114.299 332.74 114.55 332.237 114.55C331.503 114.55 330.981 114.395 330.671 114.086C330.362 113.738 330.149 113.197 330.033 112.462C329.763 110.993 329.492 109.33 329.221 107.474C328.989 105.618 328.661 103.743 328.235 101.848C327.81 99.9147 327.191 98.1553 326.379 96.57C326.07 95.8353 325.683 95.0813 325.219 94.308C324.755 93.5347 324.195 92.8773 323.537 92.336C322.88 91.7947 322.068 91.524 321.101 91.524C319.825 91.524 318.53 92.0847 317.215 93.206C315.939 94.3273 314.721 95.7773 313.561 97.556C312.401 99.3347 311.338 101.249 310.371 103.298C309.405 105.309 308.593 107.223 307.935 109.04C307.742 109.659 307.491 110.355 307.181 111.128C306.911 111.863 306.621 112.559 306.311 113.216C306.041 113.757 305.731 114.163 305.383 114.434C305.074 114.705 304.649 114.84 304.107 114.84ZM349.511 117.16C348.545 117.16 347.829 116.851 347.365 116.232C346.901 115.613 346.592 114.84 346.437 113.912C346.321 112.984 346.263 112.075 346.263 111.186C346.263 110.761 346.263 110.355 346.263 109.968C346.302 109.581 346.321 109.253 346.321 108.982C346.321 106.198 346.379 103.395 346.495 100.572C346.611 97.7107 346.669 94.598 346.669 91.234C345.239 91.234 344.059 91.292 343.131 91.408C342.203 91.524 341.275 91.582 340.347 91.582C339.729 91.582 339.303 91.466 339.071 91.234C338.839 91.002 338.723 90.6153 338.723 90.074C338.723 89.4553 338.801 89.0107 338.955 88.74C339.149 88.4307 339.381 88.2373 339.651 88.16L345.335 87C346.186 86.8067 346.785 86.42 347.133 85.84C347.52 85.26 347.791 84.6993 347.945 84.158C348.023 83.8487 348.061 83.5587 348.061 83.288C348.1 82.9787 348.139 82.65 348.177 82.302C348.177 81.9927 348.177 81.7027 348.177 81.432C348.216 81.1227 348.235 80.8327 348.235 80.562C348.313 79.3247 348.506 78.416 348.815 77.836C349.163 77.256 349.821 76.966 350.787 76.966C351.677 76.966 352.199 77.314 352.353 78.01C352.547 78.706 352.643 79.3633 352.643 79.982C352.643 80.4073 352.605 81.0647 352.527 81.954C352.489 82.8047 352.45 83.6553 352.411 84.506C352.373 85.3567 352.334 85.9753 352.295 86.362H361.575C361.923 86.362 362.271 86.594 362.619 87.058C362.967 87.522 363.141 88.1213 363.141 88.856C363.141 89.088 363.045 89.3973 362.851 89.784C362.658 90.132 362.426 90.306 362.155 90.306C361.769 90.306 361.034 90.3253 359.951 90.364C358.907 90.364 357.767 90.3833 356.529 90.422C355.331 90.4607 354.267 90.4993 353.339 90.538C352.411 90.5767 351.889 90.6347 351.773 90.712C351.58 93.032 351.425 95.2747 351.309 97.44C351.232 99.5667 351.193 101.635 351.193 103.646C351.193 104.961 351.213 106.237 351.251 107.474C351.329 108.673 351.387 109.871 351.425 111.07C351.425 111.263 351.445 111.553 351.483 111.94C351.522 112.327 351.541 112.752 351.541 113.216C351.541 114.105 351.406 114.995 351.135 115.884C350.903 116.735 350.362 117.16 349.511 117.16ZM383.462 116.87C380.523 116.87 377.855 116.445 375.458 115.594C373.099 114.705 371.224 113.332 369.832 111.476C368.44 109.581 367.744 107.145 367.744 104.168C367.744 101.809 368.13 99.5087 368.904 97.266C369.716 95.0233 370.856 92.9933 372.326 91.176C373.795 89.3587 375.554 87.928 377.604 86.884C379.653 85.8013 381.934 85.26 384.448 85.26C386.188 85.26 387.754 85.5887 389.146 86.246C390.576 86.9033 391.717 87.8313 392.568 89.03C393.418 90.2287 393.844 91.6593 393.844 93.322C393.844 95.1007 393.457 96.802 392.684 98.426C391.949 100.011 390.944 101.423 389.668 102.66C388.392 103.897 386.942 104.883 385.318 105.618C383.732 106.314 382.07 106.662 380.33 106.662C378.822 106.662 377.41 106.546 376.096 106.314C374.781 106.043 373.563 105.637 372.442 105.096C372.442 106.565 372.79 107.822 373.486 108.866C374.182 109.871 375.071 110.703 376.154 111.36C377.236 111.979 378.358 112.443 379.518 112.752C380.716 113.023 381.818 113.158 382.824 113.158C383.636 113.158 384.448 113.119 385.26 113.042C386.072 112.926 386.961 112.868 387.928 112.868C389.358 112.868 390.074 113.487 390.074 114.724C390.074 115.691 389.397 116.309 388.044 116.58C387.309 116.735 386.555 116.812 385.782 116.812C385.008 116.851 384.235 116.87 383.462 116.87ZM380.33 102.022C381.683 102.022 383.094 101.751 384.564 101.21C386.033 100.669 387.27 99.818 388.276 98.658C389.32 97.498 389.842 96.0287 389.842 94.25C389.842 92.6647 389.339 91.3887 388.334 90.422C387.367 89.4167 386.072 88.914 384.448 88.914C382.978 88.914 381.528 89.262 380.098 89.958C378.706 90.6153 377.43 91.524 376.27 92.684C375.11 93.8053 374.182 95.0813 373.486 96.512C372.79 97.9427 372.442 99.412 372.442 100.92C373.331 101.384 374.452 101.693 375.806 101.848C377.159 101.964 378.667 102.022 380.33 102.022ZM403.455 114.84C402.875 114.84 402.45 114.705 402.179 114.434C401.908 114.163 401.715 113.777 401.599 113.274C401.406 112.617 401.309 111.921 401.309 111.186V108.924C401.309 107.687 401.348 106.623 401.425 105.734C401.502 104.806 401.541 103.801 401.541 102.718C401.541 102.331 401.522 101.925 401.483 101.5C401.483 101.036 401.464 100.553 401.425 100.05C401.27 98.1553 401.058 96.164 400.787 94.076C400.516 91.988 400.381 90.0933 400.381 88.392V86.13C400.613 85.5887 400.826 85.26 401.019 85.144C401.251 85.028 401.56 84.97 401.947 84.97C402.875 84.97 403.532 85.3373 403.919 86.072C404.306 86.768 404.557 87.5993 404.673 88.566C404.828 89.494 404.924 90.306 404.963 91.002C405.002 91.2727 405.06 91.8527 405.137 92.742C405.253 93.6313 405.369 94.6367 405.485 95.758C405.601 96.8407 405.698 97.8847 405.775 98.89C405.891 99.8953 405.949 100.669 405.949 101.21C406.568 99.934 407.302 98.6193 408.153 97.266C409.004 95.874 409.854 94.5787 410.705 93.38C411.594 92.1813 412.387 91.2147 413.083 90.48C414.088 89.3587 415.268 88.4887 416.621 87.87C418.013 87.2127 419.386 86.884 420.739 86.884C422.324 86.884 423.716 87.3287 424.915 88.218C426.114 89.1073 427.138 90.2673 427.989 91.698C428.878 93.1287 429.613 94.6753 430.193 96.338C430.773 97.962 431.237 99.5473 431.585 101.094C432.088 103.143 432.455 104.941 432.687 106.488C432.958 108.035 433.19 109.794 433.383 111.766C433.383 112.617 433.209 113.293 432.861 113.796C432.513 114.299 432.088 114.55 431.585 114.55C430.85 114.55 430.328 114.395 430.019 114.086C429.71 113.738 429.497 113.197 429.381 112.462C429.11 110.993 428.84 109.33 428.569 107.474C428.337 105.618 428.008 103.743 427.583 101.848C427.158 99.9147 426.539 98.1553 425.727 96.57C425.418 95.8353 425.031 95.0813 424.567 94.308C424.103 93.5347 423.542 92.8773 422.885 92.336C422.228 91.7947 421.416 91.524 420.449 91.524C419.173 91.524 417.878 92.0847 416.563 93.206C415.287 94.3273 414.069 95.7773 412.909 97.556C411.749 99.3347 410.686 101.249 409.719 103.298C408.752 105.309 407.94 107.223 407.283 109.04C407.09 109.659 406.838 110.355 406.529 111.128C406.258 111.863 405.968 112.559 405.659 113.216C405.388 113.757 405.079 114.163 404.731 114.434C404.422 114.705 403.996 114.84 403.455 114.84ZM446.017 116.87C443.31 116.174 441.261 114.743 439.869 112.578C438.477 110.413 437.781 108.015 437.781 105.386C437.781 102.911 438.322 100.533 439.405 98.252C440.526 95.932 442.015 93.8633 443.871 92.046C445.727 90.19 447.834 88.74 450.193 87.696C452.59 86.6133 455.065 86.072 457.617 86.072C459.125 86.072 460.304 86.1107 461.155 86.188C462.006 86.2653 462.972 86.5167 464.055 86.942C464.094 86.362 464.19 85.55 464.345 84.506C464.5 83.462 464.674 82.36 464.867 81.2C465.06 80.0013 465.215 78.938 465.331 78.01C465.447 77.1593 465.563 76.3087 465.679 75.458C465.834 74.5687 466.046 73.718 466.317 72.906C466.936 71.2047 467.825 70.354 468.985 70.354C469.874 70.354 470.319 71.0307 470.319 72.384C470.319 72.5773 470.3 72.8093 470.261 73.08C470.261 73.312 470.242 73.5827 470.203 73.892C469.584 78.5707 469.12 83.2107 468.811 87.812C468.54 92.3747 468.405 96.9373 468.405 101.5C468.405 103.433 468.463 105.347 468.579 107.242C468.695 109.098 468.83 111.012 468.985 112.984C469.062 114.028 468.869 114.859 468.405 115.478C467.98 116.058 467.496 116.348 466.955 116.348C466.182 116.348 465.66 115.865 465.389 114.898C465.002 113.661 464.693 112.385 464.461 111.07C464.229 109.717 464.074 108.595 463.997 107.706C462.566 109.291 461.02 110.78 459.357 112.172C457.694 113.564 455.954 114.705 454.137 115.594C452.358 116.445 450.522 116.87 448.627 116.87H446.017ZM448.279 113.274C450.135 113.274 451.972 112.81 453.789 111.882C455.645 110.915 457.346 109.678 458.893 108.17C460.44 106.623 461.677 104.98 462.605 103.24C463.533 101.461 463.997 99.76 463.997 98.136C463.997 96.6667 463.765 95.3133 463.301 94.076C462.876 92.8387 462.238 91.8527 461.387 91.118C460.575 90.3447 459.589 89.958 458.429 89.958C456.264 89.958 454.195 90.3833 452.223 91.234C450.29 92.0847 448.55 93.2447 447.003 94.714C445.495 96.1833 444.296 97.8653 443.407 99.76C442.556 101.655 442.131 103.627 442.131 105.676V108.286C442.518 109.755 443.214 110.954 444.219 111.882C445.224 112.81 446.578 113.274 448.279 113.274Z" fill="#002E29"/>
</svg>
