<svg width="500" height="200" viewBox="0 0 500 200" fill="none" xmlns="http://www.w3.org/2000/svg">
<rect width="500" height="200" fill="#DF4242"/>
<path d="M140.324 116.58C139.396 116.58 138.681 116.232 138.178 115.536C137.714 114.84 137.385 113.989 137.192 112.984C137.037 111.979 136.941 110.993 136.902 110.026C136.902 109.059 136.902 108.325 136.902 107.822V101.384C136.902 98.484 137.057 95.4873 137.366 92.394C137.675 89.3007 137.83 86.014 137.83 82.534C135.819 82.534 134.485 82.36 133.828 82.012C133.209 81.664 132.9 80.91 132.9 79.75C132.9 79.0927 133.248 78.5127 133.944 78.01C134.64 77.5073 135.607 77.1787 136.844 77.024C137.192 76.908 137.849 76.792 138.816 76.676C139.821 76.56 140.943 76.4633 142.18 76.386C143.417 76.27 144.597 76.1927 145.718 76.154C146.878 76.0767 147.787 76.038 148.444 76.038C152.272 76.038 155.404 76.3667 157.84 77.024C160.276 77.6427 162.074 78.706 163.234 80.214C164.433 81.722 165.032 83.81 165.032 86.478C165.032 88.3727 164.529 90.19 163.524 91.93C162.557 93.6313 161.243 95.1587 159.58 96.512C157.917 97.8653 156.042 98.9673 153.954 99.818C151.866 100.669 149.739 101.191 147.574 101.384C147.187 101.423 146.781 101.461 146.356 101.5C145.931 101.5 145.467 101.5 144.964 101.5C143.804 101.5 142.663 101.442 141.542 101.326C141.542 103.453 141.581 105.289 141.658 106.836C141.774 108.344 141.832 109.775 141.832 111.128V112.926C141.832 113.583 141.774 114.241 141.658 114.898C141.503 115.555 141.31 116 141.078 116.232C140.885 116.464 140.633 116.58 140.324 116.58ZM148.618 96.512C149.507 96.512 150.629 96.222 151.982 95.642C153.335 95.0233 154.689 94.2307 156.042 93.264C157.395 92.2587 158.517 91.1567 159.406 89.958C160.334 88.7593 160.798 87.58 160.798 86.42C160.798 84.8347 160.392 83.6747 159.58 82.94C158.768 82.1667 157.763 81.6447 156.564 81.374C155.404 81.1033 154.225 80.8713 153.026 80.678C152.407 80.562 151.711 80.4847 150.938 80.446C150.203 80.4073 149.449 80.388 148.676 80.388C146.781 80.388 145.254 80.4847 144.094 80.678C143.823 80.7167 143.553 80.852 143.282 81.084C143.011 81.2773 142.837 81.606 142.76 82.07C142.567 83.5007 142.393 85.086 142.238 86.826C142.083 88.566 141.948 90.2867 141.832 91.988C141.716 93.6507 141.619 95.1587 141.542 96.512H148.618ZM172.372 116.58C171.947 116.58 171.618 116.387 171.386 116C171.193 115.613 171.058 115.169 170.98 114.666C170.903 114.163 170.826 113.738 170.748 113.39V108.808C170.748 106.488 170.845 104.11 171.038 101.674C171.27 99.238 171.386 96.86 171.386 94.54C171.386 93.4187 171.309 92.2973 171.154 91.176C171.038 90.0547 170.903 89.1073 170.748 88.334C170.71 88.1407 170.671 87.9667 170.632 87.812C170.632 87.6573 170.632 87.5027 170.632 87.348C170.632 86.8453 170.787 86.5167 171.096 86.362C171.406 86.2073 171.928 86.13 172.662 86.13C173.552 86.13 174.209 86.5167 174.634 87.29C175.06 88.0633 175.369 88.972 175.562 90.016C175.794 91.0213 176.007 91.93 176.2 92.742C177.322 91.3887 178.54 90.4027 179.854 89.784C181.169 89.1653 182.271 88.624 183.16 88.16C184.011 87.7347 184.862 87.406 185.712 87.174C186.602 86.9033 187.588 86.768 188.67 86.768C189.753 86.768 190.758 87.0773 191.686 87.696C192.653 88.276 193.136 88.914 193.136 89.61C193.136 90.422 192.885 91.0213 192.382 91.408C191.88 91.7947 191.3 91.988 190.642 91.988C190.449 91.988 190.256 91.9687 190.062 91.93C189.908 91.8527 189.734 91.7947 189.54 91.756C189.27 91.64 188.96 91.5433 188.612 91.466C188.303 91.3887 187.994 91.35 187.684 91.35C186.486 91.35 185.326 91.582 184.204 92.046C183.083 92.4713 182.136 92.8967 181.362 93.322C180.009 94.0567 178.946 94.888 178.172 95.816C177.438 96.7053 176.819 97.5367 176.316 98.31C176.046 99.7793 175.872 101.21 175.794 102.602C175.717 103.994 175.659 105.077 175.62 105.85C175.582 106.662 175.543 107.513 175.504 108.402C175.466 109.291 175.408 110.181 175.33 111.07C175.253 111.998 175.137 112.887 174.982 113.738C174.828 114.589 174.557 115.285 174.17 115.826C173.784 116.329 173.184 116.58 172.372 116.58ZM204.288 116.58C202.548 116.58 200.924 116.193 199.416 115.42C197.947 114.647 196.709 113.603 195.704 112.288C194.699 110.973 194.041 109.504 193.732 107.88V104.806C193.732 102.602 194.138 100.379 194.95 98.136C195.762 95.8933 196.883 93.8247 198.314 91.93C199.783 90.0353 201.504 88.5273 203.476 87.406C205.487 86.246 207.652 85.666 209.972 85.666C211.441 85.666 212.853 85.9173 214.206 86.42C215.598 86.9227 216.835 87.5027 217.918 88.16C218.15 86.536 218.44 85.4147 218.788 84.796C219.136 84.1773 219.735 83.868 220.586 83.868C221.243 83.868 221.707 84.0807 221.978 84.506C222.249 84.8927 222.384 85.5887 222.384 86.594C222.384 88.914 222.326 91.1953 222.21 93.438C222.133 95.642 222.094 97.904 222.094 100.224C222.094 102.08 222.191 103.994 222.384 105.966C222.616 107.938 222.732 109.833 222.732 111.65C222.732 112.23 222.732 112.81 222.732 113.39C222.771 113.97 222.674 114.453 222.442 114.84C222.249 115.188 221.823 115.362 221.166 115.362C220.238 115.362 219.542 114.937 219.078 114.086C218.653 113.197 218.363 112.133 218.208 110.896C218.053 109.659 217.899 108.499 217.744 107.416C217.357 108.46 216.7 109.485 215.772 110.49C214.883 111.495 213.974 112.365 213.046 113.1C212.157 113.796 211.461 114.299 210.958 114.608C210.494 114.879 210.494 114.84 210.958 114.492C210.107 115.111 209.044 115.613 207.768 116C206.531 116.387 205.371 116.58 204.288 116.58ZM203.708 112.926C205.448 112.926 207.072 112.423 208.58 111.418C210.088 110.413 211.403 109.117 212.524 107.532C213.684 105.947 214.573 104.284 215.192 102.544C215.849 100.804 216.178 99.1993 216.178 97.73C216.178 96.9953 216.081 96.164 215.888 95.236C215.733 94.2693 215.424 93.3413 214.96 92.452C214.496 91.5627 213.858 90.828 213.046 90.248C212.273 89.668 211.248 89.378 209.972 89.378C208.309 89.378 206.724 89.9193 205.216 91.002C203.708 92.046 202.355 93.3993 201.156 95.062C199.996 96.686 199.087 98.368 198.43 100.108C197.773 101.848 197.444 103.414 197.444 104.806C197.444 105.85 197.618 107.01 197.966 108.286C198.353 109.562 198.991 110.664 199.88 111.592C200.808 112.481 202.084 112.926 203.708 112.926ZM241.836 115.13C239.129 115.13 236.848 114.473 234.992 113.158C233.136 111.843 231.724 110.084 230.758 107.88C229.791 105.637 229.308 103.201 229.308 100.572C229.308 97.6333 229.965 94.946 231.28 92.51C232.594 90.074 234.412 88.1213 236.732 86.652C239.052 85.144 241.681 84.39 244.62 84.39C245.432 84.39 246.379 84.448 247.462 84.564C248.544 84.68 249.588 84.912 250.594 85.26C251.599 85.608 252.43 86.1107 253.088 86.768C253.745 87.4253 254.074 88.2953 254.074 89.378C254.074 89.8033 253.9 90.1707 253.552 90.48C253.204 90.7893 252.643 90.944 251.87 90.944C251.251 90.944 250.671 90.7893 250.13 90.48C249.627 90.1707 249.144 89.8613 248.68 89.552C247.984 89.088 247.249 88.682 246.476 88.334C245.741 87.9473 244.929 87.754 244.04 87.754C242.338 87.754 240.85 88.1987 239.574 89.088C238.298 89.9387 237.234 91.06 236.384 92.452C235.533 93.8053 234.895 95.2553 234.47 96.802C234.044 98.31 233.832 99.702 233.832 100.978C233.832 103.491 234.315 105.502 235.282 107.01C236.287 108.479 237.602 109.543 239.226 110.2C240.888 110.819 242.686 111.128 244.62 111.128C246.476 111.128 248.158 110.799 249.666 110.142C251.212 109.485 252.778 108.789 254.364 108.054C254.905 107.783 255.35 107.648 255.698 107.648C256.162 107.648 256.471 107.841 256.626 108.228C256.78 108.576 256.858 109.021 256.858 109.562C256.858 110.567 256.452 111.418 255.64 112.114C254.828 112.771 253.803 113.313 252.566 113.738C251.328 114.125 249.994 114.434 248.564 114.666C247.172 114.859 245.876 114.995 244.678 115.072C243.479 115.111 242.532 115.13 241.836 115.13ZM272.582 117.16C271.615 117.16 270.9 116.851 270.436 116.232C269.972 115.613 269.662 114.84 269.508 113.912C269.392 112.984 269.334 112.075 269.334 111.186C269.334 110.761 269.334 110.355 269.334 109.968C269.372 109.581 269.392 109.253 269.392 108.982C269.392 106.198 269.45 103.395 269.566 100.572C269.682 97.7107 269.74 94.598 269.74 91.234C268.309 91.234 267.13 91.292 266.202 91.408C265.274 91.524 264.346 91.582 263.418 91.582C262.799 91.582 262.374 91.466 262.142 91.234C261.91 91.002 261.794 90.6153 261.794 90.074C261.794 89.4553 261.871 89.0107 262.026 88.74C262.219 88.4307 262.451 88.2373 262.722 88.16L268.406 87C269.256 86.8067 269.856 86.42 270.204 85.84C270.59 85.26 270.861 84.6993 271.016 84.158C271.093 83.8487 271.132 83.5587 271.132 83.288C271.17 82.9787 271.209 82.65 271.248 82.302C271.248 81.9927 271.248 81.7027 271.248 81.432C271.286 81.1227 271.306 80.8327 271.306 80.562C271.383 79.3247 271.576 78.416 271.886 77.836C272.234 77.256 272.891 76.966 273.858 76.966C274.747 76.966 275.269 77.314 275.424 78.01C275.617 78.706 275.714 79.3633 275.714 79.982C275.714 80.4073 275.675 81.0647 275.598 81.954C275.559 82.8047 275.52 83.6553 275.482 84.506C275.443 85.3567 275.404 85.9753 275.366 86.362H284.646C284.994 86.362 285.342 86.594 285.69 87.058C286.038 87.522 286.212 88.1213 286.212 88.856C286.212 89.088 286.115 89.3973 285.922 89.784C285.728 90.132 285.496 90.306 285.226 90.306C284.839 90.306 284.104 90.3253 283.022 90.364C281.978 90.364 280.837 90.3833 279.6 90.422C278.401 90.4607 277.338 90.4993 276.41 90.538C275.482 90.5767 274.96 90.6347 274.844 90.712C274.65 93.032 274.496 95.2747 274.38 97.44C274.302 99.5667 274.264 101.635 274.264 103.646C274.264 104.961 274.283 106.237 274.322 107.474C274.399 108.673 274.457 109.871 274.496 111.07C274.496 111.263 274.515 111.553 274.554 111.94C274.592 112.327 274.612 112.752 274.612 113.216C274.612 114.105 274.476 114.995 274.206 115.884C273.974 116.735 273.432 117.16 272.582 117.16ZM297.542 78.068C296.266 78.068 295.241 77.778 294.468 77.198C293.733 76.5793 293.366 75.7867 293.366 74.82C293.366 73.9307 293.791 73.254 294.642 72.79C295.493 72.2873 296.575 72.036 297.89 72.036C299.205 72.036 300.229 72.3453 300.964 72.964C301.699 73.544 302.066 74.356 302.066 75.4C302.066 76.2507 301.641 76.908 300.79 77.372C299.978 77.836 298.895 78.068 297.542 78.068ZM294.526 115.13C293.985 115.13 293.559 114.782 293.25 114.086C292.979 113.39 292.786 112.501 292.67 111.418C292.593 110.335 292.554 109.214 292.554 108.054C292.554 107.513 292.554 106.971 292.554 106.43C292.593 105.85 292.612 105.309 292.612 104.806C292.612 104.651 292.67 104.149 292.786 103.298C292.902 102.409 293.037 101.384 293.192 100.224C293.347 99.064 293.501 97.9233 293.656 96.802C293.849 95.642 294.004 94.7333 294.12 94.076C294.236 93.5733 294.371 92.916 294.526 92.104C294.681 91.2533 294.951 90.4993 295.338 89.842C295.763 89.146 296.363 88.798 297.136 88.798C298.025 88.798 298.644 88.972 298.992 89.32C299.379 89.6293 299.572 90.132 299.572 90.828C299.572 91.0213 299.553 91.2147 299.514 91.408C299.514 91.6013 299.495 91.814 299.456 92.046C299.263 93.2833 299.011 94.83 298.702 96.686C298.431 98.5033 298.18 100.417 297.948 102.428C297.755 104.4 297.697 106.275 297.774 108.054C297.813 108.479 297.851 108.982 297.89 109.562C297.967 110.103 298.006 110.645 298.006 111.186C298.006 112.191 297.793 113.1 297.368 113.912C296.943 114.724 295.995 115.13 294.526 115.13ZM318.754 115.13C316.047 115.13 313.766 114.473 311.91 113.158C310.054 111.843 308.642 110.084 307.676 107.88C306.709 105.637 306.226 103.201 306.226 100.572C306.226 97.6333 306.883 94.946 308.198 92.51C309.512 90.074 311.33 88.1213 313.65 86.652C315.97 85.144 318.599 84.39 321.538 84.39C322.35 84.39 323.297 84.448 324.38 84.564C325.462 84.68 326.506 84.912 327.512 85.26C328.517 85.608 329.348 86.1107 330.006 86.768C330.663 87.4253 330.992 88.2953 330.992 89.378C330.992 89.8033 330.818 90.1707 330.47 90.48C330.122 90.7893 329.561 90.944 328.788 90.944C328.169 90.944 327.589 90.7893 327.048 90.48C326.545 90.1707 326.062 89.8613 325.598 89.552C324.902 89.088 324.167 88.682 323.394 88.334C322.659 87.9473 321.847 87.754 320.958 87.754C319.256 87.754 317.768 88.1987 316.492 89.088C315.216 89.9387 314.152 91.06 313.302 92.452C312.451 93.8053 311.813 95.2553 311.388 96.802C310.962 98.31 310.75 99.702 310.75 100.978C310.75 103.491 311.233 105.502 312.2 107.01C313.205 108.479 314.52 109.543 316.144 110.2C317.806 110.819 319.604 111.128 321.538 111.128C323.394 111.128 325.076 110.799 326.584 110.142C328.13 109.485 329.696 108.789 331.282 108.054C331.823 107.783 332.268 107.648 332.616 107.648C333.08 107.648 333.389 107.841 333.544 108.228C333.698 108.576 333.776 109.021 333.776 109.562C333.776 110.567 333.37 111.418 332.558 112.114C331.746 112.771 330.721 113.313 329.484 113.738C328.246 114.125 326.912 114.434 325.482 114.666C324.09 114.859 322.794 114.995 321.596 115.072C320.397 115.111 319.45 115.13 318.754 115.13ZM355.3 116.87C352.361 116.87 349.693 116.445 347.296 115.594C344.937 114.705 343.062 113.332 341.67 111.476C340.278 109.581 339.582 107.145 339.582 104.168C339.582 101.809 339.968 99.5087 340.742 97.266C341.554 95.0233 342.694 92.9933 344.164 91.176C345.633 89.3587 347.392 87.928 349.442 86.884C351.491 85.8013 353.772 85.26 356.286 85.26C358.026 85.26 359.592 85.5887 360.984 86.246C362.414 86.9033 363.555 87.8313 364.406 89.03C365.256 90.2287 365.682 91.6593 365.682 93.322C365.682 95.1007 365.295 96.802 364.522 98.426C363.787 100.011 362.782 101.423 361.506 102.66C360.23 103.897 358.78 104.883 357.156 105.618C355.57 106.314 353.908 106.662 352.168 106.662C350.66 106.662 349.248 106.546 347.934 106.314C346.619 106.043 345.401 105.637 344.28 105.096C344.28 106.565 344.628 107.822 345.324 108.866C346.02 109.871 346.909 110.703 347.992 111.36C349.074 111.979 350.196 112.443 351.356 112.752C352.554 113.023 353.656 113.158 354.662 113.158C355.474 113.158 356.286 113.119 357.098 113.042C357.91 112.926 358.799 112.868 359.766 112.868C361.196 112.868 361.912 113.487 361.912 114.724C361.912 115.691 361.235 116.309 359.882 116.58C359.147 116.735 358.393 116.812 357.62 116.812C356.846 116.851 356.073 116.87 355.3 116.87ZM352.168 102.022C353.521 102.022 354.932 101.751 356.402 101.21C357.871 100.669 359.108 99.818 360.114 98.658C361.158 97.498 361.68 96.0287 361.68 94.25C361.68 92.6647 361.177 91.3887 360.172 90.422C359.205 89.4167 357.91 88.914 356.286 88.914C354.816 88.914 353.366 89.262 351.936 89.958C350.544 90.6153 349.268 91.524 348.108 92.684C346.948 93.8053 346.02 95.0813 345.324 96.512C344.628 97.9427 344.28 99.412 344.28 100.92C345.169 101.384 346.29 101.693 347.644 101.848C348.997 101.964 350.505 102.022 352.168 102.022Z" fill="#FFABAB"/>
</svg>
