<svg width="500" height="200" viewBox="0 0 500 200" fill="none" xmlns="http://www.w3.org/2000/svg">
<rect width="500" height="200" fill="#DF4242"/>
<path d="M62.324 116.58C61.396 116.58 60.6807 116.232 60.178 115.536C59.714 114.84 59.3853 113.989 59.192 112.984C59.0373 111.979 58.9407 110.993 58.902 110.026C58.902 109.059 58.902 108.325 58.902 107.822V101.384C58.902 98.484 59.0567 95.4873 59.366 92.394C59.6753 89.3007 59.83 86.014 59.83 82.534C57.8193 82.534 56.4853 82.36 55.828 82.012C55.2093 81.664 54.9 80.91 54.9 79.75C54.9 79.0927 55.248 78.5127 55.944 78.01C56.64 77.5073 57.6067 77.1787 58.844 77.024C59.192 76.908 59.8493 76.792 60.816 76.676C61.8213 76.56 62.9427 76.4633 64.18 76.386C65.4173 76.27 66.5967 76.1927 67.718 76.154C68.878 76.0767 69.7867 76.038 70.444 76.038C74.272 76.038 77.404 76.3667 79.84 77.024C82.276 77.6427 84.074 78.706 85.234 80.214C86.4327 81.722 87.032 83.81 87.032 86.478C87.032 88.3727 86.5293 90.19 85.524 91.93C84.5573 93.6313 83.2427 95.1587 81.58 96.512C79.9173 97.8653 78.042 98.9673 75.954 99.818C73.866 100.669 71.7393 101.191 69.574 101.384C69.1873 101.423 68.7813 101.461 68.356 101.5C67.9307 101.5 67.4667 101.5 66.964 101.5C65.804 101.5 64.6633 101.442 63.542 101.326C63.542 103.453 63.5807 105.289 63.658 106.836C63.774 108.344 63.832 109.775 63.832 111.128V112.926C63.832 113.583 63.774 114.241 63.658 114.898C63.5033 115.555 63.31 116 63.078 116.232C62.8847 116.464 62.6333 116.58 62.324 116.58ZM70.618 96.512C71.5073 96.512 72.6287 96.222 73.982 95.642C75.3353 95.0233 76.6887 94.2307 78.042 93.264C79.3953 92.2587 80.5167 91.1567 81.406 89.958C82.334 88.7593 82.798 87.58 82.798 86.42C82.798 84.8347 82.392 83.6747 81.58 82.94C80.768 82.1667 79.7627 81.6447 78.564 81.374C77.404 81.1033 76.2247 80.8713 75.026 80.678C74.4073 80.562 73.7113 80.4847 72.938 80.446C72.2033 80.4073 71.4493 80.388 70.676 80.388C68.7813 80.388 67.254 80.4847 66.094 80.678C65.8233 80.7167 65.5527 80.852 65.282 81.084C65.0113 81.2773 64.8373 81.606 64.76 82.07C64.5667 83.5007 64.3927 85.086 64.238 86.826C64.0833 88.566 63.948 90.2867 63.832 91.988C63.716 93.6507 63.6193 95.1587 63.542 96.512H70.618ZM94.3722 116.58C93.9468 116.58 93.6182 116.387 93.3862 116C93.1928 115.613 93.0575 115.169 92.9802 114.666C92.9028 114.163 92.8255 113.738 92.7482 113.39V108.808C92.7482 106.488 92.8448 104.11 93.0382 101.674C93.2702 99.238 93.3862 96.86 93.3862 94.54C93.3862 93.4187 93.3088 92.2973 93.1542 91.176C93.0382 90.0547 92.9028 89.1073 92.7482 88.334C92.7095 88.1407 92.6708 87.9667 92.6322 87.812C92.6322 87.6573 92.6322 87.5027 92.6322 87.348C92.6322 86.8453 92.7868 86.5167 93.0962 86.362C93.4055 86.2073 93.9275 86.13 94.6622 86.13C95.5515 86.13 96.2088 86.5167 96.6342 87.29C97.0595 88.0633 97.3688 88.972 97.5622 90.016C97.7942 91.0213 98.0068 91.93 98.2002 92.742C99.3215 91.3887 100.54 90.4027 101.854 89.784C103.169 89.1653 104.271 88.624 105.16 88.16C106.011 87.7347 106.862 87.406 107.712 87.174C108.602 86.9033 109.588 86.768 110.67 86.768C111.753 86.768 112.758 87.0773 113.686 87.696C114.653 88.276 115.136 88.914 115.136 89.61C115.136 90.422 114.885 91.0213 114.382 91.408C113.88 91.7947 113.3 91.988 112.642 91.988C112.449 91.988 112.256 91.9687 112.062 91.93C111.908 91.8527 111.734 91.7947 111.54 91.756C111.27 91.64 110.96 91.5433 110.612 91.466C110.303 91.3887 109.994 91.35 109.684 91.35C108.486 91.35 107.326 91.582 106.204 92.046C105.083 92.4713 104.136 92.8967 103.362 93.322C102.009 94.0567 100.946 94.888 100.172 95.816C99.4375 96.7053 98.8188 97.5367 98.3162 98.31C98.0455 99.7793 97.8715 101.21 97.7942 102.602C97.7168 103.994 97.6588 105.077 97.6202 105.85C97.5815 106.662 97.5428 107.513 97.5042 108.402C97.4655 109.291 97.4075 110.181 97.3302 111.07C97.2528 111.998 97.1368 112.887 96.9822 113.738C96.8275 114.589 96.5568 115.285 96.1702 115.826C95.7835 116.329 95.1842 116.58 94.3722 116.58ZM131.45 116C128.666 116 126.075 115.401 123.678 114.202C121.281 112.965 119.347 111.263 117.878 109.098C116.447 106.894 115.732 104.342 115.732 101.442C115.732 99.47 116.138 97.6333 116.95 95.932C117.801 94.2307 118.883 92.6067 120.198 91.06C121.513 89.5133 122.885 88.0053 124.316 86.536C124.973 85.8787 125.727 85.4147 126.578 85.144C127.429 84.8347 128.337 84.68 129.304 84.68C131.972 84.68 134.485 84.97 136.844 85.55C139.203 86.0913 141.291 86.9807 143.108 88.218C144.964 89.4553 146.414 91.06 147.458 93.032C148.502 95.004 149.024 97.4013 149.024 100.224C149.024 102.544 148.521 104.671 147.516 106.604C146.549 108.537 145.215 110.219 143.514 111.65C141.851 113.042 139.976 114.125 137.888 114.898C135.8 115.633 133.654 116 131.45 116ZM130.174 111.708C131.953 111.708 133.712 111.457 135.452 110.954C137.231 110.451 138.835 109.697 140.266 108.692C141.697 107.648 142.837 106.353 143.688 104.806C144.577 103.259 145.022 101.423 145.022 99.296C145.022 97.3627 144.597 95.7193 143.746 94.366C142.934 92.974 141.851 91.8527 140.498 91.002C139.145 90.1127 137.675 89.4553 136.09 89.03C134.505 88.6047 132.958 88.392 131.45 88.392C130.831 88.392 130.135 88.45 129.362 88.566C128.627 88.6433 127.912 89.0107 127.216 89.668C126.365 90.48 125.495 91.3113 124.606 92.162C123.755 92.974 122.963 93.8827 122.228 94.888C121.493 95.8547 120.894 96.9373 120.43 98.136C119.966 99.3347 119.734 100.63 119.734 102.022C119.734 104.265 120.198 106.101 121.126 107.532C122.093 108.963 123.369 110.026 124.954 110.722C126.539 111.379 128.279 111.708 130.174 111.708ZM166.119 79.17C163.528 79.17 162.233 78.3773 162.233 76.792C162.233 75.6707 162.658 74.8007 163.509 74.182C164.398 73.5633 165.558 73.254 166.989 73.254C169.115 73.254 170.179 74.1433 170.179 75.922C170.179 76.966 169.792 77.778 169.019 78.358C168.284 78.8993 167.317 79.17 166.119 79.17ZM152.141 130.094C150.942 130.094 149.821 129.765 148.777 129.108C147.694 128.451 146.824 127.658 146.167 126.73C145.509 125.802 145.181 124.932 145.181 124.12C145.181 123.733 145.239 123.231 145.355 122.612C145.471 122.032 145.857 121.742 146.515 121.742C146.94 121.742 147.346 121.858 147.733 122.09C148.119 122.322 148.448 122.747 148.719 123.366C149.105 124.255 149.589 124.951 150.169 125.454C150.71 125.957 151.561 126.208 152.721 126.208C153.378 126.208 154.074 126.092 154.809 125.86C155.582 125.628 156.162 125.338 156.549 124.99C159.023 122.747 160.744 119.789 161.711 116.116C162.716 112.443 163.315 108.441 163.509 104.11C163.586 103.143 163.625 102.157 163.625 101.152C163.625 100.147 163.625 99.1607 163.625 98.194C163.625 96.7633 163.605 95.3907 163.567 94.076C163.528 92.7227 163.509 91.4273 163.509 90.19C163.509 89.2233 163.683 88.6047 164.031 88.334C164.379 88.0247 164.823 87.87 165.365 87.87C165.79 87.87 166.138 87.9473 166.409 88.102C166.679 88.2567 166.873 88.7593 166.989 89.61C167.221 91.3113 167.375 93.032 167.453 94.772C167.53 96.512 167.569 98.4067 167.569 100.456C167.569 102.003 167.511 103.82 167.395 105.908C167.279 107.957 167.047 110.103 166.699 112.346C166.351 114.55 165.829 116.696 165.133 118.784C164.475 120.911 163.567 122.825 162.407 124.526C161.285 126.227 159.874 127.581 158.173 128.586C156.51 129.591 154.499 130.094 152.141 130.094ZM191.659 116.87C188.72 116.87 186.052 116.445 183.655 115.594C181.296 114.705 179.421 113.332 178.029 111.476C176.637 109.581 175.941 107.145 175.941 104.168C175.941 101.809 176.328 99.5087 177.101 97.266C177.913 95.0233 179.054 92.9933 180.523 91.176C181.992 89.3587 183.752 87.928 185.801 86.884C187.85 85.8013 190.132 85.26 192.645 85.26C194.385 85.26 195.951 85.5887 197.343 86.246C198.774 86.9033 199.914 87.8313 200.765 89.03C201.616 90.2287 202.041 91.6593 202.041 93.322C202.041 95.1007 201.654 96.802 200.881 98.426C200.146 100.011 199.141 101.423 197.865 102.66C196.589 103.897 195.139 104.883 193.515 105.618C191.93 106.314 190.267 106.662 188.527 106.662C187.019 106.662 185.608 106.546 184.293 106.314C182.978 106.043 181.76 105.637 180.639 105.096C180.639 106.565 180.987 107.822 181.683 108.866C182.379 109.871 183.268 110.703 184.351 111.36C185.434 111.979 186.555 112.443 187.715 112.752C188.914 113.023 190.016 113.158 191.021 113.158C191.833 113.158 192.645 113.119 193.457 113.042C194.269 112.926 195.158 112.868 196.125 112.868C197.556 112.868 198.271 113.487 198.271 114.724C198.271 115.691 197.594 116.309 196.241 116.58C195.506 116.735 194.752 116.812 193.979 116.812C193.206 116.851 192.432 116.87 191.659 116.87ZM188.527 102.022C189.88 102.022 191.292 101.751 192.761 101.21C194.23 100.669 195.468 99.818 196.473 98.658C197.517 97.498 198.039 96.0287 198.039 94.25C198.039 92.6647 197.536 91.3887 196.531 90.422C195.564 89.4167 194.269 88.914 192.645 88.914C191.176 88.914 189.726 89.262 188.295 89.958C186.903 90.6153 185.627 91.524 184.467 92.684C183.307 93.8053 182.379 95.0813 181.683 96.512C180.987 97.9427 180.639 99.412 180.639 100.92C181.528 101.384 182.65 101.693 184.003 101.848C185.356 101.964 186.864 102.022 188.527 102.022ZM220.816 115.13C218.11 115.13 215.828 114.473 213.972 113.158C212.116 111.843 210.705 110.084 209.738 107.88C208.772 105.637 208.288 103.201 208.288 100.572C208.288 97.6333 208.946 94.946 210.26 92.51C211.575 90.074 213.392 88.1213 215.712 86.652C218.032 85.144 220.662 84.39 223.6 84.39C224.412 84.39 225.36 84.448 226.442 84.564C227.525 84.68 228.569 84.912 229.574 85.26C230.58 85.608 231.411 86.1107 232.068 86.768C232.726 87.4253 233.054 88.2953 233.054 89.378C233.054 89.8033 232.88 90.1707 232.532 90.48C232.184 90.7893 231.624 90.944 230.85 90.944C230.232 90.944 229.652 90.7893 229.11 90.48C228.608 90.1707 228.124 89.8613 227.66 89.552C226.964 89.088 226.23 88.682 225.456 88.334C224.722 87.9473 223.91 87.754 223.02 87.754C221.319 87.754 219.83 88.1987 218.554 89.088C217.278 89.9387 216.215 91.06 215.364 92.452C214.514 93.8053 213.876 95.2553 213.45 96.802C213.025 98.31 212.812 99.702 212.812 100.978C212.812 103.491 213.296 105.502 214.262 107.01C215.268 108.479 216.582 109.543 218.206 110.2C219.869 110.819 221.667 111.128 223.6 111.128C225.456 111.128 227.138 110.799 228.646 110.142C230.193 109.485 231.759 108.789 233.344 108.054C233.886 107.783 234.33 107.648 234.678 107.648C235.142 107.648 235.452 107.841 235.606 108.228C235.761 108.576 235.838 109.021 235.838 109.562C235.838 110.567 235.432 111.418 234.62 112.114C233.808 112.771 232.784 113.313 231.546 113.738C230.309 114.125 228.975 114.434 227.544 114.666C226.152 114.859 224.857 114.995 223.658 115.072C222.46 115.111 221.512 115.13 220.816 115.13ZM251.562 117.16C250.595 117.16 249.88 116.851 249.416 116.232C248.952 115.613 248.643 114.84 248.488 113.912C248.372 112.984 248.314 112.075 248.314 111.186C248.314 110.761 248.314 110.355 248.314 109.968C248.353 109.581 248.372 109.253 248.372 108.982C248.372 106.198 248.43 103.395 248.546 100.572C248.662 97.7107 248.72 94.598 248.72 91.234C247.289 91.234 246.11 91.292 245.182 91.408C244.254 91.524 243.326 91.582 242.398 91.582C241.779 91.582 241.354 91.466 241.122 91.234C240.89 91.002 240.774 90.6153 240.774 90.074C240.774 89.4553 240.851 89.0107 241.006 88.74C241.199 88.4307 241.431 88.2373 241.702 88.16L247.386 87C248.237 86.8067 248.836 86.42 249.184 85.84C249.571 85.26 249.841 84.6993 249.996 84.158C250.073 83.8487 250.112 83.5587 250.112 83.288C250.151 82.9787 250.189 82.65 250.228 82.302C250.228 81.9927 250.228 81.7027 250.228 81.432C250.267 81.1227 250.286 80.8327 250.286 80.562C250.363 79.3247 250.557 78.416 250.866 77.836C251.214 77.256 251.871 76.966 252.838 76.966C253.727 76.966 254.249 77.314 254.404 78.01C254.597 78.706 254.694 79.3633 254.694 79.982C254.694 80.4073 254.655 81.0647 254.578 81.954C254.539 82.8047 254.501 83.6553 254.462 84.506C254.423 85.3567 254.385 85.9753 254.346 86.362H263.626C263.974 86.362 264.322 86.594 264.67 87.058C265.018 87.522 265.192 88.1213 265.192 88.856C265.192 89.088 265.095 89.3973 264.902 89.784C264.709 90.132 264.477 90.306 264.206 90.306C263.819 90.306 263.085 90.3253 262.002 90.364C260.958 90.364 259.817 90.3833 258.58 90.422C257.381 90.4607 256.318 90.4993 255.39 90.538C254.462 90.5767 253.94 90.6347 253.824 90.712C253.631 93.032 253.476 95.2747 253.36 97.44C253.283 99.5667 253.244 101.635 253.244 103.646C253.244 104.961 253.263 106.237 253.302 107.474C253.379 108.673 253.437 109.871 253.476 111.07C253.476 111.263 253.495 111.553 253.534 111.94C253.573 112.327 253.592 112.752 253.592 113.216C253.592 114.105 253.457 114.995 253.186 115.884C252.954 116.735 252.413 117.16 251.562 117.16ZM294.133 115.71C293.437 115.71 292.973 115.633 292.741 115.478C292.547 115.285 292.451 114.859 292.451 114.202C292.451 113.506 292.586 113.042 292.857 112.81C293.166 112.539 293.495 112.327 293.843 112.172C294.191 112.017 294.519 111.863 294.829 111.708C295.138 111.553 295.428 111.341 295.699 111.07C296.395 110.451 296.743 109.62 296.743 108.576C296.743 108.035 296.723 107.339 296.685 106.488C296.685 105.599 296.685 104.651 296.685 103.646C296.685 102.061 296.685 100.417 296.685 98.716C296.723 96.976 296.781 95.352 296.859 93.844C296.936 92.336 297.033 91.1567 297.149 90.306C297.265 89.3007 297.361 88.2953 297.439 87.29C297.555 86.2847 297.671 85.26 297.787 84.216V82.302C297.4 81.8767 297.071 81.5673 296.801 81.374C296.53 81.142 296.279 80.9487 296.047 80.794L294.945 80.098C294.674 79.9433 294.461 79.7887 294.307 79.634C294.191 79.4407 294.133 79.1507 294.133 78.764C294.133 77.9907 294.558 77.604 295.409 77.604C296.066 77.604 296.665 77.662 297.207 77.778C297.787 77.8553 298.328 77.894 298.831 77.894H299.469C299.662 77.894 300.145 77.8553 300.919 77.778C301.692 77.662 302.504 77.546 303.355 77.43C304.128 77.314 304.863 77.2173 305.559 77.14C306.255 77.024 306.68 76.966 306.835 76.966H307.183C307.801 76.966 308.227 77.082 308.459 77.314C308.691 77.5073 308.807 77.894 308.807 78.474C308.807 79.0927 308.691 79.4987 308.459 79.692C308.265 79.8853 307.975 80.0207 307.589 80.098C307.279 80.1753 306.951 80.2527 306.603 80.33C306.255 80.4073 305.926 80.4847 305.617 80.562C305.23 80.678 304.824 80.852 304.399 81.084C304.012 81.316 303.625 81.7027 303.239 82.244C302.968 83.7133 302.697 85.1827 302.427 86.652C302.195 88.0827 301.982 89.5327 301.789 91.002C301.325 94.9847 301.093 99.0447 301.093 103.182C301.093 103.917 301.093 104.555 301.093 105.096C301.131 105.637 301.17 106.217 301.209 106.836C301.247 107.455 301.325 108.247 301.441 109.214C301.673 110.026 302.369 110.548 303.529 110.78C303.799 110.819 304.089 110.877 304.399 110.954C304.747 110.993 305.095 111.051 305.443 111.128C306.023 111.244 306.448 111.418 306.719 111.65C306.989 111.843 307.125 112.191 307.125 112.694C307.125 113.081 306.97 113.409 306.661 113.68C306.39 113.912 305.887 114.125 305.153 114.318C304.805 114.395 304.437 114.453 304.051 114.492C303.664 114.531 303.277 114.569 302.891 114.608L300.687 114.782C300.571 114.821 300.416 114.84 300.223 114.84C300.029 114.84 299.797 114.879 299.527 114.956C299.295 114.995 299.024 115.053 298.715 115.13C298.444 115.169 298.154 115.227 297.845 115.304C297.342 115.381 296.839 115.478 296.337 115.594C295.873 115.671 295.563 115.71 295.409 115.71H294.133ZM321.9 116.87C319.193 116.174 317.144 114.743 315.752 112.578C314.36 110.413 313.664 108.015 313.664 105.386C313.664 102.911 314.205 100.533 315.288 98.252C316.409 95.932 317.898 93.8633 319.754 92.046C321.61 90.19 323.717 88.74 326.076 87.696C328.473 86.6133 330.948 86.072 333.5 86.072C335.008 86.072 336.187 86.1107 337.038 86.188C337.888 86.2653 338.855 86.5167 339.938 86.942C339.976 86.362 340.073 85.55 340.228 84.506C340.382 83.462 340.556 82.36 340.75 81.2C340.943 80.0013 341.098 78.938 341.214 78.01C341.33 77.1593 341.446 76.3087 341.562 75.458C341.716 74.5687 341.929 73.718 342.2 72.906C342.818 71.2047 343.708 70.354 344.868 70.354C345.757 70.354 346.202 71.0307 346.202 72.384C346.202 72.5773 346.182 72.8093 346.144 73.08C346.144 73.312 346.124 73.5827 346.086 73.892C345.467 78.5707 345.003 83.2107 344.694 87.812C344.423 92.3747 344.288 96.9373 344.288 101.5C344.288 103.433 344.346 105.347 344.462 107.242C344.578 109.098 344.713 111.012 344.868 112.984C344.945 114.028 344.752 114.859 344.288 115.478C343.862 116.058 343.379 116.348 342.838 116.348C342.064 116.348 341.542 115.865 341.272 114.898C340.885 113.661 340.576 112.385 340.344 111.07C340.112 109.717 339.957 108.595 339.88 107.706C338.449 109.291 336.902 110.78 335.24 112.172C333.577 113.564 331.837 114.705 330.02 115.594C328.241 116.445 326.404 116.87 324.51 116.87H321.9ZM324.162 113.274C326.018 113.274 327.854 112.81 329.672 111.882C331.528 110.915 333.229 109.678 334.776 108.17C336.322 106.623 337.56 104.98 338.488 103.24C339.416 101.461 339.88 99.76 339.88 98.136C339.88 96.6667 339.648 95.3133 339.184 94.076C338.758 92.8387 338.12 91.8527 337.27 91.118C336.458 90.3447 335.472 89.958 334.312 89.958C332.146 89.958 330.078 90.3833 328.106 91.234C326.172 92.0847 324.432 93.2447 322.886 94.714C321.378 96.1833 320.179 97.8653 319.29 99.76C318.439 101.655 318.014 103.627 318.014 105.676V108.286C318.4 109.755 319.096 110.954 320.102 111.882C321.107 112.81 322.46 113.274 324.162 113.274ZM368.208 116.87C365.269 116.87 362.601 116.445 360.204 115.594C357.845 114.705 355.97 113.332 354.578 111.476C353.186 109.581 352.49 107.145 352.49 104.168C352.49 101.809 352.877 99.5087 353.65 97.266C354.462 95.0233 355.603 92.9933 357.072 91.176C358.541 89.3587 360.301 87.928 362.35 86.884C364.399 85.8013 366.681 85.26 369.194 85.26C370.934 85.26 372.5 85.5887 373.892 86.246C375.323 86.9033 376.463 87.8313 377.314 89.03C378.165 90.2287 378.59 91.6593 378.59 93.322C378.59 95.1007 378.203 96.802 377.43 98.426C376.695 100.011 375.69 101.423 374.414 102.66C373.138 103.897 371.688 104.883 370.064 105.618C368.479 106.314 366.816 106.662 365.076 106.662C363.568 106.662 362.157 106.546 360.842 106.314C359.527 106.043 358.309 105.637 357.188 105.096C357.188 106.565 357.536 107.822 358.232 108.866C358.928 109.871 359.817 110.703 360.9 111.36C361.983 111.979 363.104 112.443 364.264 112.752C365.463 113.023 366.565 113.158 367.57 113.158C368.382 113.158 369.194 113.119 370.006 113.042C370.818 112.926 371.707 112.868 372.674 112.868C374.105 112.868 374.82 113.487 374.82 114.724C374.82 115.691 374.143 116.309 372.79 116.58C372.055 116.735 371.301 116.812 370.528 116.812C369.755 116.851 368.981 116.87 368.208 116.87ZM365.076 102.022C366.429 102.022 367.841 101.751 369.31 101.21C370.779 100.669 372.017 99.818 373.022 98.658C374.066 97.498 374.588 96.0287 374.588 94.25C374.588 92.6647 374.085 91.3887 373.08 90.422C372.113 89.4167 370.818 88.914 369.194 88.914C367.725 88.914 366.275 89.262 364.844 89.958C363.452 90.6153 362.176 91.524 361.016 92.684C359.856 93.8053 358.928 95.0813 358.232 96.512C357.536 97.9427 357.188 99.412 357.188 100.92C358.077 101.384 359.199 101.693 360.552 101.848C361.905 101.964 363.413 102.022 365.076 102.022ZM395.161 116.58C393.421 116.58 391.797 116.193 390.289 115.42C388.82 114.647 387.582 113.603 386.577 112.288C385.572 110.973 384.914 109.504 384.605 107.88V104.806C384.605 102.602 385.011 100.379 385.823 98.136C386.635 95.8933 387.756 93.8247 389.187 91.93C390.656 90.0353 392.377 88.5273 394.349 87.406C396.36 86.246 398.525 85.666 400.845 85.666C402.314 85.666 403.726 85.9173 405.079 86.42C406.471 86.9227 407.708 87.5027 408.791 88.16C409.023 86.536 409.313 85.4147 409.661 84.796C410.009 84.1773 410.608 83.868 411.459 83.868C412.116 83.868 412.58 84.0807 412.851 84.506C413.122 84.8927 413.257 85.5887 413.257 86.594C413.257 88.914 413.199 91.1953 413.083 93.438C413.006 95.642 412.967 97.904 412.967 100.224C412.967 102.08 413.064 103.994 413.257 105.966C413.489 107.938 413.605 109.833 413.605 111.65C413.605 112.23 413.605 112.81 413.605 113.39C413.644 113.97 413.547 114.453 413.315 114.84C413.122 115.188 412.696 115.362 412.039 115.362C411.111 115.362 410.415 114.937 409.951 114.086C409.526 113.197 409.236 112.133 409.081 110.896C408.926 109.659 408.772 108.499 408.617 107.416C408.23 108.46 407.573 109.485 406.645 110.49C405.756 111.495 404.847 112.365 403.919 113.1C403.03 113.796 402.334 114.299 401.831 114.608C401.367 114.879 401.367 114.84 401.831 114.492C400.98 115.111 399.917 115.613 398.641 116C397.404 116.387 396.244 116.58 395.161 116.58ZM394.581 112.926C396.321 112.926 397.945 112.423 399.453 111.418C400.961 110.413 402.276 109.117 403.397 107.532C404.557 105.947 405.446 104.284 406.065 102.544C406.722 100.804 407.051 99.1993 407.051 97.73C407.051 96.9953 406.954 96.164 406.761 95.236C406.606 94.2693 406.297 93.3413 405.833 92.452C405.369 91.5627 404.731 90.828 403.919 90.248C403.146 89.668 402.121 89.378 400.845 89.378C399.182 89.378 397.597 89.9193 396.089 91.002C394.581 92.046 393.228 93.3993 392.029 95.062C390.869 96.686 389.96 98.368 389.303 100.108C388.646 101.848 388.317 103.414 388.317 104.806C388.317 105.85 388.491 107.01 388.839 108.286C389.226 109.562 389.864 110.664 390.753 111.592C391.681 112.481 392.957 112.926 394.581 112.926ZM431.491 116.87C430.447 116.87 429.229 116.812 427.837 116.696C426.445 116.58 425.072 116.329 423.719 115.942C422.404 115.555 421.302 114.937 420.413 114.086C419.562 113.235 419.137 112.095 419.137 110.664C419.137 108.808 419.871 107.88 421.341 107.88C421.843 107.88 422.23 108.054 422.501 108.402L423.023 109.098C423.139 109.253 423.235 109.427 423.313 109.62C423.429 109.775 423.564 109.949 423.719 110.142C424.26 110.954 425.033 111.708 426.039 112.404C427.044 113.1 428.552 113.448 430.563 113.448C431.723 113.448 432.999 113.274 434.391 112.926C435.783 112.539 436.962 111.94 437.929 111.128C438.934 110.316 439.437 109.233 439.437 107.88C439.437 106.759 439.089 105.869 438.393 105.212C437.697 104.555 436.923 104.033 436.073 103.646C435.686 103.453 435.241 103.259 434.739 103.066C434.275 102.873 433.772 102.699 433.231 102.544C432.728 102.389 432.225 102.235 431.723 102.08C431.22 101.925 430.698 101.771 430.157 101.616C428.765 101.152 427.489 100.63 426.329 100.05C425.207 99.4313 424.299 98.658 423.603 97.73C422.945 96.802 422.617 95.6227 422.617 94.192C422.617 92.4133 423.197 90.9247 424.357 89.726C425.555 88.5273 427.044 87.638 428.823 87.058C430.64 86.4393 432.477 86.13 434.333 86.13C435.029 86.13 435.841 86.188 436.769 86.304C437.697 86.42 438.605 86.6327 439.495 86.942C440.384 87.2513 441.119 87.696 441.699 88.276C442.317 88.8173 442.627 89.552 442.627 90.48C442.627 90.944 442.53 91.35 442.337 91.698C442.182 92.0073 441.931 92.162 441.583 92.162C441.351 92.162 441.157 92.1233 441.003 92.046C439.301 91.2727 437.871 90.712 436.711 90.364C435.589 90.016 434.603 89.842 433.753 89.842C433.25 89.842 432.593 89.9193 431.781 90.074C431.007 90.19 430.234 90.4027 429.461 90.712C428.687 90.9827 428.03 91.3887 427.489 91.93C426.986 92.4327 426.735 93.09 426.735 93.902C426.735 95.3713 427.856 96.5893 430.099 97.556C430.911 97.8653 431.819 98.1747 432.825 98.484C433.83 98.7933 434.874 99.1607 435.957 99.586C437.349 100.089 438.625 100.688 439.785 101.384C440.945 102.08 441.853 102.931 442.511 103.936C443.207 104.903 443.555 106.121 443.555 107.59C443.555 109.794 442.994 111.592 441.873 112.984C440.751 114.337 439.282 115.323 437.465 115.942C435.647 116.561 433.656 116.87 431.491 116.87Z" fill="#FFABAB"/>
</svg>
