<svg width="500" height="200" viewBox="0 0 500 200" fill="none" xmlns="http://www.w3.org/2000/svg">
<rect width="500" height="200" fill="#DF4242"/>
<path d="M140.847 116C140.19 116 139.745 115.865 139.513 115.594C139.281 115.285 139.03 114.801 138.759 114.144C138.682 113.989 138.643 113.873 138.643 113.796C138.604 113.255 138.585 112.694 138.585 112.114C138.585 111.534 138.585 110.973 138.585 110.432C138.585 106.875 138.778 103.337 139.165 99.818C139.552 96.2993 139.745 92.7807 139.745 89.262C139.745 88.2567 139.726 87.2707 139.687 86.304C139.687 85.2987 139.59 84.3127 139.397 83.346L139.281 82.766L138.701 82.592C137.85 82.3213 137.135 82.012 136.555 81.664C136.014 81.316 135.743 80.794 135.743 80.098C135.743 79.6727 136.168 79.1893 137.019 78.648C137.908 78.1067 139.126 77.662 140.673 77.314C142.142 77.0047 143.65 76.8307 145.197 76.792C146.744 76.7147 147.942 76.676 148.793 76.676C150.842 76.676 152.93 76.85 155.057 77.198C157.184 77.546 159.175 78.126 161.031 78.938C162.887 79.7113 164.453 80.7747 165.729 82.128C167.044 83.4427 167.875 85.1053 168.223 87.116C168.339 87.6187 168.397 88.1793 168.397 88.798C168.397 90.8087 167.875 92.452 166.831 93.728C165.826 94.9653 164.492 96.0093 162.829 96.86C161.205 97.672 159.426 98.4453 157.493 99.18L155.927 99.76L157.493 101.152C157.918 101.539 158.363 101.945 158.827 102.37C159.33 102.757 159.794 103.182 160.219 103.646L162.829 106.488C163.602 107.339 164.356 108.286 165.091 109.33C165.826 110.335 166.193 111.321 166.193 112.288C166.193 113.951 165.362 114.782 163.699 114.782C163.158 114.782 162.829 114.724 162.713 114.608C162.713 114.608 162.694 114.608 162.655 114.608C162.655 114.569 162.636 114.55 162.597 114.55C162.558 114.473 162.462 114.357 162.307 114.202C162.191 114.086 162.056 113.951 161.901 113.796C161.746 113.641 161.611 113.467 161.495 113.274C160.606 111.689 159.62 110.297 158.537 109.098C157.454 107.861 156.004 106.469 154.187 104.922C153.684 104.458 153.008 103.955 152.157 103.414C151.306 102.873 150.475 102.293 149.663 101.674C148.812 101.017 148.155 100.398 147.691 99.818C147.227 99.238 146.995 98.7353 146.995 98.31C146.995 98.0393 147.15 97.9233 147.459 97.962C147.768 98.0007 148.29 97.8653 149.025 97.556C149.76 97.2467 150.591 96.976 151.519 96.744C152.447 96.4733 153.394 96.2027 154.361 95.932C155.328 95.6227 156.294 95.3133 157.261 95.004C158.266 94.656 159.175 94.2307 159.987 93.728C160.799 93.1867 161.65 92.4713 162.539 91.582C163.467 90.654 163.931 89.6487 163.931 88.566C163.931 87.3673 163.564 86.3233 162.829 85.434C162.133 84.5447 161.263 83.81 160.219 83.23C159.214 82.6113 158.247 82.186 157.319 81.954C156.198 81.6447 154.864 81.432 153.317 81.316C151.809 81.2 150.436 81.142 149.199 81.142H145.545C145.081 81.142 144.849 81.3933 144.849 81.896L143.283 109.794C143.244 110.065 143.225 110.393 143.225 110.78C143.264 111.128 143.264 111.495 143.225 111.882C143.148 112.617 143.032 113.332 142.877 114.028C142.529 115.343 141.852 116 140.847 116ZM189.746 116.87C186.807 116.87 184.139 116.445 181.742 115.594C179.383 114.705 177.508 113.332 176.116 111.476C174.724 109.581 174.028 107.145 174.028 104.168C174.028 101.809 174.415 99.5087 175.188 97.266C176 95.0233 177.141 92.9933 178.61 91.176C180.079 89.3587 181.839 87.928 183.888 86.884C185.937 85.8013 188.219 85.26 190.732 85.26C192.472 85.26 194.038 85.5887 195.43 86.246C196.861 86.9033 198.001 87.8313 198.852 89.03C199.703 90.2287 200.128 91.6593 200.128 93.322C200.128 95.1007 199.741 96.802 198.968 98.426C198.233 100.011 197.228 101.423 195.952 102.66C194.676 103.897 193.226 104.883 191.602 105.618C190.017 106.314 188.354 106.662 186.614 106.662C185.106 106.662 183.695 106.546 182.38 106.314C181.065 106.043 179.847 105.637 178.726 105.096C178.726 106.565 179.074 107.822 179.77 108.866C180.466 109.871 181.355 110.703 182.438 111.36C183.521 111.979 184.642 112.443 185.802 112.752C187.001 113.023 188.103 113.158 189.108 113.158C189.92 113.158 190.732 113.119 191.544 113.042C192.356 112.926 193.245 112.868 194.212 112.868C195.643 112.868 196.358 113.487 196.358 114.724C196.358 115.691 195.681 116.309 194.328 116.58C193.593 116.735 192.839 116.812 192.066 116.812C191.293 116.851 190.519 116.87 189.746 116.87ZM186.614 102.022C187.967 102.022 189.379 101.751 190.848 101.21C192.317 100.669 193.555 99.818 194.56 98.658C195.604 97.498 196.126 96.0287 196.126 94.25C196.126 92.6647 195.623 91.3887 194.618 90.422C193.651 89.4167 192.356 88.914 190.732 88.914C189.263 88.914 187.813 89.262 186.382 89.958C184.99 90.6153 183.714 91.524 182.554 92.684C181.394 93.8053 180.466 95.0813 179.77 96.512C179.074 97.9427 178.726 99.412 178.726 100.92C179.615 101.384 180.737 101.693 182.09 101.848C183.443 101.964 184.951 102.022 186.614 102.022ZM216.699 116.58C214.959 116.58 213.335 116.193 211.827 115.42C210.358 114.647 209.12 113.603 208.115 112.288C207.11 110.973 206.452 109.504 206.143 107.88V104.806C206.143 102.602 206.549 100.379 207.361 98.136C208.173 95.8933 209.294 93.8247 210.725 91.93C212.194 90.0353 213.915 88.5273 215.887 87.406C217.898 86.246 220.063 85.666 222.383 85.666C223.852 85.666 225.264 85.9173 226.617 86.42C228.009 86.9227 229.246 87.5027 230.329 88.16C230.561 86.536 230.851 85.4147 231.199 84.796C231.547 84.1773 232.146 83.868 232.997 83.868C233.654 83.868 234.118 84.0807 234.389 84.506C234.66 84.8927 234.795 85.5887 234.795 86.594C234.795 88.914 234.737 91.1953 234.621 93.438C234.544 95.642 234.505 97.904 234.505 100.224C234.505 102.08 234.602 103.994 234.795 105.966C235.027 107.938 235.143 109.833 235.143 111.65C235.143 112.23 235.143 112.81 235.143 113.39C235.182 113.97 235.085 114.453 234.853 114.84C234.66 115.188 234.234 115.362 233.577 115.362C232.649 115.362 231.953 114.937 231.489 114.086C231.064 113.197 230.774 112.133 230.619 110.896C230.464 109.659 230.31 108.499 230.155 107.416C229.768 108.46 229.111 109.485 228.183 110.49C227.294 111.495 226.385 112.365 225.457 113.1C224.568 113.796 223.872 114.299 223.369 114.608C222.905 114.879 222.905 114.84 223.369 114.492C222.518 115.111 221.455 115.613 220.179 116C218.942 116.387 217.782 116.58 216.699 116.58ZM216.119 112.926C217.859 112.926 219.483 112.423 220.991 111.418C222.499 110.413 223.814 109.117 224.935 107.532C226.095 105.947 226.984 104.284 227.603 102.544C228.26 100.804 228.589 99.1993 228.589 97.73C228.589 96.9953 228.492 96.164 228.299 95.236C228.144 94.2693 227.835 93.3413 227.371 92.452C226.907 91.5627 226.269 90.828 225.457 90.248C224.684 89.668 223.659 89.378 222.383 89.378C220.72 89.378 219.135 89.9193 217.627 91.002C216.119 92.046 214.766 93.3993 213.567 95.062C212.407 96.686 211.498 98.368 210.841 100.108C210.184 101.848 209.855 103.414 209.855 104.806C209.855 105.85 210.029 107.01 210.377 108.286C210.764 109.562 211.402 110.664 212.291 111.592C213.219 112.481 214.495 112.926 216.119 112.926ZM254.247 115.13C251.54 115.13 249.259 114.473 247.403 113.158C245.547 111.843 244.136 110.084 243.169 107.88C242.202 105.637 241.719 103.201 241.719 100.572C241.719 97.6333 242.376 94.946 243.691 92.51C245.006 90.074 246.823 88.1213 249.143 86.652C251.463 85.144 254.092 84.39 257.031 84.39C257.843 84.39 258.79 84.448 259.873 84.564C260.956 84.68 262 84.912 263.005 85.26C264.01 85.608 264.842 86.1107 265.499 86.768C266.156 87.4253 266.485 88.2953 266.485 89.378C266.485 89.8033 266.311 90.1707 265.963 90.48C265.615 90.7893 265.054 90.944 264.281 90.944C263.662 90.944 263.082 90.7893 262.541 90.48C262.038 90.1707 261.555 89.8613 261.091 89.552C260.395 89.088 259.66 88.682 258.887 88.334C258.152 87.9473 257.34 87.754 256.451 87.754C254.75 87.754 253.261 88.1987 251.985 89.088C250.709 89.9387 249.646 91.06 248.795 92.452C247.944 93.8053 247.306 95.2553 246.881 96.802C246.456 98.31 246.243 99.702 246.243 100.978C246.243 103.491 246.726 105.502 247.693 107.01C248.698 108.479 250.013 109.543 251.637 110.2C253.3 110.819 255.098 111.128 257.031 111.128C258.887 111.128 260.569 110.799 262.077 110.142C263.624 109.485 265.19 108.789 266.775 108.054C267.316 107.783 267.761 107.648 268.109 107.648C268.573 107.648 268.882 107.841 269.037 108.228C269.192 108.576 269.269 109.021 269.269 109.562C269.269 110.567 268.863 111.418 268.051 112.114C267.239 112.771 266.214 113.313 264.977 113.738C263.74 114.125 262.406 114.434 260.975 114.666C259.583 114.859 258.288 114.995 257.089 115.072C255.89 115.111 254.943 115.13 254.247 115.13ZM284.993 117.16C284.026 117.16 283.311 116.851 282.847 116.232C282.383 115.613 282.073 114.84 281.919 113.912C281.803 112.984 281.745 112.075 281.745 111.186C281.745 110.761 281.745 110.355 281.745 109.968C281.783 109.581 281.803 109.253 281.803 108.982C281.803 106.198 281.861 103.395 281.977 100.572C282.093 97.7107 282.151 94.598 282.151 91.234C280.72 91.234 279.541 91.292 278.613 91.408C277.685 91.524 276.757 91.582 275.829 91.582C275.21 91.582 274.785 91.466 274.553 91.234C274.321 91.002 274.205 90.6153 274.205 90.074C274.205 89.4553 274.282 89.0107 274.437 88.74C274.63 88.4307 274.862 88.2373 275.133 88.16L280.817 87C281.667 86.8067 282.267 86.42 282.615 85.84C283.001 85.26 283.272 84.6993 283.427 84.158C283.504 83.8487 283.543 83.5587 283.543 83.288C283.581 82.9787 283.62 82.65 283.659 82.302C283.659 81.9927 283.659 81.7027 283.659 81.432C283.697 81.1227 283.717 80.8327 283.717 80.562C283.794 79.3247 283.987 78.416 284.297 77.836C284.645 77.256 285.302 76.966 286.269 76.966C287.158 76.966 287.68 77.314 287.835 78.01C288.028 78.706 288.125 79.3633 288.125 79.982C288.125 80.4073 288.086 81.0647 288.009 81.954C287.97 82.8047 287.931 83.6553 287.893 84.506C287.854 85.3567 287.815 85.9753 287.777 86.362H297.057C297.405 86.362 297.753 86.594 298.101 87.058C298.449 87.522 298.623 88.1213 298.623 88.856C298.623 89.088 298.526 89.3973 298.333 89.784C298.139 90.132 297.907 90.306 297.637 90.306C297.25 90.306 296.515 90.3253 295.433 90.364C294.389 90.364 293.248 90.3833 292.011 90.422C290.812 90.4607 289.749 90.4993 288.821 90.538C287.893 90.5767 287.371 90.6347 287.255 90.712C287.061 93.032 286.907 95.2747 286.791 97.44C286.713 99.5667 286.675 101.635 286.675 103.646C286.675 104.961 286.694 106.237 286.733 107.474C286.81 108.673 286.868 109.871 286.907 111.07C286.907 111.263 286.926 111.553 286.965 111.94C287.003 112.327 287.023 112.752 287.023 113.216C287.023 114.105 286.887 114.995 286.617 115.884C286.385 116.735 285.843 117.16 284.993 117.16ZM311.403 116.058C310.514 116.058 309.837 115.768 309.373 115.188C308.948 114.608 308.735 113.951 308.735 113.216C308.735 112.249 309.045 111.341 309.663 110.49C310.321 109.639 311.21 109.214 312.331 109.214C313.221 109.214 313.878 109.504 314.303 110.084C314.767 110.625 314.999 111.283 314.999 112.056C314.999 113.023 314.671 113.931 314.013 114.782C313.395 115.633 312.525 116.058 311.403 116.058ZM331.239 79.17C328.648 79.17 327.353 78.3773 327.353 76.792C327.353 75.6707 327.778 74.8007 328.629 74.182C329.518 73.5633 330.678 73.254 332.109 73.254C334.235 73.254 335.299 74.1433 335.299 75.922C335.299 76.966 334.912 77.778 334.139 78.358C333.404 78.8993 332.437 79.17 331.239 79.17ZM317.261 130.094C316.062 130.094 314.941 129.765 313.897 129.108C312.814 128.451 311.944 127.658 311.287 126.73C310.629 125.802 310.301 124.932 310.301 124.12C310.301 123.733 310.359 123.231 310.475 122.612C310.591 122.032 310.977 121.742 311.635 121.742C312.06 121.742 312.466 121.858 312.853 122.09C313.239 122.322 313.568 122.747 313.839 123.366C314.225 124.255 314.709 124.951 315.289 125.454C315.83 125.957 316.681 126.208 317.841 126.208C318.498 126.208 319.194 126.092 319.929 125.86C320.702 125.628 321.282 125.338 321.669 124.99C324.143 122.747 325.864 119.789 326.831 116.116C327.836 112.443 328.435 108.441 328.629 104.11C328.706 103.143 328.745 102.157 328.745 101.152C328.745 100.147 328.745 99.1607 328.745 98.194C328.745 96.7633 328.725 95.3907 328.687 94.076C328.648 92.7227 328.629 91.4273 328.629 90.19C328.629 89.2233 328.803 88.6047 329.151 88.334C329.499 88.0247 329.943 87.87 330.485 87.87C330.91 87.87 331.258 87.9473 331.529 88.102C331.799 88.2567 331.993 88.7593 332.109 89.61C332.341 91.3113 332.495 93.032 332.573 94.772C332.65 96.512 332.689 98.4067 332.689 100.456C332.689 102.003 332.631 103.82 332.515 105.908C332.399 107.957 332.167 110.103 331.819 112.346C331.471 114.55 330.949 116.696 330.253 118.784C329.595 120.911 328.687 122.825 327.527 124.526C326.405 126.227 324.994 127.581 323.293 128.586C321.63 129.591 319.619 130.094 317.261 130.094ZM352.603 116.87C351.559 116.87 350.341 116.812 348.949 116.696C347.557 116.58 346.184 116.329 344.831 115.942C343.516 115.555 342.414 114.937 341.525 114.086C340.674 113.235 340.249 112.095 340.249 110.664C340.249 108.808 340.984 107.88 342.453 107.88C342.956 107.88 343.342 108.054 343.613 108.402L344.135 109.098C344.251 109.253 344.348 109.427 344.425 109.62C344.541 109.775 344.676 109.949 344.831 110.142C345.372 110.954 346.146 111.708 347.151 112.404C348.156 113.1 349.664 113.448 351.675 113.448C352.835 113.448 354.111 113.274 355.503 112.926C356.895 112.539 358.074 111.94 359.041 111.128C360.046 110.316 360.549 109.233 360.549 107.88C360.549 106.759 360.201 105.869 359.505 105.212C358.809 104.555 358.036 104.033 357.185 103.646C356.798 103.453 356.354 103.259 355.851 103.066C355.387 102.873 354.884 102.699 354.343 102.544C353.84 102.389 353.338 102.235 352.835 102.08C352.332 101.925 351.81 101.771 351.269 101.616C349.877 101.152 348.601 100.63 347.441 100.05C346.32 99.4313 345.411 98.658 344.715 97.73C344.058 96.802 343.729 95.6227 343.729 94.192C343.729 92.4133 344.309 90.9247 345.469 89.726C346.668 88.5273 348.156 87.638 349.935 87.058C351.752 86.4393 353.589 86.13 355.445 86.13C356.141 86.13 356.953 86.188 357.881 86.304C358.809 86.42 359.718 86.6327 360.607 86.942C361.496 87.2513 362.231 87.696 362.811 88.276C363.43 88.8173 363.739 89.552 363.739 90.48C363.739 90.944 363.642 91.35 363.449 91.698C363.294 92.0073 363.043 92.162 362.695 92.162C362.463 92.162 362.27 92.1233 362.115 92.046C360.414 91.2727 358.983 90.712 357.823 90.364C356.702 90.016 355.716 89.842 354.865 89.842C354.362 89.842 353.705 89.9193 352.893 90.074C352.12 90.19 351.346 90.4027 350.573 90.712C349.8 90.9827 349.142 91.3887 348.601 91.93C348.098 92.4327 347.847 93.09 347.847 93.902C347.847 95.3713 348.968 96.5893 351.211 97.556C352.023 97.8653 352.932 98.1747 353.937 98.484C354.942 98.7933 355.986 99.1607 357.069 99.586C358.461 100.089 359.737 100.688 360.897 101.384C362.057 102.08 362.966 102.931 363.623 103.936C364.319 104.903 364.667 106.121 364.667 107.59C364.667 109.794 364.106 111.592 362.985 112.984C361.864 114.337 360.394 115.323 358.577 115.942C356.76 116.561 354.768 116.87 352.603 116.87Z" fill="#FFABAB"/>
</svg>
