<svg width="500" height="200" viewBox="0 0 500 200" fill="none" xmlns="http://www.w3.org/2000/svg">
<rect width="500" height="200" fill="#00C6B9"/>
<path d="M172.651 116C171.993 116 171.549 115.865 171.317 115.594C171.085 115.285 170.833 114.801 170.563 114.144C170.485 113.989 170.447 113.873 170.447 113.796C170.408 113.255 170.389 112.694 170.389 112.114C170.389 111.534 170.389 110.973 170.389 110.432C170.389 106.875 170.582 103.337 170.969 99.818C171.355 96.2993 171.549 92.7807 171.549 89.262C171.549 88.2567 171.529 87.2707 171.491 86.304C171.491 85.2987 171.394 84.3127 171.201 83.346L171.085 82.766L170.505 82.592C169.654 82.3213 168.939 82.012 168.359 81.664C167.817 81.316 167.547 80.794 167.547 80.098C167.547 79.6727 167.972 79.1893 168.823 78.648C169.712 78.1067 170.93 77.662 172.477 77.314C173.946 77.0047 175.454 76.8307 177.001 76.792C178.547 76.7147 179.746 76.676 180.597 76.676C182.646 76.676 184.734 76.85 186.861 77.198C188.987 77.546 190.979 78.126 192.835 78.938C194.691 79.7113 196.257 80.7747 197.533 82.128C198.847 83.4427 199.679 85.1053 200.027 87.116C200.143 87.6187 200.201 88.1793 200.201 88.798C200.201 90.8087 199.679 92.452 198.635 93.728C197.629 94.9653 196.295 96.0093 194.633 96.86C193.009 97.672 191.23 98.4453 189.297 99.18L187.731 99.76L189.297 101.152C189.722 101.539 190.167 101.945 190.631 102.37C191.133 102.757 191.597 103.182 192.023 103.646L194.633 106.488C195.406 107.339 196.16 108.286 196.895 109.33C197.629 110.335 197.997 111.321 197.997 112.288C197.997 113.951 197.165 114.782 195.503 114.782C194.961 114.782 194.633 114.724 194.517 114.608C194.517 114.608 194.497 114.608 194.459 114.608C194.459 114.569 194.439 114.55 194.401 114.55C194.362 114.473 194.265 114.357 194.111 114.202C193.995 114.086 193.859 113.951 193.705 113.796C193.55 113.641 193.415 113.467 193.299 113.274C192.409 111.689 191.423 110.297 190.341 109.098C189.258 107.861 187.808 106.469 185.991 104.922C185.488 104.458 184.811 103.955 183.961 103.414C183.11 102.873 182.279 102.293 181.467 101.674C180.616 101.017 179.959 100.398 179.495 99.818C179.031 99.238 178.799 98.7353 178.799 98.31C178.799 98.0393 178.953 97.9233 179.263 97.962C179.572 98.0007 180.094 97.8653 180.829 97.556C181.563 97.2467 182.395 96.976 183.323 96.744C184.251 96.4733 185.198 96.2027 186.165 95.932C187.131 95.6227 188.098 95.3133 189.065 95.004C190.07 94.656 190.979 94.2307 191.791 93.728C192.603 93.1867 193.453 92.4713 194.343 91.582C195.271 90.654 195.735 89.6487 195.735 88.566C195.735 87.3673 195.367 86.3233 194.633 85.434C193.937 84.5447 193.067 83.81 192.023 83.23C191.017 82.6113 190.051 82.186 189.123 81.954C188.001 81.6447 186.667 81.432 185.121 81.316C183.613 81.2 182.24 81.142 181.003 81.142H177.349C176.885 81.142 176.653 81.3933 176.653 81.896L175.087 109.794C175.048 110.065 175.029 110.393 175.029 110.78C175.067 111.128 175.067 111.495 175.029 111.882C174.951 112.617 174.835 113.332 174.681 114.028C174.333 115.343 173.656 116 172.651 116ZM221.55 116.87C218.611 116.87 215.943 116.445 213.546 115.594C211.187 114.705 209.312 113.332 207.92 111.476C206.528 109.581 205.832 107.145 205.832 104.168C205.832 101.809 206.218 99.5087 206.992 97.266C207.804 95.0233 208.944 92.9933 210.414 91.176C211.883 89.3587 213.642 87.928 215.692 86.884C217.741 85.8013 220.022 85.26 222.536 85.26C224.276 85.26 225.842 85.5887 227.234 86.246C228.664 86.9033 229.805 87.8313 230.656 89.03C231.506 90.2287 231.932 91.6593 231.932 93.322C231.932 95.1007 231.545 96.802 230.772 98.426C230.037 100.011 229.032 101.423 227.756 102.66C226.48 103.897 225.03 104.883 223.406 105.618C221.82 106.314 220.158 106.662 218.418 106.662C216.91 106.662 215.498 106.546 214.184 106.314C212.869 106.043 211.651 105.637 210.53 105.096C210.53 106.565 210.878 107.822 211.574 108.866C212.27 109.871 213.159 110.703 214.242 111.36C215.324 111.979 216.446 112.443 217.606 112.752C218.804 113.023 219.906 113.158 220.912 113.158C221.724 113.158 222.536 113.119 223.348 113.042C224.16 112.926 225.049 112.868 226.016 112.868C227.446 112.868 228.162 113.487 228.162 114.724C228.162 115.691 227.485 116.309 226.132 116.58C225.397 116.735 224.643 116.812 223.87 116.812C223.096 116.851 222.323 116.87 221.55 116.87ZM218.418 102.022C219.771 102.022 221.182 101.751 222.652 101.21C224.121 100.669 225.358 99.818 226.364 98.658C227.408 97.498 227.93 96.0287 227.93 94.25C227.93 92.6647 227.427 91.3887 226.422 90.422C225.455 89.4167 224.16 88.914 222.536 88.914C221.066 88.914 219.616 89.262 218.186 89.958C216.794 90.6153 215.518 91.524 214.358 92.684C213.198 93.8053 212.27 95.0813 211.574 96.512C210.878 97.9427 210.53 99.412 210.53 100.92C211.419 101.384 212.54 101.693 213.894 101.848C215.247 101.964 216.755 102.022 218.418 102.022ZM252.099 132.356C250.746 132.356 249.431 132.163 248.155 131.776C246.879 131.389 245.796 130.79 244.907 129.978C244.056 129.166 243.515 128.141 243.283 126.904C243.206 126.479 243.341 126.131 243.689 125.86C244.076 125.589 244.578 125.454 245.197 125.454C245.545 125.454 245.854 125.531 246.125 125.686C246.396 125.841 246.666 126.015 246.937 126.208C247.053 126.324 247.169 126.421 247.285 126.498C247.401 126.614 247.517 126.711 247.633 126.788C248.136 127.175 248.735 127.6 249.431 128.064C250.127 128.528 250.997 128.76 252.041 128.76C253.626 128.76 254.96 128.296 256.043 127.368C257.126 126.479 258.015 125.319 258.711 123.888C259.446 122.496 259.987 121.046 260.335 119.538C260.722 118.03 260.973 116.696 261.089 115.536C261.244 114.144 261.379 112.578 261.495 110.838C261.611 109.098 261.669 107.571 261.669 106.256C261.669 105.096 261.611 104.265 261.495 103.762C260.644 104.922 259.716 106.024 258.711 107.068C257.744 108.112 256.836 109.021 255.985 109.794C255.173 110.567 254.574 111.128 254.187 111.476C253.491 112.056 252.66 112.655 251.693 113.274C250.765 113.893 249.779 114.415 248.735 114.84C247.73 115.265 246.744 115.478 245.777 115.478C244.346 115.478 243.012 115.13 241.775 114.434C240.538 113.738 239.532 112.791 238.759 111.592C238.024 110.393 237.657 109.059 237.657 107.59C237.657 104.922 238.198 102.273 239.281 99.644C240.364 97.0147 241.852 94.6173 243.747 92.452C245.68 90.248 247.904 88.508 250.417 87.232C252.969 85.9173 255.695 85.26 258.595 85.26C259.832 85.26 260.934 85.5307 261.901 86.072C262.868 86.6133 263.351 87.348 263.351 88.276C263.351 88.6627 263.196 89.088 262.887 89.552C262.578 90.016 262.191 90.248 261.727 90.248C261.534 90.248 261.321 90.19 261.089 90.074C260.625 89.8033 260.103 89.5907 259.523 89.436C258.943 89.2427 258.324 89.146 257.667 89.146C257.01 89.146 256.333 89.262 255.637 89.494C253.742 89.9967 251.964 90.828 250.301 91.988C248.677 93.1093 247.227 94.4627 245.951 96.048C244.714 97.6333 243.747 99.3347 243.051 101.152C242.355 102.969 242.007 104.806 242.007 106.662C242.007 108.209 242.22 109.465 242.645 110.432C243.109 111.36 244.056 111.824 245.487 111.824C246.415 111.824 247.362 111.534 248.329 110.954C249.334 110.374 250.262 109.678 251.113 108.866C252.002 108.054 252.718 107.319 253.259 106.662C254.071 105.734 254.922 104.709 255.811 103.588C256.7 102.467 257.551 101.384 258.363 100.34C259.175 99.2573 259.852 98.31 260.393 97.498C260.973 96.686 261.34 96.1447 261.495 95.874C261.843 95.4487 262.133 95.1973 262.365 95.12C262.597 95.004 262.926 94.946 263.351 94.946C264.047 94.946 264.55 95.178 264.859 95.642C265.168 96.0673 265.381 96.5893 265.497 97.208C265.613 97.8267 265.71 98.4067 265.787 98.948V103.356C265.787 104.941 265.748 106.759 265.671 108.808C265.594 110.819 265.42 112.926 265.149 115.13C264.917 117.295 264.511 119.383 263.931 121.394C263.351 123.443 262.558 125.299 261.553 126.962C260.548 128.625 259.272 129.939 257.725 130.906C256.178 131.873 254.303 132.356 252.099 132.356ZM284.694 115.42C281.833 115.42 279.59 114.917 277.966 113.912C276.342 112.907 275.201 111.418 274.544 109.446C273.925 107.435 273.616 104.961 273.616 102.022C273.616 100.669 273.674 99.2187 273.79 97.672C272.282 97.092 271.528 96.3767 271.528 95.526C271.528 94.7913 271.76 94.2693 272.224 93.96C272.727 93.612 273.287 93.3413 273.906 93.148C274.563 92.9547 275.105 92.7227 275.53 92.452C275.607 91.988 275.723 91.292 275.878 90.364C276.033 89.3973 276.187 88.392 276.342 87.348C276.535 86.2653 276.709 85.318 276.864 84.506C277.019 83.6553 277.115 83.1333 277.154 82.94C276.729 82.708 276.149 82.5727 275.414 82.534C274.718 82.4567 274.099 82.302 273.558 82.07C273.017 81.838 272.746 81.3547 272.746 80.62C272.746 79.8467 272.959 79.286 273.384 78.938C273.809 78.5513 274.505 78.2807 275.472 78.126C277.947 77.7007 280.325 77.3527 282.606 77.082C284.887 76.8113 287.265 76.676 289.74 76.676C290.281 76.676 291.016 76.676 291.944 76.676C292.872 76.676 293.8 76.7533 294.728 76.908C295.695 77.024 296.507 77.2753 297.164 77.662C297.821 78.0487 298.15 78.6287 298.15 79.402C298.15 79.8273 298.015 80.1947 297.744 80.504C297.512 80.8133 297.241 80.968 296.932 80.968H288.232C288.077 80.968 287.652 80.9873 286.956 81.026C286.26 81.026 285.506 81.0647 284.694 81.142C283.882 81.2193 283.205 81.374 282.664 81.606C282.084 81.838 281.62 82.5533 281.272 83.752C280.924 84.9507 280.673 86.3813 280.518 88.044C280.363 89.668 280.286 91.2727 280.286 92.858C280.789 92.8193 281.543 92.7807 282.548 92.742C283.553 92.6647 284.597 92.6067 285.68 92.568C286.801 92.5293 287.729 92.51 288.464 92.51H290.784C291.673 92.51 292.273 92.7033 292.582 93.09C292.93 93.4767 293.104 93.9987 293.104 94.656C293.104 95.9707 292.369 96.686 290.9 96.802L281.098 97.44C280.015 97.4787 279.281 97.672 278.894 98.02C278.546 98.3293 278.314 98.9287 278.198 99.818C278.121 100.553 278.063 101.113 278.024 101.5C278.024 101.887 278.024 102.235 278.024 102.544C278.063 102.815 278.082 103.066 278.082 103.298C278.082 103.491 278.082 103.665 278.082 103.82C278.082 104.709 278.159 105.657 278.314 106.662C278.469 107.629 278.817 108.499 279.358 109.272C279.938 110.045 280.827 110.567 282.026 110.838H284.984C286.917 110.838 288.967 110.683 291.132 110.374C293.336 110.065 295.269 109.717 296.932 109.33C297.009 109.291 297.106 109.272 297.222 109.272C297.338 109.272 297.415 109.272 297.454 109.272C297.995 109.272 298.343 109.465 298.498 109.852C298.691 110.239 298.788 110.664 298.788 111.128C298.788 112.868 297.029 114.086 293.51 114.782C292.273 115.053 290.861 115.227 289.276 115.304C287.691 115.381 286.163 115.42 284.694 115.42ZM327.685 116.58C327.105 116.58 326.621 116.445 326.235 116.174C325.887 115.903 325.5 115.42 325.075 114.724L320.783 107.706C320.628 107.435 320.338 107.01 319.913 106.43C319.487 105.85 319.062 105.289 318.637 104.748C318.25 104.207 317.999 103.878 317.883 103.762C317.419 104.149 316.839 104.729 316.143 105.502C315.485 106.275 314.828 107.087 314.171 107.938L312.373 110.142C312.179 110.335 311.967 110.567 311.735 110.838C311.503 111.07 311.271 111.321 311.039 111.592C310.497 112.172 310.033 112.694 309.647 113.158C309.26 113.622 308.777 114.067 308.197 114.492C307.733 114.84 307.23 115.014 306.689 115.014C306.263 115.014 305.896 114.879 305.587 114.608C305.277 114.299 305.123 113.835 305.123 113.216C305.123 112.211 305.529 111.167 306.341 110.084C307.191 108.963 308.235 107.803 309.473 106.604C310.091 106.024 310.691 105.463 311.271 104.922C311.851 104.381 312.353 103.859 312.779 103.356C313.204 102.853 313.61 102.389 313.997 101.964C314.422 101.539 314.944 100.939 315.563 100.166C315.447 99.934 315.118 99.4313 314.577 98.658C314.035 97.846 313.436 96.9567 312.779 95.99C312.121 95.0233 311.503 94.1533 310.923 93.38C310.381 92.6067 310.014 92.104 309.821 91.872C309.202 91.1373 308.525 90.306 307.791 89.378C307.095 88.45 306.747 87.4833 306.747 86.478C306.747 86.0527 306.921 85.7433 307.269 85.55C307.655 85.3567 308.1 85.26 308.603 85.26C309.028 85.26 309.531 85.5113 310.111 86.014C310.729 86.5167 311.251 87.058 311.677 87.638C312.102 88.1793 312.663 88.914 313.359 89.842C314.055 90.7313 314.731 91.582 315.389 92.394C316.046 93.206 316.491 93.786 316.723 94.134C316.877 94.25 317.09 94.5207 317.361 94.946C317.67 95.3713 317.96 95.7773 318.231 96.164C318.501 96.512 318.637 96.686 318.637 96.686C320.261 94.9847 321.885 93.3027 323.509 91.64C325.171 89.9773 326.815 88.3147 328.439 86.652C328.98 86.1107 329.386 85.8013 329.657 85.724C329.966 85.608 330.275 85.55 330.585 85.55C331.59 85.55 332.093 86.072 332.093 87.116C332.093 87.5413 332.035 87.8893 331.919 88.16C331.841 88.4307 331.667 88.74 331.397 89.088C329.618 91.0213 328.091 92.6647 326.815 94.018C325.539 95.3327 324.475 96.4733 323.625 97.44C322.774 98.4067 322.039 99.3153 321.421 100.166C321.537 100.63 321.904 101.403 322.523 102.486C323.141 103.53 323.837 104.671 324.611 105.908C325.423 107.145 326.157 108.305 326.815 109.388C327.511 110.432 327.994 111.186 328.265 111.65C329.038 112.965 329.425 114.067 329.425 114.956C329.425 116.039 328.845 116.58 327.685 116.58Z" fill="#002E29"/>
</svg>
