<svg width="500" height="200" viewBox="0 0 500 200" fill="none" xmlns="http://www.w3.org/2000/svg">
<rect width="500" height="200" fill="#3E2F5B"/>
<path d="M67.988 115.71C67.2147 115.71 66.6927 115.459 66.422 114.956C66.19 114.453 66.074 113.854 66.074 113.158C66.1127 112.423 66.132 111.747 66.132 111.128C66.132 107.223 66.5187 103.375 67.292 99.586C68.0653 95.7967 68.974 92.0267 70.018 88.276C70.0953 88.044 70.2307 87.6187 70.424 87C70.6173 86.3427 70.83 85.6467 71.062 84.912C71.294 84.1773 71.5067 83.5007 71.7 82.882C71.932 82.2633 72.0867 81.838 72.164 81.606C72.5893 80.2913 73.092 79.344 73.672 78.764C74.252 78.1453 75.0833 77.836 76.166 77.836C77.1327 77.836 77.9447 78.184 78.602 78.88C79.298 79.5373 79.8587 80.3493 80.284 81.316C80.748 82.244 81.1153 83.1333 81.386 83.984C82.0433 85.9947 82.72 88.044 83.416 90.132C84.112 92.1813 84.7693 94.2113 85.388 96.222C85.6973 97.2273 86.1227 97.73 86.664 97.73C87.36 97.73 88.0173 96.8987 88.636 95.236C88.9453 94.3853 89.3127 93.3607 89.738 92.162C90.202 90.9247 90.666 89.6873 91.13 88.45C91.594 87.174 92 86.0333 92.348 85.028C92.7347 84.0227 93.0053 83.3073 93.16 82.882C93.7787 81.2967 94.4553 80.0207 95.19 79.054C95.9633 78.0487 97.046 77.546 98.438 77.546C99.482 77.546 100.333 77.9133 100.99 78.648C101.647 79.344 102.189 80.214 102.614 81.258C103.039 82.2633 103.387 83.2493 103.658 84.216C104.702 88.16 105.495 92.162 106.036 96.222C106.616 100.282 106.906 104.323 106.906 108.344V110.606C106.751 111.109 106.539 111.437 106.268 111.592C105.997 111.708 105.514 111.766 104.818 111.766C103.851 111.766 103.155 111.128 102.73 109.852C102.498 109.156 102.343 108.441 102.266 107.706C102.189 106.971 102.111 106.237 102.034 105.502C101.647 101.558 101.299 98.4067 100.99 96.048C100.719 93.6507 100.468 91.7947 100.236 90.48C100.043 89.1653 99.8687 88.16 99.714 87.464C99.5593 86.7293 99.4047 86.0527 99.25 85.434C99.134 84.738 98.8053 84.39 98.264 84.39C97.684 84.39 97.22 84.738 96.872 85.434C96.64 86.13 96.292 87.1353 95.828 88.45C95.4027 89.7647 94.9193 91.1567 94.378 92.626C93.8367 94.0953 93.3533 95.4293 92.928 96.628C92.5027 97.8267 92.2127 98.658 92.058 99.122C91.8647 99.6247 91.594 100.321 91.246 101.21C90.898 102.061 90.4727 102.911 89.97 103.762C89.506 104.613 88.9647 105.347 88.346 105.966C87.766 106.546 87.1473 106.836 86.49 106.836C85.8713 106.836 85.3107 106.585 84.808 106.082C84.3053 105.541 83.88 104.922 83.532 104.226C83.2227 103.53 82.9713 102.95 82.778 102.486L77.964 88.276C77.9253 88.0827 77.848 87.812 77.732 87.464C77.616 87.0773 77.4227 86.7293 77.152 86.42C76.92 86.072 76.572 85.898 76.108 85.898C75.6827 85.898 75.3347 86.0913 75.064 86.478C74.832 86.8647 74.658 87.3093 74.542 87.812C74.426 88.3147 74.3487 88.7207 74.31 89.03C74.2327 89.4167 74.1167 89.9193 73.962 90.538C73.8073 91.118 73.6527 91.7367 73.498 92.394C73.3433 92.974 73.208 93.5347 73.092 94.076C73.0147 94.5787 72.9373 94.9653 72.86 95.236C72.8213 95.5067 72.7247 95.99 72.57 96.686C72.454 97.382 72.338 98.1167 72.222 98.89C71.9127 100.901 71.6227 102.873 71.352 104.806C71.12 106.701 70.888 108.769 70.656 111.012C70.6173 111.669 70.5207 112.365 70.366 113.1C70.2113 113.835 69.9407 114.453 69.554 114.956C69.206 115.459 68.684 115.71 67.988 115.71ZM121.378 131.196C121.262 131.196 121.088 131.041 120.856 130.732C120.624 130.423 120.508 129.959 120.508 129.34C120.508 128.799 120.566 128.257 120.682 127.716C120.837 127.175 121.03 126.633 121.262 126.092C121.533 125.512 121.804 124.932 122.074 124.352C122.345 123.772 122.616 123.192 122.886 122.612C123.118 122.032 123.389 121.297 123.698 120.408C124.046 119.519 124.375 118.61 124.684 117.682C124.994 116.793 125.245 116.019 125.438 115.362C125.67 114.705 125.786 114.337 125.786 114.26V112.752C123.389 112.752 121.398 112.307 119.812 111.418C118.227 110.529 116.97 109.349 116.042 107.88C115.114 106.411 114.438 104.787 114.012 103.008C113.587 101.191 113.297 99.354 113.142 97.498C113.026 95.6033 112.968 93.844 112.968 92.22C112.968 91.4467 112.988 90.6927 113.026 89.958C113.065 89.2233 113.162 88.4887 113.316 87.754C113.51 86.8647 113.742 86.2847 114.012 86.014C114.322 85.7047 114.612 85.55 114.882 85.55C115.772 85.55 116.39 85.898 116.738 86.594C117.125 87.2513 117.318 88.218 117.318 89.494C117.318 90.3833 117.26 91.234 117.144 92.046C117.028 92.8193 116.97 93.67 116.97 94.598V95.178C116.97 95.526 117.028 96.2027 117.144 97.208C117.299 98.1747 117.454 99.1607 117.608 100.166C117.763 101.171 117.879 101.925 117.956 102.428C118.15 103.279 118.44 104.187 118.826 105.154C119.213 106.082 119.754 106.875 120.45 107.532C121.185 108.189 122.113 108.518 123.234 108.518C124.742 108.518 126.076 107.977 127.236 106.894C128.435 105.773 129.518 104.342 130.484 102.602C131.49 100.823 132.398 98.9673 133.21 97.034C133.52 96.3767 133.81 95.7193 134.08 95.062C134.351 94.4047 134.622 93.7667 134.892 93.148C135.202 92.5293 135.492 91.9493 135.762 91.408C136.033 90.8667 136.323 90.3447 136.632 89.842C137.251 88.8367 137.812 88.1213 138.314 87.696C138.856 87.2707 139.378 87.058 139.88 87.058C140.383 87.058 140.75 87.1933 140.982 87.464C141.253 87.7347 141.388 88.1987 141.388 88.856C141.388 90.0547 141.176 91.234 140.75 92.394C140.364 93.554 139.861 94.714 139.242 95.874C138.585 97.0727 137.889 98.252 137.154 99.412C136.42 100.572 135.782 101.732 135.24 102.892C134.931 103.588 134.506 104.535 133.964 105.734C133.462 106.894 132.92 108.112 132.34 109.388C131.799 110.625 131.316 111.727 130.89 112.694C130.504 113.661 130.272 114.26 130.194 114.492C130.156 114.685 130.001 115.13 129.73 115.826C129.46 116.483 129.15 117.276 128.802 118.204C128.493 119.132 128.164 120.06 127.816 120.988C127.468 121.955 127.159 122.767 126.888 123.424C126.656 124.12 126.502 124.565 126.424 124.758C126.192 125.454 125.864 126.305 125.438 127.31C125.013 128.315 124.472 129.205 123.814 129.978C123.196 130.79 122.384 131.196 121.378 131.196ZM174.491 116C173.833 116 173.389 115.865 173.157 115.594C172.925 115.285 172.673 114.801 172.403 114.144C172.325 113.989 172.287 113.873 172.287 113.796C172.248 113.255 172.229 112.694 172.229 112.114C172.229 111.534 172.229 110.973 172.229 110.432C172.229 106.875 172.422 103.337 172.809 99.818C173.195 96.2993 173.389 92.7807 173.389 89.262C173.389 88.2567 173.369 87.2707 173.331 86.304C173.331 85.2987 173.234 84.3127 173.041 83.346L172.925 82.766L172.345 82.592C171.494 82.3213 170.779 82.012 170.199 81.664C169.657 81.316 169.387 80.794 169.387 80.098C169.387 79.6727 169.812 79.1893 170.663 78.648C171.552 78.1067 172.77 77.662 174.317 77.314C175.786 77.0047 177.294 76.8307 178.841 76.792C180.387 76.7147 181.586 76.676 182.437 76.676C184.486 76.676 186.574 76.85 188.701 77.198C190.827 77.546 192.819 78.126 194.675 78.938C196.531 79.7113 198.097 80.7747 199.373 82.128C200.687 83.4427 201.519 85.1053 201.867 87.116C201.983 87.6187 202.041 88.1793 202.041 88.798C202.041 90.8087 201.519 92.452 200.475 93.728C199.469 94.9653 198.135 96.0093 196.473 96.86C194.849 97.672 193.07 98.4453 191.137 99.18L189.571 99.76L191.137 101.152C191.562 101.539 192.007 101.945 192.471 102.37C192.973 102.757 193.437 103.182 193.863 103.646L196.473 106.488C197.246 107.339 198 108.286 198.735 109.33C199.469 110.335 199.837 111.321 199.837 112.288C199.837 113.951 199.005 114.782 197.343 114.782C196.801 114.782 196.473 114.724 196.357 114.608C196.357 114.608 196.337 114.608 196.299 114.608C196.299 114.569 196.279 114.55 196.241 114.55C196.202 114.473 196.105 114.357 195.951 114.202C195.835 114.086 195.699 113.951 195.545 113.796C195.39 113.641 195.255 113.467 195.139 113.274C194.249 111.689 193.263 110.297 192.181 109.098C191.098 107.861 189.648 106.469 187.831 104.922C187.328 104.458 186.651 103.955 185.801 103.414C184.95 102.873 184.119 102.293 183.307 101.674C182.456 101.017 181.799 100.398 181.335 99.818C180.871 99.238 180.639 98.7353 180.639 98.31C180.639 98.0393 180.793 97.9233 181.103 97.962C181.412 98.0007 181.934 97.8653 182.669 97.556C183.403 97.2467 184.235 96.976 185.163 96.744C186.091 96.4733 187.038 96.2027 188.005 95.932C188.971 95.6227 189.938 95.3133 190.905 95.004C191.91 94.656 192.819 94.2307 193.631 93.728C194.443 93.1867 195.293 92.4713 196.183 91.582C197.111 90.654 197.575 89.6487 197.575 88.566C197.575 87.3673 197.207 86.3233 196.473 85.434C195.777 84.5447 194.907 83.81 193.863 83.23C192.857 82.6113 191.891 82.186 190.963 81.954C189.841 81.6447 188.507 81.432 186.961 81.316C185.453 81.2 184.08 81.142 182.843 81.142H179.189C178.725 81.142 178.493 81.3933 178.493 81.896L176.927 109.794C176.888 110.065 176.869 110.393 176.869 110.78C176.907 111.128 176.907 111.495 176.869 111.882C176.791 112.617 176.675 113.332 176.521 114.028C176.173 115.343 175.496 116 174.491 116ZM223.389 116C220.605 116 218.015 115.401 215.617 114.202C213.22 112.965 211.287 111.263 209.817 109.098C208.387 106.894 207.671 104.342 207.671 101.442C207.671 99.47 208.077 97.6333 208.889 95.932C209.74 94.2307 210.823 92.6067 212.137 91.06C213.452 89.5133 214.825 88.0053 216.255 86.536C216.913 85.8787 217.667 85.4147 218.517 85.144C219.368 84.8347 220.277 84.68 221.243 84.68C223.911 84.68 226.425 84.97 228.783 85.55C231.142 86.0913 233.23 86.9807 235.047 88.218C236.903 89.4553 238.353 91.06 239.397 93.032C240.441 95.004 240.963 97.4013 240.963 100.224C240.963 102.544 240.461 104.671 239.455 106.604C238.489 108.537 237.155 110.219 235.453 111.65C233.791 113.042 231.915 114.125 229.827 114.898C227.739 115.633 225.593 116 223.389 116ZM222.113 111.708C223.892 111.708 225.651 111.457 227.391 110.954C229.17 110.451 230.775 109.697 232.205 108.692C233.636 107.648 234.777 106.353 235.627 104.806C236.517 103.259 236.961 101.423 236.961 99.296C236.961 97.3627 236.536 95.7193 235.685 94.366C234.873 92.974 233.791 91.8527 232.437 91.002C231.084 90.1127 229.615 89.4553 228.029 89.03C226.444 88.6047 224.897 88.392 223.389 88.392C222.771 88.392 222.075 88.45 221.301 88.566C220.567 88.6433 219.851 89.0107 219.155 89.668C218.305 90.48 217.435 91.3113 216.545 92.162C215.695 92.974 214.902 93.8827 214.167 94.888C213.433 95.8547 212.833 96.9373 212.369 98.136C211.905 99.3347 211.673 100.63 211.673 102.022C211.673 104.265 212.137 106.101 213.065 107.532C214.032 108.963 215.308 110.026 216.893 110.722C218.479 111.379 220.219 111.708 222.113 111.708ZM257.536 116.58C255.796 116.58 254.172 116.193 252.664 115.42C251.195 114.647 249.957 113.603 248.952 112.288C247.947 110.973 247.289 109.504 246.98 107.88V104.806C246.98 102.602 247.386 100.379 248.198 98.136C249.01 95.8933 250.131 93.8247 251.562 91.93C253.031 90.0353 254.752 88.5273 256.724 87.406C258.735 86.246 260.9 85.666 263.22 85.666C264.689 85.666 266.101 85.9173 267.454 86.42C268.846 86.9227 270.083 87.5027 271.166 88.16C271.398 86.536 271.688 85.4147 272.036 84.796C272.384 84.1773 272.983 83.868 273.834 83.868C274.491 83.868 274.955 84.0807 275.226 84.506C275.497 84.8927 275.632 85.5887 275.632 86.594C275.632 88.914 275.574 91.1953 275.458 93.438C275.381 95.642 275.342 97.904 275.342 100.224C275.342 102.08 275.439 103.994 275.632 105.966C275.864 107.938 275.98 109.833 275.98 111.65C275.98 112.23 275.98 112.81 275.98 113.39C276.019 113.97 275.922 114.453 275.69 114.84C275.497 115.188 275.071 115.362 274.414 115.362C273.486 115.362 272.79 114.937 272.326 114.086C271.901 113.197 271.611 112.133 271.456 110.896C271.301 109.659 271.147 108.499 270.992 107.416C270.605 108.46 269.948 109.485 269.02 110.49C268.131 111.495 267.222 112.365 266.294 113.1C265.405 113.796 264.709 114.299 264.206 114.608C263.742 114.879 263.742 114.84 264.206 114.492C263.355 115.111 262.292 115.613 261.016 116C259.779 116.387 258.619 116.58 257.536 116.58ZM256.956 112.926C258.696 112.926 260.32 112.423 261.828 111.418C263.336 110.413 264.651 109.117 265.772 107.532C266.932 105.947 267.821 104.284 268.44 102.544C269.097 100.804 269.426 99.1993 269.426 97.73C269.426 96.9953 269.329 96.164 269.136 95.236C268.981 94.2693 268.672 93.3413 268.208 92.452C267.744 91.5627 267.106 90.828 266.294 90.248C265.521 89.668 264.496 89.378 263.22 89.378C261.557 89.378 259.972 89.9193 258.464 91.002C256.956 92.046 255.603 93.3993 254.404 95.062C253.244 96.686 252.335 98.368 251.678 100.108C251.021 101.848 250.692 103.414 250.692 104.806C250.692 105.85 250.866 107.01 251.214 108.286C251.601 109.562 252.239 110.664 253.128 111.592C254.056 112.481 255.332 112.926 256.956 112.926ZM289.4 116.87C286.693 116.174 284.644 114.743 283.252 112.578C281.86 110.413 281.164 108.015 281.164 105.386C281.164 102.911 281.705 100.533 282.788 98.252C283.909 95.932 285.398 93.8633 287.254 92.046C289.11 90.19 291.217 88.74 293.576 87.696C295.973 86.6133 298.448 86.072 301 86.072C302.508 86.072 303.687 86.1107 304.538 86.188C305.388 86.2653 306.355 86.5167 307.438 86.942C307.476 86.362 307.573 85.55 307.728 84.506C307.882 83.462 308.056 82.36 308.25 81.2C308.443 80.0013 308.598 78.938 308.714 78.01C308.83 77.1593 308.946 76.3087 309.062 75.458C309.216 74.5687 309.429 73.718 309.7 72.906C310.318 71.2047 311.208 70.354 312.368 70.354C313.257 70.354 313.702 71.0307 313.702 72.384C313.702 72.5773 313.682 72.8093 313.644 73.08C313.644 73.312 313.624 73.5827 313.586 73.892C312.967 78.5707 312.503 83.2107 312.194 87.812C311.923 92.3747 311.788 96.9373 311.788 101.5C311.788 103.433 311.846 105.347 311.962 107.242C312.078 109.098 312.213 111.012 312.368 112.984C312.445 114.028 312.252 114.859 311.788 115.478C311.362 116.058 310.879 116.348 310.338 116.348C309.564 116.348 309.042 115.865 308.772 114.898C308.385 113.661 308.076 112.385 307.844 111.07C307.612 109.717 307.457 108.595 307.38 107.706C305.949 109.291 304.402 110.78 302.74 112.172C301.077 113.564 299.337 114.705 297.52 115.594C295.741 116.445 293.904 116.87 292.01 116.87H289.4ZM291.662 113.274C293.518 113.274 295.354 112.81 297.172 111.882C299.028 110.915 300.729 109.678 302.276 108.17C303.822 106.623 305.06 104.98 305.988 103.24C306.916 101.461 307.38 99.76 307.38 98.136C307.38 96.6667 307.148 95.3133 306.684 94.076C306.258 92.8387 305.62 91.8527 304.77 91.118C303.958 90.3447 302.972 89.958 301.812 89.958C299.646 89.958 297.578 90.3833 295.606 91.234C293.672 92.0847 291.932 93.2447 290.386 94.714C288.878 96.1833 287.679 97.8653 286.79 99.76C285.939 101.655 285.514 103.627 285.514 105.676V108.286C285.9 109.755 286.596 110.954 287.602 111.882C288.607 112.81 289.96 113.274 291.662 113.274ZM323.818 115.42C323.199 115.42 322.697 115.246 322.31 114.898C321.923 114.511 321.73 114.047 321.73 113.506C321.73 112.153 321.769 110.819 321.846 109.504C321.962 108.189 322.02 106.855 322.02 105.502V101.384C322.02 100.263 322.001 99.1413 321.962 98.02C321.923 96.86 321.846 95.584 321.73 94.192C321.614 93.1093 321.382 91.988 321.034 90.828C320.686 89.6293 320.512 88.6047 320.512 87.754C320.512 86.0913 321.015 85.26 322.02 85.26C323.18 85.26 324.05 86.4007 324.63 88.682C325.249 90.9247 325.829 94.1533 326.37 98.368C326.447 98.8707 326.544 99.238 326.66 99.47C326.776 99.6633 326.892 99.76 327.008 99.76C327.24 99.76 327.453 99.6247 327.646 99.354C327.878 99.0447 328.052 98.7933 328.168 98.6C328.477 98.02 328.825 97.3433 329.212 96.57C329.637 95.7967 330.005 95.1393 330.314 94.598C330.623 94.0567 330.952 93.5347 331.3 93.032C331.687 92.4907 332.073 91.988 332.46 91.524C333.233 90.5573 334.065 89.8033 334.954 89.262C335.843 88.682 336.81 88.392 337.854 88.392C338.782 88.392 339.497 88.6433 340 89.146C340.503 89.6487 340.947 90.306 341.334 91.118C341.566 91.582 341.759 92.046 341.914 92.51C342.107 92.9353 342.281 93.3607 342.436 93.786C342.629 94.2113 342.881 94.9073 343.19 95.874C343.499 96.802 343.886 97.5753 344.35 98.194L346.09 95.7C346.786 94.6947 347.463 93.7087 348.12 92.742C348.816 91.7367 349.589 90.8087 350.44 89.958C351.252 89.1073 352.103 88.4307 352.992 87.928C353.881 87.3867 354.809 87.116 355.776 87.116C357.091 87.116 358.193 87.6573 359.082 88.74C359.971 89.8227 360.648 91.1567 361.112 92.742C361.576 94.3273 361.827 95.874 361.866 97.382L362.214 110.78C362.253 111.399 362.117 112.133 361.808 112.984C361.499 113.796 360.899 114.202 360.01 114.202C359.507 114.202 359.082 114.009 358.734 113.622C358.386 113.197 358.212 112.771 358.212 112.346V100.804C358.212 100.031 358.154 99.1413 358.038 98.136C357.922 97.092 357.729 96.0867 357.458 95.12C357.226 94.1533 356.897 93.3607 356.472 92.742C356.047 92.0847 355.505 91.756 354.848 91.756C353.804 91.756 352.857 92.2587 352.006 93.264C351.155 94.2307 350.363 95.5453 349.628 97.208C348.932 98.832 348.217 100.63 347.482 102.602C346.747 105.115 346.109 106.797 345.568 107.648C345.065 108.499 344.524 108.924 343.944 108.924C343.441 108.924 343.035 108.808 342.726 108.576C342.417 108.344 342.146 108.035 341.914 107.648C341.643 107.184 341.431 106.643 341.276 106.024C341.121 105.367 340.986 104.787 340.87 104.284L339.768 99.18C339.613 98.484 339.439 97.6333 339.246 96.628C339.091 95.6227 338.821 94.7527 338.434 94.018C338.086 93.2447 337.545 92.858 336.81 92.858C336.307 92.858 335.766 93.1673 335.186 93.786C334.645 94.366 334.084 95.1007 333.504 95.99C332.963 96.8793 332.46 97.788 331.996 98.716C331.532 99.644 331.145 100.475 330.836 101.21C330.527 101.945 330.333 102.409 330.256 102.602C330.179 102.834 329.947 103.433 329.56 104.4C329.173 105.367 328.729 106.469 328.226 107.706C327.723 108.905 327.259 110.026 326.834 111.07C326.447 112.075 326.196 112.733 326.08 113.042C325.693 113.931 325.345 114.55 325.036 114.898C324.727 115.246 324.321 115.42 323.818 115.42ZM378.804 116.58C377.064 116.58 375.44 116.193 373.932 115.42C372.462 114.647 371.225 113.603 370.22 112.288C369.214 110.973 368.557 109.504 368.248 107.88V104.806C368.248 102.602 368.654 100.379 369.466 98.136C370.278 95.8933 371.399 93.8247 372.83 91.93C374.299 90.0353 376.02 88.5273 377.992 87.406C380.002 86.246 382.168 85.666 384.488 85.666C385.957 85.666 387.368 85.9173 388.722 86.42C390.114 86.9227 391.351 87.5027 392.434 88.16C392.666 86.536 392.956 85.4147 393.304 84.796C393.652 84.1773 394.251 83.868 395.102 83.868C395.759 83.868 396.223 84.0807 396.494 84.506C396.764 84.8927 396.9 85.5887 396.9 86.594C396.9 88.914 396.842 91.1953 396.726 93.438C396.648 95.642 396.61 97.904 396.61 100.224C396.61 102.08 396.706 103.994 396.9 105.966C397.132 107.938 397.248 109.833 397.248 111.65C397.248 112.23 397.248 112.81 397.248 113.39C397.286 113.97 397.19 114.453 396.958 114.84C396.764 115.188 396.339 115.362 395.682 115.362C394.754 115.362 394.058 114.937 393.594 114.086C393.168 113.197 392.878 112.133 392.724 110.896C392.569 109.659 392.414 108.499 392.26 107.416C391.873 108.46 391.216 109.485 390.288 110.49C389.398 111.495 388.49 112.365 387.562 113.1C386.672 113.796 385.976 114.299 385.474 114.608C385.01 114.879 385.01 114.84 385.474 114.492C384.623 115.111 383.56 115.613 382.284 116C381.046 116.387 379.886 116.58 378.804 116.58ZM378.224 112.926C379.964 112.926 381.588 112.423 383.096 111.418C384.604 110.413 385.918 109.117 387.04 107.532C388.2 105.947 389.089 104.284 389.708 102.544C390.365 100.804 390.694 99.1993 390.694 97.73C390.694 96.9953 390.597 96.164 390.404 95.236C390.249 94.2693 389.94 93.3413 389.476 92.452C389.012 91.5627 388.374 90.828 387.562 90.248C386.788 89.668 385.764 89.378 384.488 89.378C382.825 89.378 381.24 89.9193 379.732 91.002C378.224 92.046 376.87 93.3993 375.672 95.062C374.512 96.686 373.603 98.368 372.946 100.108C372.288 101.848 371.96 103.414 371.96 104.806C371.96 105.85 372.134 107.01 372.482 108.286C372.868 109.562 373.506 110.664 374.396 111.592C375.324 112.481 376.6 112.926 378.224 112.926ZM406.549 132.356C405.892 132.356 405.467 132.008 405.273 131.312C405.08 130.655 404.983 129.92 404.983 129.108C404.983 128.799 404.983 128.47 404.983 128.122C405.022 127.813 405.041 127.523 405.041 127.252C405.041 123.308 405.215 119.538 405.563 115.942C405.911 112.307 406.163 108.789 406.317 105.386C406.356 104.497 406.395 103.395 406.433 102.08C406.472 100.765 406.491 99.5087 406.491 98.31C406.53 97.1113 406.53 96.2413 406.491 95.7C405.757 95.7 405.177 95.4293 404.751 94.888C404.326 94.3467 404.113 93.8247 404.113 93.322C404.113 92.9353 404.287 92.4327 404.635 91.814C405.022 91.1567 405.583 90.6927 406.317 90.422C406.395 90.2287 406.433 90.0353 406.433 89.842C406.433 89.61 406.433 89.3587 406.433 89.088C406.433 88.2373 406.356 87.29 406.201 86.246C406.085 85.1633 405.989 84.3707 405.911 83.868C405.873 83.636 406.105 83.3847 406.607 83.114C407.11 82.8433 407.613 82.708 408.115 82.708C408.811 82.708 409.295 82.94 409.565 83.404C409.836 83.868 410.01 84.448 410.087 85.144C410.165 85.84 410.261 86.536 410.377 87.232C412.117 86.536 413.529 86.014 414.611 85.666C415.694 85.318 416.719 85.086 417.685 84.97C418.652 84.854 419.812 84.796 421.165 84.796C423.679 84.796 425.96 85.202 428.009 86.014C430.097 86.826 431.76 88.044 432.997 89.668C434.235 91.2533 434.853 93.2447 434.853 95.642C434.853 97.9233 434.37 100.205 433.403 102.486C432.475 104.767 431.18 106.855 429.517 108.75C427.893 110.606 426.018 112.095 423.891 113.216C421.765 114.337 419.522 114.898 417.163 114.898C416.545 114.898 415.945 114.84 415.365 114.724C414.785 114.569 414.186 114.453 413.567 114.376C413.335 114.337 413.103 114.318 412.871 114.318C412.639 114.279 412.427 114.26 412.233 114.26H410.319C410.319 115.149 410.319 116.387 410.319 117.972C410.319 119.557 410.281 121.239 410.203 123.018C410.165 124.797 410.087 126.459 409.971 128.006C409.894 129.205 409.527 130.229 408.869 131.08C408.251 131.931 407.477 132.356 406.549 132.356ZM416.873 111.012C418.807 111.012 420.605 110.567 422.267 109.678C423.969 108.75 425.457 107.532 426.733 106.024C428.048 104.516 429.053 102.892 429.749 101.152C430.484 99.3733 430.851 97.6333 430.851 95.932C430.851 94.076 430.387 92.6067 429.459 91.524C428.531 90.4027 427.352 89.61 425.921 89.146C424.529 88.6433 423.06 88.392 421.513 88.392C420.74 88.392 419.928 88.4307 419.077 88.508C418.227 88.5467 417.415 88.74 416.641 89.088C414.94 89.8227 413.625 90.6347 412.697 91.524C411.808 92.3747 411.209 93.3993 410.899 94.598C410.745 95.1393 410.648 95.7 410.609 96.28C410.571 96.86 410.551 97.4593 410.551 98.078C410.551 98.6967 410.571 99.354 410.609 100.05C410.648 100.746 410.667 101.481 410.667 102.254V107.068C410.667 107.957 411.015 108.711 411.711 109.33C412.407 109.91 413.239 110.335 414.205 110.606C415.172 110.877 416.061 111.012 416.873 111.012Z" fill="#EFEFD0"/>
</svg>
