<svg width="500" height="200" viewBox="0 0 500 200" fill="none" xmlns="http://www.w3.org/2000/svg">
<rect width="500" height="200" fill="#0075A2"/>
<path d="M212.414 116C209.553 116 207.078 115.517 204.99 114.55C202.941 113.545 201.355 112.191 200.234 110.49C199.151 108.789 198.61 106.855 198.61 104.69C198.61 103.878 198.745 103.279 199.016 102.892C199.287 102.505 199.789 102.312 200.524 102.312C200.679 102.312 200.988 102.389 201.452 102.544C201.916 102.66 202.264 102.892 202.496 103.24C202.921 104.516 203.463 105.811 204.12 107.126C204.816 108.441 205.763 109.543 206.962 110.432C208.199 111.321 209.804 111.766 211.776 111.766C213.671 111.766 215.372 111.553 216.88 111.128C218.388 110.664 219.567 109.949 220.418 108.982C221.307 107.977 221.752 106.662 221.752 105.038C221.752 103.801 221.385 102.757 220.65 101.906C219.954 101.017 219.161 100.321 218.272 99.818C215.797 98.4647 213.613 97.324 211.718 96.396C209.823 95.468 208.219 94.5787 206.904 93.728C205.628 92.8387 204.642 91.7947 203.946 90.596C203.289 89.3587 202.96 87.7733 202.96 85.84C202.96 82.9013 204.12 80.6393 206.44 79.054C208.799 77.4687 211.853 76.676 215.604 76.676C216.493 76.676 217.537 76.792 218.736 77.024C219.973 77.2173 221.172 77.5267 222.332 77.952C223.531 78.3773 224.517 78.938 225.29 79.634C226.063 80.33 226.45 81.1807 226.45 82.186C226.45 82.7273 226.237 83.2107 225.812 83.636C225.387 84.0613 224.884 84.274 224.304 84.274C223.453 84.274 222.738 84.1193 222.158 83.81C221.617 83.462 221.017 83.0753 220.36 82.65C219.625 82.1473 218.775 81.6833 217.808 81.258C216.88 80.8327 215.681 80.62 214.212 80.62C213.091 80.62 212.008 80.8327 210.964 81.258C209.92 81.6447 209.05 82.2053 208.354 82.94C207.697 83.6747 207.368 84.5253 207.368 85.492C207.368 86.7293 207.716 87.7927 208.412 88.682C209.108 89.5713 209.939 90.3447 210.906 91.002C211.37 91.2727 211.873 91.5627 212.414 91.872C212.955 92.1427 213.516 92.4327 214.096 92.742C214.637 93.0127 215.198 93.2833 215.778 93.554C216.397 93.8247 216.996 94.1147 217.576 94.424C219.2 95.1973 220.669 96.048 221.984 96.976C223.337 97.904 224.42 99.006 225.232 100.282C226.044 101.558 226.45 103.143 226.45 105.038C226.45 107.358 225.773 109.349 224.42 111.012C223.067 112.636 221.327 113.873 219.2 114.724C217.073 115.575 214.811 116 212.414 116ZM245.647 115.42C242.786 115.42 240.543 114.917 238.919 113.912C237.295 112.907 236.154 111.418 235.497 109.446C234.878 107.435 234.569 104.961 234.569 102.022C234.569 100.669 234.627 99.2187 234.743 97.672C233.235 97.092 232.481 96.3767 232.481 95.526C232.481 94.7913 232.713 94.2693 233.177 93.96C233.68 93.612 234.24 93.3413 234.859 93.148C235.516 92.9547 236.058 92.7227 236.483 92.452C236.56 91.988 236.676 91.292 236.831 90.364C236.986 89.3973 237.14 88.392 237.295 87.348C237.488 86.2653 237.662 85.318 237.817 84.506C237.972 83.6553 238.068 83.1333 238.107 82.94C237.682 82.708 237.102 82.5727 236.367 82.534C235.671 82.4567 235.052 82.302 234.511 82.07C233.97 81.838 233.699 81.3547 233.699 80.62C233.699 79.8467 233.912 79.286 234.337 78.938C234.762 78.5513 235.458 78.2807 236.425 78.126C238.9 77.7007 241.278 77.3527 243.559 77.082C245.84 76.8113 248.218 76.676 250.693 76.676C251.234 76.676 251.969 76.676 252.897 76.676C253.825 76.676 254.753 76.7533 255.681 76.908C256.648 77.024 257.46 77.2753 258.117 77.662C258.774 78.0487 259.103 78.6287 259.103 79.402C259.103 79.8273 258.968 80.1947 258.697 80.504C258.465 80.8133 258.194 80.968 257.885 80.968H249.185C249.03 80.968 248.605 80.9873 247.909 81.026C247.213 81.026 246.459 81.0647 245.647 81.142C244.835 81.2193 244.158 81.374 243.617 81.606C243.037 81.838 242.573 82.5533 242.225 83.752C241.877 84.9507 241.626 86.3813 241.471 88.044C241.316 89.668 241.239 91.2727 241.239 92.858C241.742 92.8193 242.496 92.7807 243.501 92.742C244.506 92.6647 245.55 92.6067 246.633 92.568C247.754 92.5293 248.682 92.51 249.417 92.51H251.737C252.626 92.51 253.226 92.7033 253.535 93.09C253.883 93.4767 254.057 93.9987 254.057 94.656C254.057 95.9707 253.322 96.686 251.853 96.802L242.051 97.44C240.968 97.4787 240.234 97.672 239.847 98.02C239.499 98.3293 239.267 98.9287 239.151 99.818C239.074 100.553 239.016 101.113 238.977 101.5C238.977 101.887 238.977 102.235 238.977 102.544C239.016 102.815 239.035 103.066 239.035 103.298C239.035 103.491 239.035 103.665 239.035 103.82C239.035 104.709 239.112 105.657 239.267 106.662C239.422 107.629 239.77 108.499 240.311 109.272C240.891 110.045 241.78 110.567 242.979 110.838H245.937C247.87 110.838 249.92 110.683 252.085 110.374C254.289 110.065 256.222 109.717 257.885 109.33C257.962 109.291 258.059 109.272 258.175 109.272C258.291 109.272 258.368 109.272 258.407 109.272C258.948 109.272 259.296 109.465 259.451 109.852C259.644 110.239 259.741 110.664 259.741 111.128C259.741 112.868 257.982 114.086 254.463 114.782C253.226 115.053 251.814 115.227 250.229 115.304C248.644 115.381 247.116 115.42 245.647 115.42ZM282.084 116C279.686 116 277.502 115.497 275.53 114.492C273.596 113.487 271.914 112.114 270.484 110.374C269.092 108.634 268.009 106.681 267.236 104.516C266.462 102.312 266.076 100.05 266.076 97.73C266.076 92.6647 267.255 88.508 269.614 85.26C272.011 82.012 275.51 79.4407 280.112 77.546C281.349 77.082 282.702 76.6373 284.172 76.212C285.641 75.748 286.975 75.516 288.174 75.516C289.334 75.516 290.378 75.6707 291.306 75.98C292.272 76.2893 293.065 76.792 293.684 77.488C294.109 77.952 294.399 78.4353 294.554 78.938C294.708 79.402 294.786 79.866 294.786 80.33C295.095 80.6007 295.424 81.0067 295.772 81.548C296.158 82.0507 296.506 82.534 296.816 82.998C298.246 84.97 299.213 86.9807 299.716 89.03C300.257 91.0793 300.528 93.3607 300.528 95.874C300.528 98.5033 300.083 101.017 299.194 103.414C298.304 105.811 297.028 107.957 295.366 109.852C293.742 111.747 291.789 113.255 289.508 114.376C287.265 115.459 284.79 116 282.084 116ZM282.664 111.766C284.945 111.766 286.917 111.244 288.58 110.2C290.242 109.117 291.615 107.745 292.698 106.082C293.78 104.381 294.573 102.563 295.076 100.63C295.617 98.658 295.888 96.7827 295.888 95.004C295.888 94.192 295.772 93.1673 295.54 91.93C295.308 90.6927 294.94 89.4167 294.438 88.102C293.974 86.7487 293.374 85.492 292.64 84.332C291.905 83.172 291.035 82.2247 290.03 81.49C289.024 80.7553 287.903 80.388 286.666 80.388C284.23 80.388 282.026 80.8713 280.054 81.838C278.082 82.8047 276.38 84.1193 274.95 85.782C273.558 87.4447 272.494 89.32 271.76 91.408C271.025 93.4573 270.658 95.5647 270.658 97.73C270.658 99.3927 270.89 101.055 271.354 102.718C271.818 104.381 272.533 105.889 273.5 107.242C274.466 108.595 275.704 109.697 277.212 110.548C278.758 111.36 280.576 111.766 282.664 111.766Z" fill="#FFFBFE"/>
</svg>
