<svg width="500" height="200" viewBox="0 0 500 200" fill="none" xmlns="http://www.w3.org/2000/svg">
<rect width="500" height="200" fill="#00C6B9"/>
<path d="M127.644 116C124.783 116 122.308 115.517 120.22 114.55C118.171 113.545 116.586 112.191 115.464 110.49C114.382 108.789 113.84 106.855 113.84 104.69C113.84 103.878 113.976 103.279 114.246 102.892C114.517 102.505 115.02 102.312 115.754 102.312C115.909 102.312 116.218 102.389 116.682 102.544C117.146 102.66 117.494 102.892 117.726 103.24C118.152 104.516 118.693 105.811 119.35 107.126C120.046 108.441 120.994 109.543 122.192 110.432C123.43 111.321 125.034 111.766 127.006 111.766C128.901 111.766 130.602 111.553 132.11 111.128C133.618 110.664 134.798 109.949 135.648 108.982C136.538 107.977 136.982 106.662 136.982 105.038C136.982 103.801 136.615 102.757 135.88 101.906C135.184 101.017 134.392 100.321 133.502 99.818C131.028 98.4647 128.843 97.324 126.948 96.396C125.054 95.468 123.449 94.5787 122.134 93.728C120.858 92.8387 119.872 91.7947 119.176 90.596C118.519 89.3587 118.19 87.7733 118.19 85.84C118.19 82.9013 119.35 80.6393 121.67 79.054C124.029 77.4687 127.084 76.676 130.834 76.676C131.724 76.676 132.768 76.792 133.966 77.024C135.204 77.2173 136.402 77.5267 137.562 77.952C138.761 78.3773 139.747 78.938 140.52 79.634C141.294 80.33 141.68 81.1807 141.68 82.186C141.68 82.7273 141.468 83.2107 141.042 83.636C140.617 84.0613 140.114 84.274 139.534 84.274C138.684 84.274 137.968 84.1193 137.388 83.81C136.847 83.462 136.248 83.0753 135.59 82.65C134.856 82.1473 134.005 81.6833 133.038 81.258C132.11 80.8327 130.912 80.62 129.442 80.62C128.321 80.62 127.238 80.8327 126.194 81.258C125.15 81.6447 124.28 82.2053 123.584 82.94C122.927 83.6747 122.598 84.5253 122.598 85.492C122.598 86.7293 122.946 87.7927 123.642 88.682C124.338 89.5713 125.17 90.3447 126.136 91.002C126.6 91.2727 127.103 91.5627 127.644 91.872C128.186 92.1427 128.746 92.4327 129.326 92.742C129.868 93.0127 130.428 93.2833 131.008 93.554C131.627 93.8247 132.226 94.1147 132.806 94.424C134.43 95.1973 135.9 96.048 137.214 96.976C138.568 97.904 139.65 99.006 140.462 100.282C141.274 101.558 141.68 103.143 141.68 105.038C141.68 107.358 141.004 109.349 139.65 111.012C138.297 112.636 136.557 113.873 134.43 114.724C132.304 115.575 130.042 116 127.644 116ZM150.96 132.356C150.302 132.356 149.877 132.008 149.684 131.312C149.49 130.655 149.394 129.92 149.394 129.108C149.394 128.799 149.394 128.47 149.394 128.122C149.432 127.813 149.452 127.523 149.452 127.252C149.452 123.308 149.626 119.538 149.974 115.942C150.322 112.307 150.573 108.789 150.728 105.386C150.766 104.497 150.805 103.395 150.844 102.08C150.882 100.765 150.902 99.5087 150.902 98.31C150.94 97.1113 150.94 96.2413 150.902 95.7C150.167 95.7 149.587 95.4293 149.162 94.888C148.736 94.3467 148.524 93.8247 148.524 93.322C148.524 92.9353 148.698 92.4327 149.046 91.814C149.432 91.1567 149.993 90.6927 150.728 90.422C150.805 90.2287 150.844 90.0353 150.844 89.842C150.844 89.61 150.844 89.3587 150.844 89.088C150.844 88.2373 150.766 87.29 150.612 86.246C150.496 85.1633 150.399 84.3707 150.322 83.868C150.283 83.636 150.515 83.3847 151.018 83.114C151.52 82.8433 152.023 82.708 152.526 82.708C153.222 82.708 153.705 82.94 153.976 83.404C154.246 83.868 154.42 84.448 154.498 85.144C154.575 85.84 154.672 86.536 154.788 87.232C156.528 86.536 157.939 86.014 159.022 85.666C160.104 85.318 161.129 85.086 162.096 84.97C163.062 84.854 164.222 84.796 165.576 84.796C168.089 84.796 170.37 85.202 172.42 86.014C174.508 86.826 176.17 88.044 177.408 89.668C178.645 91.2533 179.264 93.2447 179.264 95.642C179.264 97.9233 178.78 100.205 177.814 102.486C176.886 104.767 175.59 106.855 173.928 108.75C172.304 110.606 170.428 112.095 168.302 113.216C166.175 114.337 163.932 114.898 161.574 114.898C160.955 114.898 160.356 114.84 159.776 114.724C159.196 114.569 158.596 114.453 157.978 114.376C157.746 114.337 157.514 114.318 157.282 114.318C157.05 114.279 156.837 114.26 156.644 114.26H154.73C154.73 115.149 154.73 116.387 154.73 117.972C154.73 119.557 154.691 121.239 154.614 123.018C154.575 124.797 154.498 126.459 154.382 128.006C154.304 129.205 153.937 130.229 153.28 131.08C152.661 131.931 151.888 132.356 150.96 132.356ZM161.284 111.012C163.217 111.012 165.015 110.567 166.678 109.678C168.379 108.75 169.868 107.532 171.144 106.024C172.458 104.516 173.464 102.892 174.16 101.152C174.894 99.3733 175.262 97.6333 175.262 95.932C175.262 94.076 174.798 92.6067 173.87 91.524C172.942 90.4027 171.762 89.61 170.332 89.146C168.94 88.6433 167.47 88.392 165.924 88.392C165.15 88.392 164.338 88.4307 163.488 88.508C162.637 88.5467 161.825 88.74 161.052 89.088C159.35 89.8227 158.036 90.6347 157.108 91.524C156.218 92.3747 155.619 93.3993 155.31 94.598C155.155 95.1393 155.058 95.7 155.02 96.28C154.981 96.86 154.962 97.4593 154.962 98.078C154.962 98.6967 154.981 99.354 155.02 100.05C155.058 100.746 155.078 101.481 155.078 102.254V107.068C155.078 107.957 155.426 108.711 156.122 109.33C156.818 109.91 157.649 110.335 158.616 110.606C159.582 110.877 160.472 111.012 161.284 111.012ZM199.63 116.87C196.691 116.87 194.023 116.445 191.626 115.594C189.267 114.705 187.392 113.332 186 111.476C184.608 109.581 183.912 107.145 183.912 104.168C183.912 101.809 184.298 99.5087 185.072 97.266C185.884 95.0233 187.024 92.9933 188.494 91.176C189.963 89.3587 191.722 87.928 193.772 86.884C195.821 85.8013 198.102 85.26 200.616 85.26C202.356 85.26 203.922 85.5887 205.314 86.246C206.744 86.9033 207.885 87.8313 208.736 89.03C209.586 90.2287 210.012 91.6593 210.012 93.322C210.012 95.1007 209.625 96.802 208.852 98.426C208.117 100.011 207.112 101.423 205.836 102.66C204.56 103.897 203.11 104.883 201.486 105.618C199.9 106.314 198.238 106.662 196.498 106.662C194.99 106.662 193.578 106.546 192.264 106.314C190.949 106.043 189.731 105.637 188.61 105.096C188.61 106.565 188.958 107.822 189.654 108.866C190.35 109.871 191.239 110.703 192.322 111.36C193.404 111.979 194.526 112.443 195.686 112.752C196.884 113.023 197.986 113.158 198.992 113.158C199.804 113.158 200.616 113.119 201.428 113.042C202.24 112.926 203.129 112.868 204.096 112.868C205.526 112.868 206.242 113.487 206.242 114.724C206.242 115.691 205.565 116.309 204.212 116.58C203.477 116.735 202.723 116.812 201.95 116.812C201.176 116.851 200.403 116.87 199.63 116.87ZM196.498 102.022C197.851 102.022 199.262 101.751 200.732 101.21C202.201 100.669 203.438 99.818 204.444 98.658C205.488 97.498 206.01 96.0287 206.01 94.25C206.01 92.6647 205.507 91.3887 204.502 90.422C203.535 89.4167 202.24 88.914 200.616 88.914C199.146 88.914 197.696 89.262 196.266 89.958C194.874 90.6153 193.598 91.524 192.438 92.684C191.278 93.8053 190.35 95.0813 189.654 96.512C188.958 97.9427 188.61 99.412 188.61 100.92C189.499 101.384 190.62 101.693 191.974 101.848C193.327 101.964 194.835 102.022 196.498 102.022ZM228.787 115.13C226.08 115.13 223.799 114.473 221.943 113.158C220.087 111.843 218.676 110.084 217.709 107.88C216.742 105.637 216.259 103.201 216.259 100.572C216.259 97.6333 216.916 94.946 218.231 92.51C219.546 90.074 221.363 88.1213 223.683 86.652C226.003 85.144 228.632 84.39 231.571 84.39C232.383 84.39 233.33 84.448 234.413 84.564C235.496 84.68 236.54 84.912 237.545 85.26C238.55 85.608 239.382 86.1107 240.039 86.768C240.696 87.4253 241.025 88.2953 241.025 89.378C241.025 89.8033 240.851 90.1707 240.503 90.48C240.155 90.7893 239.594 90.944 238.821 90.944C238.202 90.944 237.622 90.7893 237.081 90.48C236.578 90.1707 236.095 89.8613 235.631 89.552C234.935 89.088 234.2 88.682 233.427 88.334C232.692 87.9473 231.88 87.754 230.991 87.754C229.29 87.754 227.801 88.1987 226.525 89.088C225.249 89.9387 224.186 91.06 223.335 92.452C222.484 93.8053 221.846 95.2553 221.421 96.802C220.996 98.31 220.783 99.702 220.783 100.978C220.783 103.491 221.266 105.502 222.233 107.01C223.238 108.479 224.553 109.543 226.177 110.2C227.84 110.819 229.638 111.128 231.571 111.128C233.427 111.128 235.109 110.799 236.617 110.142C238.164 109.485 239.73 108.789 241.315 108.054C241.856 107.783 242.301 107.648 242.649 107.648C243.113 107.648 243.422 107.841 243.577 108.228C243.732 108.576 243.809 109.021 243.809 109.562C243.809 110.567 243.403 111.418 242.591 112.114C241.779 112.771 240.754 113.313 239.517 113.738C238.28 114.125 236.946 114.434 235.515 114.666C234.123 114.859 232.828 114.995 231.629 115.072C230.43 115.111 229.483 115.13 228.787 115.13ZM256.343 78.068C255.067 78.068 254.042 77.778 253.269 77.198C252.534 76.5793 252.167 75.7867 252.167 74.82C252.167 73.9307 252.592 73.254 253.443 72.79C254.294 72.2873 255.376 72.036 256.691 72.036C258.006 72.036 259.03 72.3453 259.765 72.964C260.5 73.544 260.867 74.356 260.867 75.4C260.867 76.2507 260.442 76.908 259.591 77.372C258.779 77.836 257.696 78.068 256.343 78.068ZM253.327 115.13C252.786 115.13 252.36 114.782 252.051 114.086C251.78 113.39 251.587 112.501 251.471 111.418C251.394 110.335 251.355 109.214 251.355 108.054C251.355 107.513 251.355 106.971 251.355 106.43C251.394 105.85 251.413 105.309 251.413 104.806C251.413 104.651 251.471 104.149 251.587 103.298C251.703 102.409 251.838 101.384 251.993 100.224C252.148 99.064 252.302 97.9233 252.457 96.802C252.65 95.642 252.805 94.7333 252.921 94.076C253.037 93.5733 253.172 92.916 253.327 92.104C253.482 91.2533 253.752 90.4993 254.139 89.842C254.564 89.146 255.164 88.798 255.937 88.798C256.826 88.798 257.445 88.972 257.793 89.32C258.18 89.6293 258.373 90.132 258.373 90.828C258.373 91.0213 258.354 91.2147 258.315 91.408C258.315 91.6013 258.296 91.814 258.257 92.046C258.064 93.2833 257.812 94.83 257.503 96.686C257.232 98.5033 256.981 100.417 256.749 102.428C256.556 104.4 256.498 106.275 256.575 108.054C256.614 108.479 256.652 108.982 256.691 109.562C256.768 110.103 256.807 110.645 256.807 111.186C256.807 112.191 256.594 113.1 256.169 113.912C255.744 114.724 254.796 115.13 253.327 115.13ZM275.351 116.58C273.611 116.58 271.987 116.193 270.479 115.42C269.009 114.647 267.772 113.603 266.767 112.288C265.761 110.973 265.104 109.504 264.795 107.88V104.806C264.795 102.602 265.201 100.379 266.013 98.136C266.825 95.8933 267.946 93.8247 269.377 91.93C270.846 90.0353 272.567 88.5273 274.539 87.406C276.549 86.246 278.715 85.666 281.035 85.666C282.504 85.666 283.915 85.9173 285.269 86.42C286.661 86.9227 287.898 87.5027 288.981 88.16C289.213 86.536 289.503 85.4147 289.851 84.796C290.199 84.1773 290.798 83.868 291.649 83.868C292.306 83.868 292.77 84.0807 293.041 84.506C293.311 84.8927 293.447 85.5887 293.447 86.594C293.447 88.914 293.389 91.1953 293.273 93.438C293.195 95.642 293.157 97.904 293.157 100.224C293.157 102.08 293.253 103.994 293.447 105.966C293.679 107.938 293.795 109.833 293.795 111.65C293.795 112.23 293.795 112.81 293.795 113.39C293.833 113.97 293.737 114.453 293.505 114.84C293.311 115.188 292.886 115.362 292.229 115.362C291.301 115.362 290.605 114.937 290.141 114.086C289.715 113.197 289.425 112.133 289.271 110.896C289.116 109.659 288.961 108.499 288.807 107.416C288.42 108.46 287.763 109.485 286.835 110.49C285.945 111.495 285.037 112.365 284.109 113.1C283.219 113.796 282.523 114.299 282.021 114.608C281.557 114.879 281.557 114.84 282.021 114.492C281.17 115.111 280.107 115.613 278.831 116C277.593 116.387 276.433 116.58 275.351 116.58ZM274.771 112.926C276.511 112.926 278.135 112.423 279.643 111.418C281.151 110.413 282.465 109.117 283.587 107.532C284.747 105.947 285.636 104.284 286.255 102.544C286.912 100.804 287.241 99.1993 287.241 97.73C287.241 96.9953 287.144 96.164 286.951 95.236C286.796 94.2693 286.487 93.3413 286.023 92.452C285.559 91.5627 284.921 90.828 284.109 90.248C283.335 89.668 282.311 89.378 281.035 89.378C279.372 89.378 277.787 89.9193 276.279 91.002C274.771 92.046 273.417 93.3993 272.219 95.062C271.059 96.686 270.15 98.368 269.493 100.108C268.835 101.848 268.507 103.414 268.507 104.806C268.507 105.85 268.681 107.01 269.029 108.286C269.415 109.562 270.053 110.664 270.943 111.592C271.871 112.481 273.147 112.926 274.771 112.926ZM305.416 116.29C304.682 116.29 304.121 116 303.734 115.42C303.348 114.84 303.077 114.125 302.922 113.274C302.768 112.423 302.671 111.573 302.632 110.722C302.632 109.871 302.632 109.195 302.632 108.692C302.632 108.383 302.613 108.035 302.574 107.648C302.574 107.261 302.574 106.875 302.574 106.488C302.574 104.555 302.632 102.215 302.748 99.47C302.864 96.686 303.019 93.7667 303.212 90.712C303.444 87.6187 303.696 84.6027 303.966 81.664C304.276 78.7253 304.604 76.1153 304.952 73.834C305.262 72.7127 305.668 71.9007 306.17 71.398C306.712 70.8953 307.234 70.644 307.736 70.644C308.2 70.644 308.606 70.8567 308.954 71.282C309.341 71.7073 309.534 72.3067 309.534 73.08C309.534 73.2347 309.534 73.37 309.534 73.486C309.534 73.602 309.515 73.7373 309.476 73.892C308.51 78.5707 307.891 83.462 307.62 88.566C307.35 93.67 307.214 98.5807 307.214 103.298C307.214 105.231 307.234 106.952 307.272 108.46C307.35 109.929 307.388 111.457 307.388 113.042C307.388 113.893 307.195 114.647 306.808 115.304C306.46 115.961 305.996 116.29 305.416 116.29ZM321.989 78.068C320.713 78.068 319.689 77.778 318.915 77.198C318.181 76.5793 317.813 75.7867 317.813 74.82C317.813 73.9307 318.239 73.254 319.089 72.79C319.94 72.2873 321.023 72.036 322.337 72.036C323.652 72.036 324.677 72.3453 325.411 72.964C326.146 73.544 326.513 74.356 326.513 75.4C326.513 76.2507 326.088 76.908 325.237 77.372C324.425 77.836 323.343 78.068 321.989 78.068ZM318.973 115.13C318.432 115.13 318.007 114.782 317.697 114.086C317.427 113.39 317.233 112.501 317.117 111.418C317.04 110.335 317.001 109.214 317.001 108.054C317.001 107.513 317.001 106.971 317.001 106.43C317.04 105.85 317.059 105.309 317.059 104.806C317.059 104.651 317.117 104.149 317.233 103.298C317.349 102.409 317.485 101.384 317.639 100.224C317.794 99.064 317.949 97.9233 318.103 96.802C318.297 95.642 318.451 94.7333 318.567 94.076C318.683 93.5733 318.819 92.916 318.973 92.104C319.128 91.2533 319.399 90.4993 319.785 89.842C320.211 89.146 320.81 88.798 321.583 88.798C322.473 88.798 323.091 88.972 323.439 89.32C323.826 89.6293 324.019 90.132 324.019 90.828C324.019 91.0213 324 91.2147 323.961 91.408C323.961 91.6013 323.942 91.814 323.903 92.046C323.71 93.2833 323.459 94.83 323.149 96.686C322.879 98.5033 322.627 100.417 322.395 102.428C322.202 104.4 322.144 106.275 322.221 108.054C322.26 108.479 322.299 108.982 322.337 109.562C322.415 110.103 322.453 110.645 322.453 111.186C322.453 112.191 322.241 113.1 321.815 113.912C321.39 114.724 320.443 115.13 318.973 115.13ZM334.791 116.29C334.211 116.29 333.554 116.251 332.819 116.174C332.084 116.097 331.446 115.903 330.905 115.594C330.364 115.285 330.035 114.782 329.919 114.086C329.919 113.39 329.938 112.791 329.977 112.288C330.016 111.785 330.344 111.167 330.963 110.432C332.007 109.117 333.244 107.687 334.675 106.14C336.106 104.555 337.575 102.989 339.083 101.442C340.63 99.8567 342.118 98.368 343.549 96.976C345.018 95.584 346.294 94.4047 347.377 93.438C347.918 92.8967 348.189 92.4133 348.189 91.988C348.189 91.292 347.493 90.944 346.101 90.944H342.795C341.712 90.944 340.804 90.9633 340.069 91.002C339.373 91.002 338.696 91.0213 338.039 91.06C337.42 91.0987 336.686 91.176 335.835 91.292C335.68 91.3307 335.526 91.35 335.371 91.35C335.216 91.35 335.062 91.35 334.907 91.35C334.559 91.35 334.269 91.2727 334.037 91.118C333.805 90.9247 333.689 90.5573 333.689 90.016C333.689 89.1267 334.076 88.5853 334.849 88.392C335.622 88.16 336.357 87.986 337.053 87.87C337.71 87.7927 338.522 87.7347 339.489 87.696C340.494 87.6573 341.577 87.638 342.737 87.638C343.858 87.638 345.018 87.6767 346.217 87.754C347.416 87.7927 348.537 87.9087 349.581 88.102C350.934 88.3727 351.959 88.7787 352.655 89.32C353.39 89.8613 353.757 90.6347 353.757 91.64C353.757 92.452 353.409 93.2447 352.713 94.018C352.017 94.7913 351.186 95.584 350.219 96.396C349.252 97.1693 348.344 97.9813 347.493 98.832C346.565 99.7213 345.424 100.843 344.071 102.196C342.718 103.549 341.384 104.922 340.069 106.314C338.754 107.667 337.71 108.866 336.937 109.91C336.666 110.297 336.454 110.625 336.299 110.896C336.144 111.128 336.067 111.341 336.067 111.534C336.067 111.805 336.357 111.94 336.937 111.94C339.334 111.94 341.596 111.824 343.723 111.592C345.888 111.321 347.841 111.109 349.581 110.954C349.774 110.915 349.968 110.896 350.161 110.896C350.354 110.896 350.528 110.896 350.683 110.896C351.534 110.896 352.249 111.031 352.829 111.302C353.448 111.573 353.757 112.095 353.757 112.868C353.757 113.68 353.409 114.279 352.713 114.666C352.056 115.014 351.263 115.246 350.335 115.362C349.446 115.478 348.653 115.575 347.957 115.652C347.609 115.652 346.874 115.691 345.753 115.768C344.67 115.845 343.414 115.923 341.983 116C340.591 116.077 339.238 116.135 337.923 116.174C336.608 116.251 335.564 116.29 334.791 116.29ZM375.272 116.87C372.334 116.87 369.666 116.445 367.268 115.594C364.91 114.705 363.034 113.332 361.642 111.476C360.25 109.581 359.554 107.145 359.554 104.168C359.554 101.809 359.941 99.5087 360.714 97.266C361.526 95.0233 362.667 92.9933 364.136 91.176C365.606 89.3587 367.365 87.928 369.414 86.884C371.464 85.8013 373.745 85.26 376.258 85.26C377.998 85.26 379.564 85.5887 380.956 86.246C382.387 86.9033 383.528 87.8313 384.378 89.03C385.229 90.2287 385.654 91.6593 385.654 93.322C385.654 95.1007 385.268 96.802 384.494 98.426C383.76 100.011 382.754 101.423 381.478 102.66C380.202 103.897 378.752 104.883 377.128 105.618C375.543 106.314 373.88 106.662 372.14 106.662C370.632 106.662 369.221 106.546 367.906 106.314C366.592 106.043 365.374 105.637 364.252 105.096C364.252 106.565 364.6 107.822 365.296 108.866C365.992 109.871 366.882 110.703 367.964 111.36C369.047 111.979 370.168 112.443 371.328 112.752C372.527 113.023 373.629 113.158 374.634 113.158C375.446 113.158 376.258 113.119 377.07 113.042C377.882 112.926 378.772 112.868 379.738 112.868C381.169 112.868 381.884 113.487 381.884 114.724C381.884 115.691 381.208 116.309 379.854 116.58C379.12 116.735 378.366 116.812 377.592 116.812C376.819 116.851 376.046 116.87 375.272 116.87ZM372.14 102.022C373.494 102.022 374.905 101.751 376.374 101.21C377.844 100.669 379.081 99.818 380.086 98.658C381.13 97.498 381.652 96.0287 381.652 94.25C381.652 92.6647 381.15 91.3887 380.144 90.422C379.178 89.4167 377.882 88.914 376.258 88.914C374.789 88.914 373.339 89.262 371.908 89.958C370.516 90.6153 369.24 91.524 368.08 92.684C366.92 93.8053 365.992 95.0813 365.296 96.512C364.6 97.9427 364.252 99.412 364.252 100.92C365.142 101.384 366.263 101.693 367.616 101.848C368.97 101.964 370.478 102.022 372.14 102.022Z" fill="#002E29"/>
</svg>
