<svg width="500" height="200" viewBox="0 0 500 200" fill="none" xmlns="http://www.w3.org/2000/svg">
<rect width="500" height="200" fill="#3E2F5B"/>
<path d="M124.099 114.84C123.596 114.84 123.152 114.685 122.765 114.376C122.378 114.028 122.185 113.506 122.185 112.81C122.185 112.655 122.185 112.52 122.185 112.404C122.224 112.249 122.262 112.095 122.301 111.94C122.997 108.537 123.519 105.251 123.867 102.08C124.215 98.9093 124.447 95.7 124.563 92.452C124.679 89.1653 124.737 85.724 124.737 82.128C122.726 82.128 121.083 82.1667 119.807 82.244C118.531 82.2827 117.294 82.3407 116.095 82.418C115.708 82.4567 115.302 82.4953 114.877 82.534C114.452 82.534 114.026 82.534 113.601 82.534C113.33 82.534 113.079 82.534 112.847 82.534C112.615 82.4953 112.402 82.4567 112.209 82.418C111.474 82.2633 110.952 82.0313 110.643 81.722C110.372 81.4127 110.237 80.9487 110.237 80.33C110.237 79.3247 110.662 78.706 111.513 78.474C112.364 78.2033 113.369 77.9907 114.529 77.836C115.302 77.72 116.54 77.6233 118.241 77.546C119.942 77.43 121.798 77.3333 123.809 77.256C125.858 77.14 127.85 77.0433 129.783 76.966C131.716 76.85 133.302 76.7533 134.539 76.676C135.351 76.676 136.337 76.7147 137.497 76.792C138.657 76.8307 139.798 76.9853 140.919 77.256C142.079 77.5267 143.046 77.9713 143.819 78.59C144.592 79.2087 144.979 80.098 144.979 81.258C144.979 81.7607 144.786 82.244 144.399 82.708C144.051 83.1333 143.645 83.346 143.181 83.346C143.026 83.346 142.872 83.3073 142.717 83.23C142.601 83.1527 142.466 83.0753 142.311 82.998C142.002 82.8433 141.692 82.6887 141.383 82.534C141.074 82.3793 140.745 82.2633 140.397 82.186C139.082 81.838 137.652 81.6447 136.105 81.606C134.597 81.5287 132.644 81.49 130.247 81.49C129.628 81.49 129.319 81.8573 129.319 82.592C129.319 84.0613 129.3 85.8013 129.261 87.812C129.222 89.784 129.145 91.872 129.029 94.076C128.952 96.28 128.816 98.4647 128.623 100.63C128.468 102.757 128.275 104.729 128.043 106.546C127.811 108.363 127.54 109.871 127.231 111.07C126.999 112.075 126.612 112.984 126.071 113.796C125.8 114.183 125.452 114.453 125.027 114.608C124.64 114.763 124.331 114.84 124.099 114.84ZM152.272 116.58C151.846 116.58 151.518 116.387 151.286 116C151.092 115.613 150.957 115.169 150.88 114.666C150.802 114.163 150.725 113.738 150.648 113.39V108.808C150.648 106.488 150.744 104.11 150.938 101.674C151.17 99.238 151.286 96.86 151.286 94.54C151.286 93.4187 151.208 92.2973 151.054 91.176C150.938 90.0547 150.802 89.1073 150.648 88.334C150.609 88.1407 150.57 87.9667 150.532 87.812C150.532 87.6573 150.532 87.5027 150.532 87.348C150.532 86.8453 150.686 86.5167 150.996 86.362C151.305 86.2073 151.827 86.13 152.562 86.13C153.451 86.13 154.108 86.5167 154.534 87.29C154.959 88.0633 155.268 88.972 155.462 90.016C155.694 91.0213 155.906 91.93 156.1 92.742C157.221 91.3887 158.439 90.4027 159.754 89.784C161.068 89.1653 162.17 88.624 163.06 88.16C163.91 87.7347 164.761 87.406 165.612 87.174C166.501 86.9033 167.487 86.768 168.57 86.768C169.652 86.768 170.658 87.0773 171.586 87.696C172.552 88.276 173.036 88.914 173.036 89.61C173.036 90.422 172.784 91.0213 172.282 91.408C171.779 91.7947 171.199 91.988 170.542 91.988C170.348 91.988 170.155 91.9687 169.962 91.93C169.807 91.8527 169.633 91.7947 169.44 91.756C169.169 91.64 168.86 91.5433 168.512 91.466C168.202 91.3887 167.893 91.35 167.584 91.35C166.385 91.35 165.225 91.582 164.104 92.046C162.982 92.4713 162.035 92.8967 161.262 93.322C159.908 94.0567 158.845 94.888 158.072 95.816C157.337 96.7053 156.718 97.5367 156.216 98.31C155.945 99.7793 155.771 101.21 155.694 102.602C155.616 103.994 155.558 105.077 155.52 105.85C155.481 106.662 155.442 107.513 155.404 108.402C155.365 109.291 155.307 110.181 155.23 111.07C155.152 111.998 155.036 112.887 154.882 113.738C154.727 114.589 154.456 115.285 154.07 115.826C153.683 116.329 153.084 116.58 152.272 116.58ZM182.041 131.196C181.925 131.196 181.751 131.041 181.519 130.732C181.287 130.423 181.171 129.959 181.171 129.34C181.171 128.799 181.229 128.257 181.345 127.716C181.5 127.175 181.693 126.633 181.925 126.092C182.196 125.512 182.467 124.932 182.737 124.352C183.008 123.772 183.279 123.192 183.549 122.612C183.781 122.032 184.052 121.297 184.361 120.408C184.709 119.519 185.038 118.61 185.347 117.682C185.657 116.793 185.908 116.019 186.101 115.362C186.333 114.705 186.449 114.337 186.449 114.26V112.752C184.052 112.752 182.061 112.307 180.475 111.418C178.89 110.529 177.633 109.349 176.705 107.88C175.777 106.411 175.101 104.787 174.675 103.008C174.25 101.191 173.96 99.354 173.805 97.498C173.689 95.6033 173.631 93.844 173.631 92.22C173.631 91.4467 173.651 90.6927 173.689 89.958C173.728 89.2233 173.825 88.4887 173.979 87.754C174.173 86.8647 174.405 86.2847 174.675 86.014C174.985 85.7047 175.275 85.55 175.545 85.55C176.435 85.55 177.053 85.898 177.401 86.594C177.788 87.2513 177.981 88.218 177.981 89.494C177.981 90.3833 177.923 91.234 177.807 92.046C177.691 92.8193 177.633 93.67 177.633 94.598V95.178C177.633 95.526 177.691 96.2027 177.807 97.208C177.962 98.1747 178.117 99.1607 178.271 100.166C178.426 101.171 178.542 101.925 178.619 102.428C178.813 103.279 179.103 104.187 179.489 105.154C179.876 106.082 180.417 106.875 181.113 107.532C181.848 108.189 182.776 108.518 183.897 108.518C185.405 108.518 186.739 107.977 187.899 106.894C189.098 105.773 190.181 104.342 191.147 102.602C192.153 100.823 193.061 98.9673 193.873 97.034C194.183 96.3767 194.473 95.7193 194.743 95.062C195.014 94.4047 195.285 93.7667 195.555 93.148C195.865 92.5293 196.155 91.9493 196.425 91.408C196.696 90.8667 196.986 90.3447 197.295 89.842C197.914 88.8367 198.475 88.1213 198.977 87.696C199.519 87.2707 200.041 87.058 200.543 87.058C201.046 87.058 201.413 87.1933 201.645 87.464C201.916 87.7347 202.051 88.1987 202.051 88.856C202.051 90.0547 201.839 91.234 201.413 92.394C201.027 93.554 200.524 94.714 199.905 95.874C199.248 97.0727 198.552 98.252 197.817 99.412C197.083 100.572 196.445 101.732 195.903 102.892C195.594 103.588 195.169 104.535 194.627 105.734C194.125 106.894 193.583 108.112 193.003 109.388C192.462 110.625 191.979 111.727 191.553 112.694C191.167 113.661 190.935 114.26 190.857 114.492C190.819 114.685 190.664 115.13 190.393 115.826C190.123 116.483 189.813 117.276 189.465 118.204C189.156 119.132 188.827 120.06 188.479 120.988C188.131 121.955 187.822 122.767 187.551 123.424C187.319 124.12 187.165 124.565 187.087 124.758C186.855 125.454 186.527 126.305 186.101 127.31C185.676 128.315 185.135 129.205 184.477 129.978C183.859 130.79 183.047 131.196 182.041 131.196ZM235.444 115.42C235.057 115.42 234.67 115.304 234.284 115.072C233.936 114.84 233.704 114.589 233.588 114.318V112.694C233.588 111.882 233.704 111.07 233.936 110.258C234.206 109.446 234.419 108.634 234.574 107.822C234.651 107.513 234.709 107.165 234.748 106.778C234.786 106.353 234.806 105.676 234.806 104.748H231.558C231.287 104.709 231.016 104.671 230.746 104.632C230.475 104.593 230.243 104.555 230.05 104.516C229.779 104.4 229.528 104.226 229.296 103.994C229.102 103.723 229.006 103.259 229.006 102.602C229.006 101.829 229.18 101.307 229.528 101.036C229.914 100.765 230.514 100.553 231.326 100.398C231.751 100.321 232.196 100.263 232.66 100.224C233.162 100.147 233.626 100.089 234.052 100.05C234.516 99.9727 234.999 99.8567 235.502 99.702C236.004 99.5473 236.468 99.296 236.894 98.948C237.087 98.7933 237.3 98.5807 237.532 98.31C237.802 98.0393 237.938 97.904 237.938 97.904C238.015 97.8267 238.092 97.7107 238.17 97.556C238.247 97.3627 238.344 97.1307 238.46 96.86C238.537 96.7053 238.614 96.5313 238.692 96.338C238.769 96.106 238.827 95.8933 238.866 95.7C238.982 95.3907 239.078 95.1007 239.156 94.83C239.272 94.5207 239.388 94.2887 239.504 94.134C239.774 93.6313 240.18 92.8387 240.722 91.756C241.263 90.6347 241.843 89.436 242.462 88.16C243.119 86.8453 243.699 85.666 244.202 84.622C244.743 83.578 245.13 82.8627 245.362 82.476C245.748 81.8187 246.135 81.1613 246.522 80.504C246.947 79.8467 247.411 79.228 247.914 78.648C248.996 77.3333 249.944 76.676 250.756 76.676C251.49 76.676 252.128 76.8693 252.67 77.256C253.211 77.604 253.714 78.1067 254.178 78.764C254.642 79.46 255.028 80.1947 255.338 80.968C255.686 81.7027 256.034 82.4567 256.382 83.23C258.392 87.5993 260.171 92.1427 261.718 96.86C263.303 101.577 264.56 106.275 265.488 110.954V111.766C265.488 112.423 265.294 113.003 264.908 113.506C264.521 113.97 264.192 114.202 263.922 114.202C262.994 114.202 262.298 113.873 261.834 113.216C261.408 112.559 261.06 111.573 260.79 110.258C260.635 109.601 260.5 108.963 260.384 108.344C260.306 107.687 260.21 107.068 260.094 106.488C259.939 105.947 259.688 105.367 259.34 104.748C259.03 104.091 258.721 103.569 258.412 103.182H251.974C251.355 103.182 250.659 103.182 249.886 103.182C249.112 103.143 248.3 103.124 247.45 103.124C246.599 103.124 245.729 103.182 244.84 103.298C243.95 103.375 243.119 103.569 242.346 103.878C241.34 104.265 240.567 104.864 240.026 105.676C239.523 106.488 239.136 107.397 238.866 108.402C238.634 109.369 238.421 110.316 238.228 111.244C238.034 112.288 237.783 113.255 237.474 114.144C237.203 114.995 236.526 115.42 235.444 115.42ZM250.408 98.948C252.573 98.948 254.081 98.9287 254.932 98.89C255.782 98.8513 256.343 98.658 256.614 98.31C256.73 98.0007 256.788 97.6527 256.788 97.266C256.788 96.7247 256.691 96.1253 256.498 95.468C256.343 94.772 256.15 94.1533 255.918 93.612C255.763 93.2253 255.531 92.6453 255.222 91.872C254.912 91.06 254.564 90.1707 254.178 89.204C253.791 88.2373 253.424 87.3093 253.076 86.42C252.728 85.5307 252.457 84.8347 252.264 84.332C252.186 84.0613 252.012 83.7907 251.742 83.52C251.51 83.2107 251.22 83.056 250.872 83.056C250.562 83.056 250.253 83.2493 249.944 83.636C249.596 84.1 249.112 84.8927 248.494 86.014C247.914 87.1353 247.276 88.3727 246.58 89.726C245.884 91.0793 245.246 92.394 244.666 93.67C244.086 94.9073 243.66 95.874 243.39 96.57C243.158 97.0727 243.042 97.4787 243.042 97.788C243.042 98.2907 243.235 98.6193 243.622 98.774C244.047 98.89 244.472 98.948 244.898 98.948H250.408ZM285.658 132.356C284.305 132.356 282.99 132.163 281.714 131.776C280.438 131.389 279.356 130.79 278.466 129.978C277.616 129.166 277.074 128.141 276.842 126.904C276.765 126.479 276.9 126.131 277.248 125.86C277.635 125.589 278.138 125.454 278.756 125.454C279.104 125.454 279.414 125.531 279.684 125.686C279.955 125.841 280.226 126.015 280.496 126.208C280.612 126.324 280.728 126.421 280.844 126.498C280.96 126.614 281.076 126.711 281.192 126.788C281.695 127.175 282.294 127.6 282.99 128.064C283.686 128.528 284.556 128.76 285.6 128.76C287.186 128.76 288.52 128.296 289.602 127.368C290.685 126.479 291.574 125.319 292.27 123.888C293.005 122.496 293.546 121.046 293.894 119.538C294.281 118.03 294.532 116.696 294.648 115.536C294.803 114.144 294.938 112.578 295.054 110.838C295.17 109.098 295.228 107.571 295.228 106.256C295.228 105.096 295.17 104.265 295.054 103.762C294.204 104.922 293.276 106.024 292.27 107.068C291.304 108.112 290.395 109.021 289.544 109.794C288.732 110.567 288.133 111.128 287.746 111.476C287.05 112.056 286.219 112.655 285.252 113.274C284.324 113.893 283.338 114.415 282.294 114.84C281.289 115.265 280.303 115.478 279.336 115.478C277.906 115.478 276.572 115.13 275.334 114.434C274.097 113.738 273.092 112.791 272.318 111.592C271.584 110.393 271.216 109.059 271.216 107.59C271.216 104.922 271.758 102.273 272.84 99.644C273.923 97.0147 275.412 94.6173 277.306 92.452C279.24 90.248 281.463 88.508 283.976 87.232C286.528 85.9173 289.254 85.26 292.154 85.26C293.392 85.26 294.494 85.5307 295.46 86.072C296.427 86.6133 296.91 87.348 296.91 88.276C296.91 88.6627 296.756 89.088 296.446 89.552C296.137 90.016 295.75 90.248 295.286 90.248C295.093 90.248 294.88 90.19 294.648 90.074C294.184 89.8033 293.662 89.5907 293.082 89.436C292.502 89.2427 291.884 89.146 291.226 89.146C290.569 89.146 289.892 89.262 289.196 89.494C287.302 89.9967 285.523 90.828 283.86 91.988C282.236 93.1093 280.786 94.4627 279.51 96.048C278.273 97.6333 277.306 99.3347 276.61 101.152C275.914 102.969 275.566 104.806 275.566 106.662C275.566 108.209 275.779 109.465 276.204 110.432C276.668 111.36 277.616 111.824 279.046 111.824C279.974 111.824 280.922 111.534 281.888 110.954C282.894 110.374 283.822 109.678 284.672 108.866C285.562 108.054 286.277 107.319 286.818 106.662C287.63 105.734 288.481 104.709 289.37 103.588C290.26 102.467 291.11 101.384 291.922 100.34C292.734 99.2573 293.411 98.31 293.952 97.498C294.532 96.686 294.9 96.1447 295.054 95.874C295.402 95.4487 295.692 95.1973 295.924 95.12C296.156 95.004 296.485 94.946 296.91 94.946C297.606 94.946 298.109 95.178 298.418 95.642C298.728 96.0673 298.94 96.5893 299.056 97.208C299.172 97.8267 299.269 98.4067 299.346 98.948V103.356C299.346 104.941 299.308 106.759 299.23 108.808C299.153 110.819 298.979 112.926 298.708 115.13C298.476 117.295 298.07 119.383 297.49 121.394C296.91 123.443 296.118 125.299 295.112 126.962C294.107 128.625 292.831 129.939 291.284 130.906C289.738 131.873 287.862 132.356 285.658 132.356ZM315.934 116.58C314.194 116.58 312.57 116.193 311.062 115.42C309.592 114.647 308.355 113.603 307.35 112.288C306.344 110.973 305.687 109.504 305.378 107.88V104.806C305.378 102.602 305.784 100.379 306.596 98.136C307.408 95.8933 308.529 93.8247 309.96 91.93C311.429 90.0353 313.15 88.5273 315.122 87.406C317.132 86.246 319.298 85.666 321.618 85.666C323.087 85.666 324.498 85.9173 325.852 86.42C327.244 86.9227 328.481 87.5027 329.564 88.16C329.796 86.536 330.086 85.4147 330.434 84.796C330.782 84.1773 331.381 83.868 332.232 83.868C332.889 83.868 333.353 84.0807 333.624 84.506C333.894 84.8927 334.03 85.5887 334.03 86.594C334.03 88.914 333.972 91.1953 333.856 93.438C333.778 95.642 333.74 97.904 333.74 100.224C333.74 102.08 333.836 103.994 334.03 105.966C334.262 107.938 334.378 109.833 334.378 111.65C334.378 112.23 334.378 112.81 334.378 113.39C334.416 113.97 334.32 114.453 334.088 114.84C333.894 115.188 333.469 115.362 332.812 115.362C331.884 115.362 331.188 114.937 330.724 114.086C330.298 113.197 330.008 112.133 329.854 110.896C329.699 109.659 329.544 108.499 329.39 107.416C329.003 108.46 328.346 109.485 327.418 110.49C326.528 111.495 325.62 112.365 324.692 113.1C323.802 113.796 323.106 114.299 322.604 114.608C322.14 114.879 322.14 114.84 322.604 114.492C321.753 115.111 320.69 115.613 319.414 116C318.176 116.387 317.016 116.58 315.934 116.58ZM315.354 112.926C317.094 112.926 318.718 112.423 320.226 111.418C321.734 110.413 323.048 109.117 324.17 107.532C325.33 105.947 326.219 104.284 326.838 102.544C327.495 100.804 327.824 99.1993 327.824 97.73C327.824 96.9953 327.727 96.164 327.534 95.236C327.379 94.2693 327.07 93.3413 326.606 92.452C326.142 91.5627 325.504 90.828 324.692 90.248C323.918 89.668 322.894 89.378 321.618 89.378C319.955 89.378 318.37 89.9193 316.862 91.002C315.354 92.046 314 93.3993 312.802 95.062C311.642 96.686 310.733 98.368 310.076 100.108C309.418 101.848 309.09 103.414 309.09 104.806C309.09 105.85 309.264 107.01 309.612 108.286C309.998 109.562 310.636 110.664 311.526 111.592C312.454 112.481 313.73 112.926 315.354 112.926ZM347.449 78.068C346.173 78.068 345.149 77.778 344.375 77.198C343.641 76.5793 343.273 75.7867 343.273 74.82C343.273 73.9307 343.699 73.254 344.549 72.79C345.4 72.2873 346.483 72.036 347.797 72.036C349.112 72.036 350.137 72.3453 350.871 72.964C351.606 73.544 351.973 74.356 351.973 75.4C351.973 76.2507 351.548 76.908 350.697 77.372C349.885 77.836 348.803 78.068 347.449 78.068ZM344.433 115.13C343.892 115.13 343.467 114.782 343.157 114.086C342.887 113.39 342.693 112.501 342.577 111.418C342.5 110.335 342.461 109.214 342.461 108.054C342.461 107.513 342.461 106.971 342.461 106.43C342.5 105.85 342.519 105.309 342.519 104.806C342.519 104.651 342.577 104.149 342.693 103.298C342.809 102.409 342.945 101.384 343.099 100.224C343.254 99.064 343.409 97.9233 343.563 96.802C343.757 95.642 343.911 94.7333 344.027 94.076C344.143 93.5733 344.279 92.916 344.433 92.104C344.588 91.2533 344.859 90.4993 345.245 89.842C345.671 89.146 346.27 88.798 347.043 88.798C347.933 88.798 348.551 88.972 348.899 89.32C349.286 89.6293 349.479 90.132 349.479 90.828C349.479 91.0213 349.46 91.2147 349.421 91.408C349.421 91.6013 349.402 91.814 349.363 92.046C349.17 93.2833 348.919 94.83 348.609 96.686C348.339 98.5033 348.087 100.417 347.855 102.428C347.662 104.4 347.604 106.275 347.681 108.054C347.72 108.479 347.759 108.982 347.797 109.562C347.875 110.103 347.913 110.645 347.913 111.186C347.913 112.191 347.701 113.1 347.275 113.912C346.85 114.724 345.903 115.13 344.433 115.13ZM359.497 114.84C358.917 114.84 358.492 114.705 358.221 114.434C357.95 114.163 357.757 113.777 357.641 113.274C357.448 112.617 357.351 111.921 357.351 111.186V108.924C357.351 107.687 357.39 106.623 357.467 105.734C357.544 104.806 357.583 103.801 357.583 102.718C357.583 102.331 357.564 101.925 357.525 101.5C357.525 101.036 357.506 100.553 357.467 100.05C357.312 98.1553 357.1 96.164 356.829 94.076C356.558 91.988 356.423 90.0933 356.423 88.392V86.13C356.655 85.5887 356.868 85.26 357.061 85.144C357.293 85.028 357.602 84.97 357.989 84.97C358.917 84.97 359.574 85.3373 359.961 86.072C360.348 86.768 360.599 87.5993 360.715 88.566C360.87 89.494 360.966 90.306 361.005 91.002C361.044 91.2727 361.102 91.8527 361.179 92.742C361.295 93.6313 361.411 94.6367 361.527 95.758C361.643 96.8407 361.74 97.8847 361.817 98.89C361.933 99.8953 361.991 100.669 361.991 101.21C362.61 99.934 363.344 98.6193 364.195 97.266C365.046 95.874 365.896 94.5787 366.747 93.38C367.636 92.1813 368.429 91.2147 369.125 90.48C370.13 89.3587 371.31 88.4887 372.663 87.87C374.055 87.2127 375.428 86.884 376.781 86.884C378.366 86.884 379.758 87.3287 380.957 88.218C382.156 89.1073 383.18 90.2673 384.031 91.698C384.92 93.1287 385.655 94.6753 386.235 96.338C386.815 97.962 387.279 99.5473 387.627 101.094C388.13 103.143 388.497 104.941 388.729 106.488C389 108.035 389.232 109.794 389.425 111.766C389.425 112.617 389.251 113.293 388.903 113.796C388.555 114.299 388.13 114.55 387.627 114.55C386.892 114.55 386.37 114.395 386.061 114.086C385.752 113.738 385.539 113.197 385.423 112.462C385.152 110.993 384.882 109.33 384.611 107.474C384.379 105.618 384.05 103.743 383.625 101.848C383.2 99.9147 382.581 98.1553 381.769 96.57C381.46 95.8353 381.073 95.0813 380.609 94.308C380.145 93.5347 379.584 92.8773 378.927 92.336C378.27 91.7947 377.458 91.524 376.491 91.524C375.215 91.524 373.92 92.0847 372.605 93.206C371.329 94.3273 370.111 95.7773 368.951 97.556C367.791 99.3347 366.728 101.249 365.761 103.298C364.794 105.309 363.982 107.223 363.325 109.04C363.132 109.659 362.88 110.355 362.571 111.128C362.3 111.863 362.01 112.559 361.701 113.216C361.43 113.757 361.121 114.163 360.773 114.434C360.464 114.705 360.038 114.84 359.497 114.84Z" fill="#EFEFD0"/>
</svg>
